Araya-400.ufo
<glyph name="exclam" format="1">
  <advance width="253"/>
  <unicode hex="0021"/>
  <note>
	exclam
  </note>
  <outline>
    <contour>
      <point x="152" y="171" type="line"/>
      <point x="159" y="417" type="line"/>
      <point x="159" y="614" type="line"/>
      <point x="93" y="614" type="line"/>
      <point x="93" y="417" type="line"/>
      <point x="100" y="171" type="line"/>
    </contour>
    <contour>
      <point x="161" y="0" type="line"/>
      <point x="161" y="85" type="line"/>
      <point x="93" y="85" type="line"/>
      <point x="93" y="0" type="line"/>
    </contour>
  </outline>
</glyph>
<glyph name="quotedbl" format="1">
  <advance width="330"/>
  <unicode hex="0022"/>
  <note>
	quotedbl
  </note>
  <outline>
    <contour>
      <point x="173" y="423" type="line"/>
      <point x="181" y="548" type="line" smooth="yes"/>
      <point x="182" y="569"/>
      <point x="182" y="590"/>
      <point x="178" y="614" type="curve"/>
      <point x="130" y="614" type="line"/>
      <point x="126" y="590"/>
      <point x="126" y="569"/>
      <point x="127" y="548" type="curve" smooth="yes"/>
      <point x="135" y="423" type="line"/>
    </contour>
    <contour>
      <point x="195" y="423" type="line"/>
      <point x="203" y="548" type="line" smooth="yes"/>
      <point x="204" y="569"/>
      <point x="204" y="590"/>
      <point x="200" y="614" type="curve"/>
      <point x="152" y="614" type="line"/>
      <point x="148" y="590"/>
      <point x="148" y="569"/>
      <point x="149" y="548" type="curve" smooth="yes"/>
      <point x="157" y="423" type="line"/>
    </contour>
  </outline>
</glyph>
<glyph name="dollar" format="1">
  <advance width="529"/>
  <unicode hex="0024"/>
  <note>
	dollar
  </note>
  <outline>
    <contour>
      <point x="298" y="-110" type="line"/>
      <point x="298" y="-6" type="line"/>
      <point x="426" y="6"/>
      <point x="463" y="84"/>
      <point x="463" y="169" type="curve" smooth="yes"/>
      <point x="463" y="266"/>
      <point x="411" y="306"/>
      <point x="289" y="338" type="curve" smooth="yes"/>
      <point x="185" y="365"/>
      <point x="145" y="389"/>
      <point x="145" y="457" type="curve" smooth="yes"/>
      <point x="145" y="531"/>
      <point x="182" y="570"/>
      <point x="277" y="570" type="curve" smooth="yes"/>
      <point x="313" y="570"/>
      <point x="344" y="566"/>
      <point x="376" y="562" type="curve"/>
      <point x="385" y="480" type="line"/>
      <point x="428" y="480" type="line"/>
      <point x="436" y="505"/>
      <point x="442" y="537"/>
      <point x="442" y="565" type="curve" smooth="yes"/>
      <point x="442" y="587" type="line"/>
      <point x="407" y="608"/>
      <point x="366" y="622"/>
      <point x="301" y="626" type="curve"/>
      <point x="301" y="714" type="line"/>
      <point x="243" y="714" type="line"/>
      <point x="243" y="624" type="line"/>
      <point x="127" y="609"/>
      <point x="82" y="542"/>
      <point x="82" y="452" type="curve" smooth="yes"/>
      <point x="82" y="342"/>
      <point x="170" y="305"/>
      <point x="271" y="278" type="curve" smooth="yes"/>
      <point x="368" y="252"/>
      <point x="400" y="226"/>
      <point x="400" y="155" type="curve" smooth="yes"/>
      <point x="400" y="121"/>
      <point x="394" y="93"/>
      <point x="383" y="66" type="curve"/>
      <point x="350" y="58"/>
      <point x="311" y="53"/>
      <point x="265" y="53" type="curve" smooth="yes"/>
      <point x="200" y="53"/>
      <point x="146" y="63"/>
      <point x="89" y="92" type="curve"/>
      <point x="67" y="37" type="line"/>
      <point x="120" y="10"/>
      <point x="176" y="-5"/>
      <point x="240" y="-7" type="curve"/>
      <point x="240" y="-110" type="line"/>
    </contour>
  </outline>
</glyph>
<glyph name="ampersand" format="1">
  <advance width="690"/>
  <unicode hex="0026"/>
  <note>
	ampersand
  </note>
  <outline>
    <contour>
      <point x="375" y="-11"/>
      <point x="418" y="-2"/>
      <point x="455" y="14" type="curve"/>
      <point x="466" y="33"/>
      <point x="477" y="60"/>
      <point x="484" y="84" type="curve"/>
      <point x="491" y="84" type="line"/>
      <point x="578" y="-7" type="line"/>
      <point x="624" y="25" type="line"/>
      <point x="501" y="148" type="line"/>
      <point x="518" y="195"/>
      <point x="526" y="238"/>
      <point x="538" y="301" type="curve"/>
      <point x="479" y="315" type="line"/>
      <point x="472" y="265"/>
      <point x="466" y="227"/>
      <point x="453" y="186" type="curve"/>
      <point x="279" y="352" type="line" smooth="yes"/>
      <point x="240" y="390"/>
      <point x="226" y="411"/>
      <point x="226" y="463" type="curve" smooth="yes"/>
      <point x="226" y="522"/>
      <point x="259" y="549"/>
      <point x="331" y="549" type="curve" smooth="yes"/>
      <point x="372" y="549"/>
      <point x="401" y="542"/>
      <point x="429" y="530" type="curve"/>
      <point x="437" y="446" type="line"/>
      <point x="479" y="446" type="line"/>
      <point x="486" y="466"/>
      <point x="491" y="492"/>
      <point x="491" y="512" type="curve" smooth="yes"/>
      <point x="491" y="543" type="line"/>
      <point x="464" y="574"/>
      <point x="413" y="604"/>
      <point x="331" y="604" type="curve" smooth="yes"/>
      <point x="225" y="604"/>
      <point x="164" y="552"/>
      <point x="164" y="462" type="curve" smooth="yes"/>
      <point x="164" y="413"/>
      <point x="183" y="379"/>
      <point x="219" y="344" type="curve"/>
      <point x="219" y="336" type="line"/>
      <point x="133" y="303"/>
      <point x="85" y="255"/>
      <point x="85" y="159" type="curve" smooth="yes"/>
      <point x="85" y="46"/>
      <point x="171" y="-11"/>
      <point x="297" y="-11" type="curve" smooth="yes"/>
    </contour>
    <contour>
      <point x="210" y="45"/>
      <point x="147" y="77"/>
      <point x="147" y="159" type="curve" smooth="yes"/>
      <point x="147" y="237"/>
      <point x="186" y="276"/>
      <point x="256" y="298" type="curve"/>
      <point x="434" y="128" type="line"/>
      <point x="430" y="104"/>
      <point x="421" y="76"/>
      <point x="410" y="58" type="curve"/>
      <point x="381" y="49"/>
      <point x="353" y="45"/>
      <point x="299" y="45" type="curve" smooth="yes"/>
    </contour>
  </outline>
</glyph>
<glyph name="asterisk" format="1">
  <advance width="478"/>
  <unicode hex="002A"/>
  <note>
	asterisk
  </note>
  <outline>
    <contour>
      <point x="236" y="437" type="line"/>
      <point x="243" y="437" type="line"/>
      <point x="319" y="318" type="line"/>
      <point x="364" y="350" type="line"/>
      <point x="275" y="463" type="line"/>
      <point x="276" y="467" type="line"/>
      <point x="402" y="501" type="line"/>
      <point x="385" y="554" type="line"/>
      <point x="263" y="503" type="line"/>
      <point x="259" y="506" type="line"/>
      <point x="267" y="645" type="line"/>
      <point x="212" y="645" type="line"/>
      <point x="219" y="506" type="line"/>
      <point x="216" y="503" type="line"/>
      <point x="94" y="554" type="line"/>
      <point x="77" y="501" type="line"/>
      <point x="202" y="467" type="line"/>
      <point x="204" y="463" type="line"/>
      <point x="115" y="350" type="line"/>
      <point x="160" y="318" type="line"/>
    </contour>
  </outline>
</glyph>
<glyph name="period" format="1">
  <advance width="241"/>
  <unicode hex="002E"/>
  <note>
	period
  </note>
  <outline>
    <contour>
      <point x="160" y="0" type="line"/>
      <point x="160" y="81" type="line"/>
      <point x="81" y="81" type="line"/>
      <point x="81" y="0" type="line"/>
    </contour>
  </outline>
</glyph>
<glyph name="zero" format="1">
  <advance width="622"/>
  <unicode hex="0030"/>
  <note>
	zero
  </note>
  <outline>
    <contour>
      <point x="496" y="-7"/>
      <point x="551" y="110"/>
      <point x="551" y="308" type="curve" smooth="yes"/>
      <point x="551" y="509"/>
      <point x="481" y="604"/>
      <point x="320" y="604" type="curve" smooth="yes"/>
      <point x="127" y="604"/>
      <point x="72" y="484"/>
      <point x="72" y="288" type="curve" smooth="yes"/>
      <point x="72" y="87"/>
      <point x="147" y="-7"/>
      <point x="302" y="-7" type="curve" smooth="yes"/>
    </contour>
    <contour>
      <point x="179" y="52"/>
      <point x="135" y="124"/>
      <point x="135" y="303" type="curve" smooth="yes"/>
      <point x="135" y="392"/>
      <point x="150" y="462"/>
      <point x="177" y="524" type="curve"/>
      <point x="208" y="536"/>
      <point x="260" y="545"/>
      <point x="308" y="545" type="curve" smooth="yes"/>
      <point x="443" y="545"/>
      <point x="486" y="473"/>
      <point x="486" y="294" type="curve" smooth="yes"/>
      <point x="486" y="205"/>
      <point x="470" y="134"/>
      <point x="444" y="72" type="curve"/>
      <point x="413" y="60"/>
      <point x="361" y="52"/>
      <point x="314" y="52" type="curve" smooth="yes"/>
    </contour>
  </outline>
</glyph>
<glyph name="one" format="1">
  <advance width="375"/>
  <unicode hex="0031"/>
  <note>
	one
  </note>
  <outline>
    <contour>
      <point x="271" y="0" type="line"/>
      <point x="271" y="559" type="line" smooth="yes"/>
      <point x="271" y="576"/>
      <point x="231" y="602"/>
      <point x="204" y="604" type="curve"/>
      <point x="57" y="530" type="line"/>
      <point x="74" y="487" type="line"/>
      <point x="198" y="534" type="line"/>
      <point x="207" y="527" type="line"/>
      <point x="207" y="0" type="line"/>
    </contour>
  </outline>
</glyph>
<glyph name="two" format="1">
  <advance width="561"/>
  <unicode hex="0032"/>
  <note>
	two
  </note>
  <outline>
    <contour>
      <point x="487" y="0" type="line"/>
      <point x="487" y="42" type="line" smooth="yes"/>
      <point x="487" y="70"/>
      <point x="482" y="101"/>
      <point x="473" y="127" type="curve"/>
      <point x="424" y="127" type="line"/>
      <point x="424" y="56" type="line"/>
      <point x="146" y="56" type="line"/>
      <point x="146" y="64" type="line"/>
      <point x="310" y="173"/>
      <point x="463" y="287"/>
      <point x="463" y="441" type="curve" smooth="yes"/>
      <point x="463" y="549"/>
      <point x="409" y="604"/>
      <point x="283" y="604" type="curve" smooth="yes"/>
      <point x="207" y="604"/>
      <point x="148" y="588"/>
      <point x="90" y="561" type="curve"/>
      <point x="90" y="521" type="line" smooth="yes"/>
      <point x="90" y="486"/>
      <point x="96" y="458"/>
      <point x="105" y="431" type="curve"/>
      <point x="153" y="431" type="line"/>
      <point x="153" y="526" type="line"/>
      <point x="197" y="540"/>
      <point x="234" y="546"/>
      <point x="277" y="546" type="curve" smooth="yes"/>
      <point x="362" y="546"/>
      <point x="400" y="520"/>
      <point x="400" y="436" type="curve" smooth="yes"/>
      <point x="400" y="316"/>
      <point x="249" y="201"/>
      <point x="70" y="79" type="curve"/>
      <point x="70" y="0" type="line"/>
    </contour>
  </outline>
</glyph>
<glyph name="four" format="1">
  <advance width="569"/>
  <unicode hex="0034"/>
  <note>
	four
  </note>
  <outline>
    <contour>
      <point x="424" y="0" type="line"/>
      <point x="424" y="120" type="line"/>
      <point x="510" y="120" type="line"/>
      <point x="510" y="176" type="line"/>
      <point x="424" y="176" type="line"/>
      <point x="424" y="604" type="line"/>
      <point x="347" y="604" type="line"/>
      <point x="53" y="181" type="line"/>
      <point x="71" y="120" type="line"/>
      <point x="364" y="120" type="line"/>
      <point x="364" y="0" type="line"/>
    </contour>
    <contour>
      <point x="122" y="183" type="line"/>
      <point x="364" y="532" type="line"/>
      <point x="371" y="532" type="line"/>
      <point x="364" y="377" type="line"/>
      <point x="364" y="176" type="line"/>
      <point x="124" y="176" type="line"/>
    </contour>
  </outline>
</glyph>
<glyph name="six" format="1">
  <advance width="523"/>
  <unicode hex="0036"/>
  <note>
	six
  </note>
  <outline>
    <contour>
      <point x="429" y="0"/>
      <point x="473" y="93"/>
      <point x="473" y="185" type="curve" smooth="yes"/>
      <point x="473" y="300"/>
      <point x="415" y="361"/>
      <point x="299" y="361" type="curve" smooth="yes"/>
      <point x="242" y="361"/>
      <point x="188" y="343"/>
      <point x="140" y="314" type="curve"/>
      <point x="166" y="422"/>
      <point x="229" y="493"/>
      <point x="350" y="573" type="curve"/>
      <point x="295" y="602" type="line"/>
      <point x="155" y="508"/>
      <point x="71" y="398"/>
      <point x="71" y="231" type="curve" smooth="yes"/>
      <point x="71" y="90"/>
      <point x="136" y="0"/>
      <point x="278" y="0" type="curve" smooth="yes"/>
    </contour>
    <contour>
      <point x="179" y="57"/>
      <point x="133" y="110"/>
      <point x="133" y="231" type="curve" smooth="yes"/>
      <point x="133" y="241"/>
      <point x="133" y="250"/>
      <point x="134" y="261" type="curve"/>
      <point x="185" y="290"/>
      <point x="236" y="304"/>
      <point x="288" y="304" type="curve" smooth="yes"/>
      <point x="380" y="304"/>
      <point x="409" y="268"/>
      <point x="409" y="185" type="curve" smooth="yes"/>
      <point x="409" y="142"/>
      <point x="402" y="104"/>
      <point x="387" y="71" type="curve"/>
      <point x="354" y="62"/>
      <point x="327" y="57"/>
      <point x="281" y="57" type="curve" smooth="yes"/>
    </contour>
  </outline>
</glyph>
<glyph name="seven" format="1">
  <advance width="541"/>
  <unicode hex="0037"/>
  <note>
	seven
  </note>
  <outline>
    <contour>
      <point x="294" y="198"/>
      <point x="361" y="354"/>
      <point x="479" y="532" type="curve"/>
      <point x="479" y="604" type="line"/>
      <point x="65" y="604" type="line"/>
      <point x="65" y="550" type="line" smooth="yes"/>
      <point x="65" y="514"/>
      <point x="71" y="483"/>
      <point x="80" y="459" type="curve"/>
      <point x="128" y="459" type="line"/>
      <point x="128" y="546" type="line"/>
      <point x="413" y="546" type="line"/>
      <point x="413" y="540" type="line"/>
      <point x="309" y="391"/>
      <point x="235" y="232"/>
      <point x="188" y="9" type="curve"/>
      <point x="253" y="2" type="line"/>
    </contour>
  </outline>
</glyph>
<glyph name="less" format="1">
  <advance width="584"/>
  <unicode hex="003C"/>
  <note>
	less
  </note>
  <outline>
    <contour>
      <point x="492" y="88" type="line"/>
      <point x="134" y="246" type="line"/>
      <point x="134" y="252" type="line"/>
      <point x="492" y="409" type="line"/>
      <point x="476" y="466" type="line"/>
      <point x="72" y="279" type="line"/>
      <point x="72" y="218" type="line"/>
      <point x="476" y="32" type="line"/>
    </contour>
  </outline>
</glyph>
<glyph name="equal" format="1">
  <advance width="572"/>
  <unicode hex="003D"/>
  <note>
	equal
  </note>
  <outline>
    <contour>
      <point x="486" y="318" type="line"/>
      <point x="486" y="372" type="line"/>
      <point x="87" y="372" type="line"/>
      <point x="87" y="318" type="line"/>
    </contour>
    <contour>
      <point x="486" y="119" type="line"/>
      <point x="486" y="173" type="line"/>
      <point x="87" y="173" type="line"/>
      <point x="87" y="119" type="line"/>
    </contour>
  </outline>
</glyph>
<glyph name="at" format="1">
  <advance width="799"/>
  <unicode hex="0040"/>
  <note>
	at
  </note>
  <outline>
    <contour>
      <point x="515" y="-59"/>
      <point x="600" y="-39"/>
      <point x="654" y="-4" type="curve"/>
      <point x="635" y="36" type="line"/>
      <point x="582" y="8"/>
      <point x="524" y="-12"/>
      <point x="431" y="-12" type="curve" smooth="yes"/>
      <point x="246" y="-12"/>
      <point x="134" y="74"/>
      <point x="134" y="270" type="curve" smooth="yes"/>
      <point x="134" y="431"/>
      <point x="228" y="560"/>
      <point x="418" y="560" type="curve" smooth="yes"/>
      <point x="588" y="560"/>
      <point x="668" y="458"/>
      <point x="668" y="320" type="curve" smooth="yes"/>
      <point x="668" y="257"/>
      <point x="658" y="206"/>
      <point x="639" y="171" type="curve"/>
      <point x="619" y="165"/>
      <point x="599" y="164"/>
      <point x="575" y="164" type="curve" smooth="yes"/>
      <point x="546" y="164"/>
      <point x="520" y="173"/>
      <point x="501" y="188" type="curve"/>
      <point x="544" y="410" type="line"/>
      <point x="501" y="417" type="line"/>
      <point x="486" y="385" type="line"/>
      <point x="481" y="385" type="line"/>
      <point x="463" y="409"/>
      <point x="439" y="429"/>
      <point x="399" y="429" type="curve" smooth="yes"/>
      <point x="302" y="429"/>
      <point x="256" y="329"/>
      <point x="256" y="236" type="curve" smooth="yes"/>
      <point x="256" y="164"/>
      <point x="297" y="115"/>
      <point x="362" y="115" type="curve" smooth="yes"/>
      <point x="408" y="115"/>
      <point x="438" y="133"/>
      <point x="465" y="165" type="curve"/>
      <point x="471" y="165" type="line"/>
      <point x="497" y="133"/>
      <point x="525" y="117"/>
      <point x="567" y="117" type="curve" smooth="yes"/>
      <point x="682" y="117"/>
      <point x="721" y="222"/>
      <point x="721" y="323" type="curve" smooth="yes"/>
      <point x="721" y="480"/>
      <point x="616" y="607"/>
      <point x="418" y="607" type="curve" smooth="yes"/>
      <point x="191" y="607"/>
      <point x="82" y="450"/>
      <point x="82" y="270" type="curve" smooth="yes"/>
      <point x="82" y="61"/>
      <point x="200" y="-59"/>
      <point x="427" y="-59" type="curve" smooth="yes"/>
    </contour>
    <contour>
      <point x="331" y="162"/>
      <point x="313" y="188"/>
      <point x="313" y="238" type="curve" smooth="yes"/>
      <point x="313" y="315"/>
      <point x="348" y="382"/>
      <point x="409" y="382" type="curve" smooth="yes"/>
      <point x="437" y="382"/>
      <point x="455" y="369"/>
      <point x="473" y="345" type="curve"/>
      <point x="446" y="191" type="line"/>
      <point x="427" y="172"/>
      <point x="405" y="162"/>
      <point x="375" y="162" type="curve" smooth="yes"/>
    </contour>
  </outline>
</glyph>
<glyph name="A" format="1">
  <advance width="591"/>
  <unicode hex="0041"/>
  <outline>
    <contour>
      <point x="123" y="65"/>
      <point x="144" y="141"/>
      <point x="163" y="209" type="curve"/>
      <point x="427" y="209" type="line"/>
      <point x="447" y="141"/>
      <point x="468" y="65"/>
      <point x="484" y="0" type="curve"/>
      <point x="551" y="7" type="line"/>
      <point x="497" y="205"/>
      <point x="425" y="436"/>
      <point x="358" y="614" type="curve"/>
      <point x="233" y="614" type="line"/>
      <point x="166" y="436"/>
      <point x="94" y="205"/>
      <point x="40" y="7" type="curve"/>
      <point x="107" y="0" type="line"/>
    </contour>
    <contour>
      <point x="211" y="369"/>
      <point x="248" y="485"/>
      <point x="273" y="553" type="curve"/>
      <point x="317" y="553" type="line"/>
      <point x="342" y="485"/>
      <point x="378" y="369"/>
      <point x="409" y="265" type="curve"/>
      <point x="180" y="265" type="line"/>
    </contour>
  </outline>
</glyph>
<glyph name="E" format="1">
  <advance width="523"/>
  <unicode hex="0045"/>
  <note>
	E
  </note>
  <outline>
    <contour>
      <point x="358" y="-9"/>
      <point x="414" y="-3"/>
      <point x="463" y="10" type="curve"/>
      <point x="449" y="65" type="line"/>
      <point x="401" y="54"/>
      <point x="345" y="49"/>
      <point x="289" y="49" type="curve" smooth="yes"/>
      <point x="233" y="49"/>
      <point x="191" y="52"/>
      <point x="143" y="61" type="curve"/>
      <point x="143" y="280" type="line"/>
      <point x="423" y="280" type="line"/>
      <point x="423" y="336" type="line"/>
      <point x="143" y="336" type="line"/>
      <point x="143" y="556" type="line"/>
      <point x="452" y="556" type="line"/>
      <point x="452" y="614" type="line"/>
      <point x="81" y="614" type="line"/>
      <point x="81" y="74" type="line" smooth="yes"/>
      <point x="81" y="9"/>
      <point x="172" y="-9"/>
      <point x="286" y="-9" type="curve" smooth="yes"/>
    </contour>
  </outline>
</glyph>
<glyph name="H" format="1">
  <advance width="592"/>
  <unicode hex="0048"/>
  <note>
	H
  </note>
  <outline>
    <contour>
      <point x="145" y="0" type="line"/>
      <point x="145" y="268" type="line"/>
      <point x="447" y="268" type="line"/>
      <point x="447" y="0" type="line"/>
      <point x="510" y="0" type="line"/>
      <point x="510" y="614" type="line"/>
      <point x="447" y="614" type="line"/>
      <point x="447" y="327" type="line"/>
      <point x="145" y="327" type="line"/>
      <point x="145" y="614" type="line"/>
      <point x="82" y="614" type="line"/>
      <point x="82" y="0" type="line"/>
    </contour>
  </outline>
</glyph>
<glyph name="M" format="1">
  <advance width="682"/>
  <unicode hex="004D"/>
  <note>
	M
  </note>
  <outline>
    <contour>
      <point x="137" y="0" type="line"/>
      <point x="151" y="319" type="line"/>
      <point x="154" y="499" type="line"/>
      <point x="161" y="501" type="line"/>
      <point x="314" y="187" type="line"/>
      <point x="368" y="187" type="line"/>
      <point x="521" y="501" type="line"/>
      <point x="528" y="499" type="line"/>
      <point x="532" y="319" type="line"/>
      <point x="546" y="0" type="line"/>
      <point x="609" y="0" type="line"/>
      <point x="582" y="614" type="line"/>
      <point x="514" y="614" type="line"/>
      <point x="345" y="252" type="line"/>
      <point x="338" y="252" type="line"/>
      <point x="168" y="614" type="line"/>
      <point x="101" y="614" type="line"/>
      <point x="73" y="0" type="line"/>
    </contour>
  </outline>
</glyph>
<glyph name="P" format="1">
  <advance width="517"/>
  <unicode hex="0050"/>
  <note>
	P
  </note>
  <outline>
    <contour>
      <point x="145" y="0" type="line"/>
      <point x="145" y="206" type="line"/>
      <point x="244" y="206" type="line" smooth="yes"/>
      <point x="414" y="206"/>
      <point x="480" y="277"/>
      <point x="480" y="418" type="curve" smooth="yes"/>
      <point x="480" y="557"/>
      <point x="399" y="624"/>
      <point x="247" y="624" type="curve" smooth="yes"/>
      <point x="189" y="624"/>
      <point x="133" y="613"/>
      <point x="82" y="599" type="curve"/>
      <point x="82" y="0" type="line"/>
    </contour>
    <contour>
      <point x="145" y="555" type="line"/>
      <point x="176" y="563"/>
      <point x="214" y="566"/>
      <point x="246" y="566" type="curve" smooth="yes"/>
      <point x="353" y="566"/>
      <point x="417" y="525"/>
      <point x="417" y="415" type="curve" smooth="yes"/>
      <point x="417" y="358"/>
      <point x="405" y="311"/>
      <point x="381" y="278" type="curve"/>
      <point x="340" y="266"/>
      <point x="301" y="263"/>
      <point x="236" y="263" type="curve" smooth="yes"/>
      <point x="145" y="263" type="line"/>
    </contour>
  </outline>
</glyph>
<glyph name="V" format="1">
  <advance width="582"/>
  <unicode hex="0056"/>
  <note>
	V
  </note>
  <outline>
    <contour>
      <point x="337" y="0" type="line"/>
      <point x="415" y="173"/>
      <point x="492" y="414"/>
      <point x="541" y="615" type="curve"/>
      <point x="474" y="620" type="line"/>
      <point x="429" y="427"/>
      <point x="352" y="186"/>
      <point x="298" y="60" type="curve"/>
      <point x="283" y="60" type="line"/>
      <point x="229" y="186"/>
      <point x="152" y="427"/>
      <point x="107" y="620" type="curve"/>
      <point x="40" y="615" type="line"/>
      <point x="90" y="414"/>
      <point x="166" y="173"/>
      <point x="244" y="0" type="curve"/>
    </contour>
  </outline>
</glyph>
<glyph name="X" format="1">
  <advance width="613"/>
  <unicode hex="0058"/>
  <note>
	X
  </note>
  <outline>
    <contour>
      <point x="163" y="94"/>
      <point x="220" y="178"/>
      <point x="292" y="278" type="curve"/>
      <point x="318" y="278" type="line"/>
      <point x="384" y="182"/>
      <point x="441" y="93"/>
      <point x="492" y="-7" type="curve"/>
      <point x="558" y="10" type="line"/>
      <point x="506" y="108"/>
      <point x="431" y="225"/>
      <point x="370" y="310" type="curve"/>
      <point x="434" y="397"/>
      <point x="505" y="505"/>
      <point x="559" y="606" type="curve"/>
      <point x="495" y="620" type="line"/>
      <point x="441" y="515"/>
      <point x="384" y="428"/>
      <point x="319" y="337" type="curve"/>
      <point x="292" y="337" type="line"/>
      <point x="233" y="424"/>
      <point x="177" y="516"/>
      <point x="124" y="620" type="curve"/>
      <point x="55" y="605" type="line"/>
      <point x="109" y="506"/>
      <point x="183" y="387"/>
      <point x="241" y="305" type="curve"/>
      <point x="175" y="217"/>
      <point x="102" y="109"/>
      <point x="47" y="10" type="curve"/>
      <point x="111" y="-7" type="line"/>
    </contour>
  </outline>
</glyph>
<glyph name="Z" format="1">
  <advance width="552"/>
  <unicode hex="005A"/>
  <note>
	Z
  </note>
  <outline>
    <contour>
      <point x="498" y="0" type="line"/>
      <point x="498" y="38" type="line" smooth="yes"/>
      <point x="498" y="70"/>
      <point x="491" y="103"/>
      <point x="483" y="128" type="curve"/>
      <point x="432" y="128" type="line"/>
      <point x="432" y="57" type="line"/>
      <point x="130" y="57" type="line"/>
      <point x="130" y="69" type="line"/>
      <point x="487" y="547" type="line"/>
      <point x="487" y="614" type="line"/>
      <point x="69" y="614" type="line"/>
      <point x="69" y="575" type="line" smooth="yes"/>
      <point x="69" y="543"/>
      <point x="76" y="513"/>
      <point x="85" y="488" type="curve"/>
      <point x="135" y="488" type="line"/>
      <point x="135" y="556" type="line"/>
      <point x="412" y="556" type="line"/>
      <point x="412" y="546" type="line"/>
      <point x="56" y="68" type="line"/>
      <point x="56" y="0" type="line"/>
    </contour>
  </outline>
</glyph>
<glyph name="bracketleft" format="1">
  <advance width="283"/>
  <unicode hex="005B"/>
  <note>
	bracketleft
  </note>
  <outline>
    <contour>
      <point x="204" y="-85" type="line"/>
      <point x="204" y="-31" type="line"/>
      <point x="142" y="-31" type="line"/>
      <point x="142" y="652" type="line"/>
      <point x="204" y="652" type="line"/>
      <point x="204" y="707" type="line"/>
      <point x="81" y="707" type="line"/>
      <point x="81" y="-85" type="line"/>
    </contour>
  </outline>
</glyph>
<glyph name="backslash" format="1">
  <advance width="426"/>
  <unicode hex="005C"/>
  <note>
	backslash
  </note>
  <outline>
    <contour>
      <point x="362" y="-4" type="line"/>
      <point x="118" y="634" type="line"/>
      <point x="64" y="621" type="line"/>
      <point x="307" y="-18" type="line"/>
    </contour>
  </outline>
</glyph>
<glyph name="underscore" format="1">
  <advance width="562"/>
  <unicode hex="005F"/>
  <note>
	underscore
  </note>
  <outline>
    <contour>
      <point x="495" y="-42" type="line"/>
      <point x="495" y="0" type="line"/>
      <point x="66" y="0" type="line"/>
      <point x="66" y="-42" type="line"/>
    </contour>
  </outline>
</glyph>
<glyph name="f" format="1">
  <advance width="329"/>
  <unicode hex="0066"/>
  <note>
	f
  </note>
  <outline>
    <contour>
      <point x="159" y="0" type="line"/>
      <point x="159" y="417" type="line"/>
      <point x="263" y="417" type="line"/>
      <point x="271" y="468" type="line"/>
      <point x="159" y="468" type="line"/>
      <point x="159" y="545" type="line" smooth="yes"/>
      <point x="159" y="568"/>
      <point x="161" y="586"/>
      <point x="169" y="608" type="curve"/>
      <point x="189" y="614"/>
      <point x="211" y="617"/>
      <point x="233" y="617" type="curve" smooth="yes"/>
      <point x="261" y="617"/>
      <point x="279" y="613"/>
      <point x="305" y="603" type="curve"/>
      <point x="321" y="653" type="line"/>
      <point x="298" y="664"/>
      <point x="272" y="672"/>
      <point x="237" y="672" type="curve" smooth="yes"/>
      <point x="220" y="672"/>
      <point x="197" y="670"/>
      <point x="175" y="665" type="curve"/>
      <point x="143" y="647"/>
      <point x="100" y="607"/>
      <point x="100" y="554" type="curve" smooth="yes"/>
      <point x="100" y="468" type="line"/>
      <point x="43" y="468" type="line"/>
      <point x="35" y="417" type="line"/>
      <point x="100" y="417" type="line"/>
      <point x="100" y="0" type="line"/>
    </contour>
  </outline>
</glyph>
<glyph name="i" format="1">
  <advance width="222"/>
  <unicode hex="0069"/>
  <note>
	i
  </note>
  <outline>
    <contour>
      <point x="140" y="0" type="line"/>
      <point x="140" y="467" type="line"/>
      <point x="81" y="467" type="line"/>
      <point x="81" y="0" type="line"/>
    </contour>
    <contour>
      <point x="143" y="554" type="line"/>
      <point x="143" y="647" type="line"/>
      <point x="80" y="647" type="line"/>
      <point x="80" y="554" type="line"/>
    </contour>
  </outline>
</glyph>
<glyph name="l" format="1">
  <advance width="268"/>
  <unicode hex="006C"/>
  <note>
	l
  </note>
  <outline>
    <contour>
      <point x="187" y="-3"/>
      <point x="222" y="16"/>
      <point x="243" y="41" type="curve"/>
      <point x="217" y="74" type="line"/>
      <point x="155" y="44" type="line"/>
      <point x="141" y="44" type="line"/>
      <point x="134" y="57"/>
      <point x="133" y="65"/>
      <point x="133" y="86" type="curve" smooth="yes"/>
      <point x="133" y="669" type="line"/>
      <point x="74" y="669" type="line"/>
      <point x="74" y="76" type="line" smooth="yes"/>
      <point x="74" y="45"/>
      <point x="121" y="4"/>
      <point x="149" y="-7" type="curve"/>
    </contour>
  </outline>
</glyph>
<glyph name="u" format="1">
  <advance width="511"/>
  <unicode hex="0075"/>
  <note>
	u
  </note>
  <outline>
    <contour>
      <point x="272" y="-9"/>
      <point x="322" y="23"/>
      <point x="368" y="72" type="curve"/>
      <point x="376" y="72" type="line"/>
      <point x="380" y="0" type="line"/>
      <point x="431" y="0" type="line"/>
      <point x="431" y="468" type="line"/>
      <point x="371" y="468" type="line"/>
      <point x="371" y="117" type="line"/>
      <point x="334" y="75"/>
      <point x="279" y="45"/>
      <point x="209" y="45" type="curve" smooth="yes"/>
      <point x="184" y="45"/>
      <point x="161" y="48"/>
      <point x="135" y="56" type="curve"/>
      <point x="135" y="468" type="line"/>
      <point x="75" y="468" type="line"/>
      <point x="75" y="100" type="line" smooth="yes"/>
      <point x="75" y="21"/>
      <point x="117" y="-9"/>
      <point x="199" y="-9" type="curve" smooth="yes"/>
    </contour>
  </outline>
</glyph>
<glyph name="v" format="1">
  <advance width="469"/>
  <unicode hex="0076"/>
  <note>
	v
  </note>
  <outline>
    <contour>
      <point x="270" y="0" type="line"/>
      <point x="337" y="158"/>
      <point x="389" y="309"/>
      <point x="436" y="465" type="curve"/>
      <point x="377" y="471" type="line"/>
      <point x="336" y="326"/>
      <point x="285" y="169"/>
      <point x="239" y="57" type="curve"/>
      <point x="230" y="57" type="line"/>
      <point x="184" y="169"/>
      <point x="134" y="326"/>
      <point x="93" y="471" type="curve"/>
      <point x="32" y="465" type="line"/>
      <point x="78" y="309"/>
      <point x="128" y="158"/>
      <point x="196" y="0" type="curve"/>
    </contour>
  </outline>
</glyph>
<glyph name="bar" format="1">
  <advance width="232"/>
  <unicode hex="007C"/>
  <note>
	bar
  </note>
  <outline>
    <contour>
      <point x="143" y="-140" type="line"/>
      <point x="143" y="624" type="line"/>
      <point x="88" y="624" type="line"/>
      <point x="88" y="-140" type="line"/>
    </contour>
  </outline>
</glyph>
<glyph name="braceright" format="1">
  <advance width="409"/>
  <unicode hex="007D"/>
  <note>
	braceright
  </note>
  <outline>
    <contour>
      <point x="187" y="-117"/>
      <point x="236" y="-63"/>
      <point x="228" y="78" type="curve" smooth="yes"/>
      <point x="224" y="161" type="line" smooth="yes"/>
      <point x="220" y="229"/>
      <point x="241" y="292"/>
      <point x="342" y="292" type="curve"/>
      <point x="342" y="340" type="line"/>
      <point x="241" y="340"/>
      <point x="220" y="403"/>
      <point x="224" y="472" type="curve" smooth="yes"/>
      <point x="228" y="542" type="line" smooth="yes"/>
      <point x="236" y="683"/>
      <point x="187" y="737"/>
      <point x="56" y="742" type="curve"/>
      <point x="56" y="686" type="line"/>
      <point x="98" y="685"/>
      <point x="132" y="680"/>
      <point x="159" y="669" type="curve"/>
      <point x="168" y="633"/>
      <point x="171" y="593"/>
      <point x="169" y="539" type="curve" smooth="yes"/>
      <point x="165" y="457" type="line" smooth="yes"/>
      <point x="161" y="383"/>
      <point x="192" y="337"/>
      <point x="255" y="319" type="curve"/>
      <point x="255" y="314" type="line"/>
      <point x="192" y="296"/>
      <point x="161" y="249"/>
      <point x="165" y="175" type="curve" smooth="yes"/>
      <point x="169" y="81" type="line" smooth="yes"/>
      <point x="171" y="27"/>
      <point x="168" y="-13"/>
      <point x="159" y="-49" type="curve"/>
      <point x="132" y="-60"/>
      <point x="98" y="-65"/>
      <point x="56" y="-66" type="curve"/>
      <point x="56" y="-122" type="line"/>
    </contour>
  </outline>
</glyph>
<glyph name="sterling" format="1">
  <advance width="545"/>
  <unicode hex="00A3"/>
  <note>
	sterling
  </note>
  <outline>
    <contour>
      <point x="361" y="-6"/>
      <point x="424" y="-2"/>
      <point x="493" y="4" type="curve"/>
      <point x="493" y="59" type="line"/>
      <point x="429" y="53"/>
      <point x="369" y="50"/>
      <point x="310" y="50" type="curve" smooth="yes"/>
      <point x="263" y="50"/>
      <point x="227" y="51"/>
      <point x="184" y="55" type="curve"/>
      <point x="184" y="254" type="line"/>
      <point x="389" y="254" type="line"/>
      <point x="389" y="302" type="line"/>
      <point x="184" y="302" type="line"/>
      <point x="184" y="434" type="line" smooth="yes"/>
      <point x="184" y="472"/>
      <point x="186" y="504"/>
      <point x="197" y="542" type="curve"/>
      <point x="242" y="553"/>
      <point x="276" y="556"/>
      <point x="320" y="556" type="curve" smooth="yes"/>
      <point x="372" y="556"/>
      <point x="405" y="551"/>
      <point x="451" y="538" type="curve"/>
      <point x="465" y="590" type="line"/>
      <point x="417" y="607"/>
      <point x="380" y="614"/>
      <point x="317" y="614" type="curve" smooth="yes"/>
      <point x="180" y="614"/>
      <point x="121" y="549"/>
      <point x="121" y="439" type="curve" smooth="yes"/>
      <point x="121" y="302" type="line"/>
      <point x="57" y="302" type="line"/>
      <point x="57" y="254" type="line"/>
      <point x="121" y="254" type="line"/>
      <point x="121" y="54" type="line"/>
      <point x="56" y="44" type="line"/>
      <point x="56" y="4" type="line"/>
      <point x="130" y="-2"/>
      <point x="209" y="-6"/>
      <point x="287" y="-6" type="curve" smooth="yes"/>
    </contour>
  </outline>
</glyph>
<glyph name="copyright" format="1">
  <advance width="738"/>
  <unicode hex="00A9"/>
  <note>
	copyright
  </note>
  <outline>
    <contour>
      <point x="556" y="5"/>
      <point x="671" y="131"/>
      <point x="671" y="308" type="curve" smooth="yes"/>
      <point x="671" y="485"/>
      <point x="556" y="611"/>
      <point x="369" y="611" type="curve" smooth="yes"/>
      <point x="181" y="611"/>
      <point x="66" y="485"/>
      <point x="66" y="308" type="curve" smooth="yes"/>
      <point x="66" y="131"/>
      <point x="181" y="5"/>
      <point x="369" y="5" type="curve" smooth="yes"/>
    </contour>
    <contour>
      <point x="416" y="122"/>
      <point x="456" y="131"/>
      <point x="484" y="149" type="curve"/>
      <point x="466" y="189" type="line"/>
      <point x="443" y="175"/>
      <point x="410" y="167"/>
      <point x="372" y="167" type="curve" smooth="yes"/>
      <point x="298" y="167"/>
      <point x="266" y="208"/>
      <point x="266" y="298" type="curve" smooth="yes"/>
      <point x="266" y="356"/>
      <point x="277" y="402"/>
      <point x="299" y="439" type="curve"/>
      <point x="322" y="443"/>
      <point x="343" y="444"/>
      <point x="364" y="444" type="curve" smooth="yes"/>
      <point x="393" y="444"/>
      <point x="412" y="441"/>
      <point x="428" y="439" type="curve"/>
      <point x="433" y="394" type="line"/>
      <point x="466" y="394" type="line"/>
      <point x="471" y="408"/>
      <point x="474" y="431"/>
      <point x="474" y="446" type="curve" smooth="yes"/>
      <point x="474" y="465" type="line"/>
      <point x="455" y="478"/>
      <point x="410" y="489"/>
      <point x="367" y="489" type="curve" smooth="yes"/>
      <point x="270" y="489"/>
      <point x="218" y="408"/>
      <point x="218" y="299" type="curve" smooth="yes"/>
      <point x="218" y="190"/>
      <point x="270" y="122"/>
      <point x="372" y="122" type="curve" smooth="yes"/>
    </contour>
    <contour>
      <point x="201" y="38"/>
      <point x="100" y="145"/>
      <point x="100" y="308" type="curve" smooth="yes"/>
      <point x="100" y="471"/>
      <point x="201" y="578"/>
      <point x="368" y="578" type="curve" smooth="yes"/>
      <point x="536" y="578"/>
      <point x="637" y="471"/>
      <point x="637" y="308" type="curve" smooth="yes"/>
      <point x="637" y="145"/>
      <point x="536" y="38"/>
      <point x="368" y="38" type="curve" smooth="yes"/>
    </contour>
  </outline>
</glyph>
<glyph name="ordfeminine" format="1">
  <advance width="355"/>
  <unicode hex="00AA"/>
  <note>
	ordfeminine
  </note>
  <outline>
    <contour>
      <point x="192" y="265"/>
      <point x="225" y="286"/>
      <point x="249" y="317" type="curve"/>
      <point x="255" y="317" type="line"/>
      <point x="258" y="270" type="line"/>
      <point x="303" y="270" type="line"/>
      <point x="303" y="515" type="line" smooth="yes"/>
      <point x="303" y="579"/>
      <point x="266" y="616"/>
      <point x="197" y="616" type="curve" smooth="yes"/>
      <point x="154" y="616"/>
      <point x="108" y="604"/>
      <point x="74" y="587" type="curve"/>
      <point x="74" y="568" type="line" smooth="yes"/>
      <point x="74" y="553"/>
      <point x="77" y="536"/>
      <point x="81" y="522" type="curve"/>
      <point x="113" y="522" type="line"/>
      <point x="119" y="564" type="line"/>
      <point x="139" y="568"/>
      <point x="167" y="571"/>
      <point x="186" y="571" type="curve" smooth="yes"/>
      <point x="235" y="571"/>
      <point x="251" y="556"/>
      <point x="251" y="508" type="curve" smooth="yes"/>
      <point x="251" y="456" type="line"/>
      <point x="235" y="459"/>
      <point x="220" y="460"/>
      <point x="203" y="460" type="curve" smooth="yes"/>
      <point x="112" y="460"/>
      <point x="49" y="424"/>
      <point x="49" y="350" type="curve" smooth="yes"/>
      <point x="49" y="301"/>
      <point x="82" y="265"/>
      <point x="145" y="265" type="curve" smooth="yes"/>
    </contour>
    <contour>
      <point x="117" y="311"/>
      <point x="103" y="328"/>
      <point x="103" y="360" type="curve" smooth="yes"/>
      <point x="103" y="376"/>
      <point x="105" y="391"/>
      <point x="114" y="409" type="curve"/>
      <point x="137" y="414"/>
      <point x="160" y="416"/>
      <point x="187" y="416" type="curve" smooth="yes"/>
      <point x="214" y="416"/>
      <point x="232" y="415"/>
      <point x="253" y="411" type="curve"/>
      <point x="253" y="360" type="line"/>
      <point x="227" y="329"/>
      <point x="198" y="311"/>
      <point x="156" y="311" type="curve" smooth="yes"/>
    </contour>
  </outline>
</glyph>
<glyph name="logicalnot" format="1">
  <advance width="453"/>
  <unicode hex="00AC"/>
  <note>
	logicalnot
  </note>
  <outline>
    <contour>
      <point x="396" y="147" type="line"/>
      <point x="396" y="339" type="line"/>
      <point x="56" y="339" type="line"/>
      <point x="56" y="286" type="line"/>
      <point x="340" y="286" type="line"/>
      <point x="340" y="147" type="line"/>
    </contour>
  </outline>
</glyph>
<glyph name="softhyphen" format="1">
  <advance width="353"/>
  <unicode hex="00AD"/>
  <note>
	softhyphen
  </note>
  <outline>
    <contour>
      <point x="282" y="232" type="line"/>
      <point x="282" y="288" type="line"/>
      <point x="71" y="288" type="line"/>
      <point x="71" y="232" type="line"/>
    </contour>
  </outline>
</glyph>
<glyph name="macron" format="1">
  <advance width="398"/>
  <unicode hex="00AF"/>
  <note>
	macron
  </note>
  <outline>
    <contour>
      <point x="341" y="533" type="line"/>
      <point x="341" y="586" type="line"/>
      <point x="56" y="586" type="line"/>
      <point x="56" y="533" type="line"/>
    </contour>
  </outline>
</glyph>
<glyph name="degree" format="1">
  <advance width="399"/>
  <unicode hex="00B0"/>
  <note>
	degree
  </note>
  <outline>
    <contour>
      <point x="316" y="287"/>
      <point x="375" y="348"/>
      <point x="375" y="455" type="curve" smooth="yes"/>
      <point x="375" y="561"/>
      <point x="323" y="610"/>
      <point x="224" y="610" type="curve" smooth="yes"/>
      <point x="110" y="610"/>
      <point x="51" y="549"/>
      <point x="51" y="442" type="curve" smooth="yes"/>
      <point x="51" y="336"/>
      <point x="103" y="287"/>
      <point x="202" y="287" type="curve" smooth="yes"/>
    </contour>
    <contour>
      <point x="141" y="340"/>
      <point x="110" y="359"/>
      <point x="110" y="450" type="curve" smooth="yes"/>
      <point x="110" y="482"/>
      <point x="115" y="517"/>
      <point x="124" y="545" type="curve"/>
      <point x="154" y="553"/>
      <point x="181" y="557"/>
      <point x="210" y="557" type="curve" smooth="yes"/>
      <point x="286" y="557"/>
      <point x="317" y="538"/>
      <point x="317" y="447" type="curve" smooth="yes"/>
      <point x="317" y="415"/>
      <point x="312" y="380"/>
      <point x="303" y="352" type="curve"/>
      <point x="273" y="344"/>
      <point x="246" y="340"/>
      <point x="217" y="340" type="curve" smooth="yes"/>
    </contour>
  </outline>
</glyph>
<glyph name="twosuperior" format="1">
  <advance width="324"/>
  <unicode hex="00B2"/>
  <note>
	twosuperior
  </note>
  <outline>
    <contour>
      <point x="282" y="334" type="line"/>
      <point x="282" y="357" type="line" smooth="yes"/>
      <point x="282" y="377"/>
      <point x="280" y="395"/>
      <point x="274" y="413" type="curve"/>
      <point x="231" y="413" type="line"/>
      <point x="231" y="381" type="line"/>
      <point x="95" y="381" type="line"/>
      <point x="95" y="385" type="line"/>
      <point x="186" y="442"/>
      <point x="275" y="507"/>
      <point x="275" y="591" type="curve" smooth="yes"/>
      <point x="275" y="649"/>
      <point x="249" y="694"/>
      <point x="166" y="694" type="curve" smooth="yes"/>
      <point x="124" y="694"/>
      <point x="86" y="685"/>
      <point x="53" y="671" type="curve"/>
      <point x="53" y="652" type="line" smooth="yes"/>
      <point x="53" y="633"/>
      <point x="56" y="609"/>
      <point x="61" y="595" type="curve"/>
      <point x="104" y="595" type="line"/>
      <point x="104" y="637" type="line"/>
      <point x="126" y="642"/>
      <point x="139" y="643"/>
      <point x="161" y="643" type="curve" smooth="yes"/>
      <point x="204" y="643"/>
      <point x="220" y="630"/>
      <point x="220" y="588" type="curve" smooth="yes"/>
      <point x="220" y="530"/>
      <point x="152" y="473"/>
      <point x="41" y="405" type="curve"/>
      <point x="41" y="334" type="line"/>
    </contour>
  </outline>
</glyph>
<glyph name="paragraph" format="1">
  <advance width="647"/>
  <unicode hex="00B6"/>
  <note>
	paragraph
  </note>
  <outline>
    <contour>
      <point x="336" y="-120" type="line"/>
      <point x="336" y="570" type="line"/>
      <point x="428" y="570" type="line"/>
      <point x="428" y="-120" type="line"/>
      <point x="485" y="-120" type="line"/>
      <point x="485" y="616" type="line"/>
      <point x="264" y="616" type="line" smooth="yes"/>
      <point x="139" y="616"/>
      <point x="71" y="554"/>
      <point x="71" y="434" type="curve" smooth="yes"/>
      <point x="71" y="321"/>
      <point x="137" y="257"/>
      <point x="260" y="257" type="curve" smooth="yes"/>
      <point x="280" y="257" type="line"/>
      <point x="280" y="-120" type="line"/>
    </contour>
  </outline>
</glyph>
<glyph name="cedilla" format="1">
  <advance width="322"/>
  <unicode hex="00B8"/>
  <note>
	cedilla
  </note>
  <outline>
    <contour>
      <point x="246" y="-216"/>
      <point x="281" y="-188"/>
      <point x="281" y="-130" type="curve" smooth="yes"/>
      <point x="281" y="-84"/>
      <point x="259" y="-56"/>
      <point x="206" y="-56" type="curve" smooth="yes"/>
      <point x="188" y="-56"/>
      <point x="173" y="-59"/>
      <point x="161" y="-64" type="curve"/>
      <point x="209" y="1" type="line"/>
      <point x="167" y="9" type="line"/>
      <point x="103" y="-68" type="line"/>
      <point x="139" y="-104" type="line"/>
      <point x="152" y="-99"/>
      <point x="166" y="-97"/>
      <point x="183" y="-97" type="curve" smooth="yes"/>
      <point x="213" y="-97"/>
      <point x="229" y="-108"/>
      <point x="229" y="-134" type="curve" smooth="yes"/>
      <point x="229" y="-147"/>
      <point x="227" y="-157"/>
      <point x="223" y="-167" type="curve"/>
      <point x="208" y="-170"/>
      <point x="194" y="-172"/>
      <point x="173" y="-172" type="curve" smooth="yes"/>
      <point x="152" y="-172"/>
      <point x="125" y="-168"/>
      <point x="105" y="-160" type="curve"/>
      <point x="91" y="-200" type="line"/>
      <point x="121" y="-213"/>
      <point x="148" y="-216"/>
      <point x="175" y="-216" type="curve" smooth="yes"/>
    </contour>
  </outline>
</glyph>
<glyph name="onesuperior" format="1">
  <advance width="224"/>
  <unicode hex="00B9"/>
  <note>
	onesuperior
  </note>
  <outline>
    <contour>
      <point x="170" y="332" type="line"/>
      <point x="170" y="663" type="line" smooth="yes"/>
      <point x="170" y="676"/>
      <point x="135" y="693"/>
      <point x="113" y="694" type="curve"/>
      <point x="29" y="644" type="line"/>
      <point x="42" y="611" type="line"/>
      <point x="111" y="637" type="line"/>
      <point x="116" y="633" type="line"/>
      <point x="116" y="332" type="line"/>
    </contour>
  </outline>
</glyph>
<glyph name="guillemotright" format="1">
  <advance width="452"/>
  <unicode hex="00BB"/>
  <note>
	guillemotright
  </note>
  <outline>
    <contour>
      <point x="395" y="251" type="line"/>
      <point x="265" y="425" type="line"/>
      <point x="221" y="405" type="line"/>
      <point x="334" y="254" type="line"/>
      <point x="334" y="248" type="line"/>
      <point x="221" y="97" type="line"/>
      <point x="265" y="77" type="line"/>
    </contour>
    <contour>
      <point x="235" y="251" type="line"/>
      <point x="105" y="425" type="line"/>
      <point x="61" y="405" type="line"/>
      <point x="174" y="254" type="line"/>
      <point x="174" y="248" type="line"/>
      <point x="61" y="97" type="line"/>
      <point x="105" y="77" type="line"/>
    </contour>
  </outline>
</glyph>
<glyph name="onequarter" format="1">
  <advance width="792"/>
  <unicode hex="00BC"/>
  <note>
	onequarter
  </note>
  <outline>
    <contour>
      <point x="591" y="608" type="line"/>
      <point x="543" y="621" type="line"/>
      <point x="160" y="9" type="line"/>
      <point x="209" y="-5" type="line"/>
    </contour>
    <contour>
      <point x="202" y="256" type="line"/>
      <point x="202" y="587" type="line" smooth="yes"/>
      <point x="202" y="600"/>
      <point x="167" y="617"/>
      <point x="145" y="618" type="curve"/>
      <point x="61" y="568" type="line"/>
      <point x="74" y="532" type="line"/>
      <point x="140" y="558" type="line"/>
      <point x="145" y="554" type="line"/>
      <point x="145" y="256" type="line"/>
    </contour>
    <contour>
      <point x="677" y="0" type="line"/>
      <point x="677" y="66" type="line"/>
      <point x="729" y="66" type="line"/>
      <point x="729" y="112" type="line"/>
      <point x="677" y="112" type="line"/>
      <point x="677" y="355" type="line"/>
      <point x="620" y="355" type="line"/>
      <point x="451" y="113" type="line"/>
      <point x="470" y="66" type="line"/>
      <point x="622" y="66" type="line"/>
      <point x="622" y="0" type="line"/>
    </contour>
    <contour>
      <point x="514" y="117" type="line"/>
      <point x="628" y="292" type="line"/>
      <point x="632" y="292" type="line"/>
      <point x="627" y="246"/>
      <point x="625" y="211"/>
      <point x="625" y="170" type="curve" smooth="yes"/>
      <point x="625" y="112" type="line"/>
      <point x="516" y="112" type="line"/>
    </contour>
  </outline>
</glyph>
<glyph name="questiondown" format="1">
  <advance width="515"/>
  <unicode hex="00BF"/>
  <note>
	questiondown
  </note>
  <outline>
    <contour>
      <point x="331" y="-108"/>
      <point x="409" y="-86"/>
      <point x="444" y="-66" type="curve"/>
      <point x="444" y="-35" type="line" smooth="yes"/>
      <point x="443" y="-9"/>
      <point x="439" y="17"/>
      <point x="431" y="43" type="curve"/>
      <point x="384" y="43" type="line"/>
      <point x="384" y="-34" type="line"/>
      <point x="346" y="-45"/>
      <point x="299" y="-50"/>
      <point x="252" y="-50" type="curve" smooth="yes"/>
      <point x="166" y="-50"/>
      <point x="128" y="-23"/>
      <point x="128" y="49" type="curve" smooth="yes"/>
      <point x="128" y="118" type="line"/>
      <point x="288" y="238" type="line" smooth="yes"/>
      <point x="308" y="254"/>
      <point x="314" y="268"/>
      <point x="314" y="297" type="curve" smooth="yes"/>
      <point x="314" y="363" type="line"/>
      <point x="252" y="363" type="line"/>
      <point x="252" y="307" type="line" smooth="yes"/>
      <point x="252" y="283"/>
      <point x="249" y="276"/>
      <point x="233" y="263" type="curve" smooth="yes"/>
      <point x="123" y="182" type="line" smooth="yes"/>
      <point x="77" y="148"/>
      <point x="66" y="111"/>
      <point x="66" y="53" type="curve" smooth="yes"/>
      <point x="66" y="-50"/>
      <point x="117" y="-108"/>
      <point x="250" y="-108" type="curve" smooth="yes"/>
    </contour>
    <contour>
      <point x="316" y="434" type="line"/>
      <point x="316" y="517" type="line"/>
      <point x="251" y="517" type="line"/>
      <point x="251" y="434" type="line"/>
    </contour>
  </outline>
</glyph>
<glyph name="Acircumflex" format="1">
  <advance width="591"/>
  <unicode hex="00C2"/>
  <note>
	Acircumflex
  </note>
  <outline>
    <contour>
      <point x="292" y="786" type="line"/>
      <point x="298" y="786" type="line"/>
      <point x="385" y="698" type="line"/>
      <point x="426" y="706" type="line"/>
      <point x="325" y="839" type="line"/>
      <point x="265" y="839" type="line"/>
      <point x="164" y="706" type="line"/>
      <point x="203" y="698" type="line"/>
    </contour>
    <component base="A"/>
  </outline>
</glyph>
<glyph name="Aring" format="1">
  <advance width="591"/>
  <unicode hex="00C5"/>
  <note>
	Aring
  </note>
  <outline>
    <contour>
      <point x="362" y="698"/>
      <point x="405" y="740"/>
      <point x="405" y="790" type="curve" smooth="yes"/>
      <point x="405" y="846"/>
      <point x="368" y="878"/>
      <point x="302" y="878" type="curve" smooth="yes"/>
      <point x="227" y="878"/>
      <point x="185" y="834"/>
      <point x="185" y="784" type="curve" smooth="yes"/>
      <point x="185" y="728"/>
      <point x="223" y="698"/>
      <point x="287" y="698" type="curve" smooth="yes"/>
    </contour>
    <contour>
      <point x="251" y="737"/>
      <point x="230" y="756"/>
      <point x="230" y="786" type="curve" smooth="yes"/>
      <point x="230" y="801"/>
      <point x="231" y="814"/>
      <point x="237" y="832" type="curve"/>
      <point x="256" y="838"/>
      <point x="275" y="839"/>
      <point x="300" y="839" type="curve" smooth="yes"/>
      <point x="339" y="839"/>
      <point x="360" y="820"/>
      <point x="360" y="788" type="curve" smooth="yes"/>
      <point x="360" y="773"/>
      <point x="357" y="759"/>
      <point x="353" y="744" type="curve"/>
      <point x="335" y="739"/>
      <point x="314" y="737"/>
      <point x="290" y="737" type="curve" smooth="yes"/>
    </contour>
    <component base="A"/>
  </outline>
</glyph>
<glyph name="Igrave" format="1">
  <advance width="232"/>
  <unicode hex="00CC"/>
  <note>
	Igrave
  </note>
  <outline>
    <contour>
      <point x="147" y="0" type="line"/>
      <point x="147" y="614" type="line"/>
      <point x="84" y="614" type="line"/>
      <point x="84" y="0" type="line"/>
    </contour>
    <contour>
      <point x="148" y="706" type="line"/>
      <point x="64" y="848" type="line"/>
      <point x="-16" y="840" type="line"/>
      <point x="102" y="698" type="line"/>
    </contour>
  </outline>
</glyph>
<glyph name="Iacute" format="1">
  <advance width="232"/>
  <unicode hex="00CD"/>
  <note>
	Iacute
  </note>
  <outline>
    <contour>
      <point x="147" y="0" type="line"/>
      <point x="147" y="614" type="line"/>
      <point x="84" y="614" type="line"/>
      <point x="84" y="0" type="line"/>
    </contour>
    <contour>
      <point x="251" y="840" type="line"/>
      <point x="170" y="848" type="line"/>
      <point x="87" y="706" type="line"/>
      <point x="132" y="698" type="line"/>
    </contour>
  </outline>
</glyph>
<glyph name="Icircumflex" format="1">
  <advance width="232"/>
  <unicode hex="00CE"/>
  <note>
	Icircumflex
  </note>
  <outline>
    <contour>
      <point x="147" y="0" type="line"/>
      <point x="147" y="614" type="line"/>
      <point x="84" y="614" type="line"/>
      <point x="84" y="0" type="line"/>
    </contour>
    <contour>
      <point x="114" y="786" type="line"/>
      <point x="119" y="786" type="line"/>
      <point x="207" y="698" type="line"/>
      <point x="247" y="706" type="line"/>
      <point x="146" y="839" type="line"/>
      <point x="87" y="839" type="line"/>
      <point x="-15" y="706" type="line"/>
      <point x="24" y="698" type="line"/>
    </contour>
  </outline>
</glyph>
<glyph name="Idieresis" format="1">
  <advance width="232"/>
  <unicode hex="00CF"/>
  <note>
	Idieresis
  </note>
  <outline>
    <contour>
      <point x="147" y="0" type="line"/>
      <point x="147" y="614" type="line"/>
      <point x="84" y="614" type="line"/>
      <point x="84" y="0" type="line"/>
    </contour>
    <contour>
      <point x="62" y="701"/>
      <point x="76" y="715"/>
      <point x="76" y="738" type="curve" smooth="yes"/>
      <point x="76" y="762"/>
      <point x="62" y="775"/>
      <point x="38" y="775" type="curve" smooth="yes"/>
      <point x="14" y="775"/>
      <point x="-1" y="762"/>
      <point x="-1" y="738" type="curve" smooth="yes"/>
      <point x="-1" y="715"/>
      <point x="14" y="701"/>
      <point x="38" y="701" type="curve" smooth="yes"/>
    </contour>
    <contour>
      <point x="219" y="701"/>
      <point x="233" y="715"/>
      <point x="233" y="738" type="curve" smooth="yes"/>
      <point x="233" y="762"/>
      <point x="219" y="775"/>
      <point x="195" y="775" type="curve" smooth="yes"/>
      <point x="170" y="775"/>
      <point x="155" y="762"/>
      <point x="155" y="738" type="curve" smooth="yes"/>
      <point x="155" y="715"/>
      <point x="170" y="701"/>
      <point x="195" y="701" type="curve" smooth="yes"/>
    </contour>
  </outline>
</glyph>
<glyph name="Eth" format="1">
  <advance width="632"/>
  <unicode hex="00D0"/>
  <note>
	Eth
  </note>
  <outline>
    <contour>
      <point x="299" y="0" type="line" smooth="yes"/>
      <point x="532" y="0"/>
      <point x="583" y="136"/>
      <point x="583" y="316" type="curve" smooth="yes"/>
      <point x="583" y="511"/>
      <point x="509" y="624"/>
      <point x="308" y="624" type="curve" smooth="yes"/>
      <point x="249" y="624"/>
      <point x="192" y="617"/>
      <point x="141" y="605" type="curve"/>
      <point x="141" y="347" type="line"/>
      <point x="45" y="347" type="line"/>
      <point x="45" y="297" type="line"/>
      <point x="141" y="297" type="line"/>
      <point x="141" y="0" type="line"/>
    </contour>
    <contour>
      <point x="204" y="297" type="line"/>
      <point x="315" y="297" type="line"/>
      <point x="315" y="347" type="line"/>
      <point x="204" y="347" type="line"/>
      <point x="204" y="558" type="line"/>
      <point x="241" y="563"/>
      <point x="270" y="566"/>
      <point x="305" y="566" type="curve" smooth="yes"/>
      <point x="467" y="566"/>
      <point x="520" y="483"/>
      <point x="520" y="310" type="curve" smooth="yes"/>
      <point x="520" y="211"/>
      <point x="500" y="128"/>
      <point x="464" y="78" type="curve"/>
      <point x="416" y="64"/>
      <point x="366" y="58"/>
      <point x="298" y="58" type="curve" smooth="yes"/>
      <point x="204" y="58" type="line"/>
    </contour>
  </outline>
</glyph>
<glyph name="Ntilde" format="1">
  <advance width="616"/>
  <unicode hex="00D1"/>
  <note>
	Ntilde
  </note>
  <outline>
    <contour>
      <point x="144" y="0" type="line"/>
      <point x="144" y="326" type="line"/>
      <point x="136" y="516" type="line"/>
      <point x="143" y="518" type="line"/>
      <point x="463" y="0" type="line"/>
      <point x="534" y="0" type="line"/>
      <point x="534" y="614" type="line"/>
      <point x="471" y="614" type="line"/>
      <point x="471" y="288" type="line"/>
      <point x="480" y="98" type="line"/>
      <point x="472" y="96" type="line"/>
      <point x="152" y="614" type="line"/>
      <point x="81" y="614" type="line"/>
      <point x="81" y="0" type="line"/>
    </contour>
    <contour>
      <point x="216" y="726"/>
      <point x="227" y="746"/>
      <point x="256" y="746" type="curve" smooth="yes"/>
      <point x="291" y="746"/>
      <point x="320" y="698"/>
      <point x="368" y="698" type="curve" smooth="yes"/>
      <point x="417" y="698"/>
      <point x="442" y="730"/>
      <point x="446" y="788" type="curve"/>
      <point x="405" y="801" type="line"/>
      <point x="401" y="771"/>
      <point x="389" y="751"/>
      <point x="361" y="751" type="curve" smooth="yes"/>
      <point x="327" y="751"/>
      <point x="293" y="799"/>
      <point x="249" y="799" type="curve" smooth="yes"/>
      <point x="200" y="799"/>
      <point x="175" y="767"/>
      <point x="171" y="709" type="curve"/>
      <point x="212" y="696" type="line"/>
    </contour>
  </outline>
</glyph>
<glyph name="Otilde" format="1">
  <advance width="610"/>
  <unicode hex="00D5"/>
  <note>
	Otilde
  </note>
  <outline>
    <contour>
      <point x="489" y="-9"/>
      <point x="553" y="111"/>
      <point x="553" y="317" type="curve" smooth="yes"/>
      <point x="553" y="518"/>
      <point x="480" y="624"/>
      <point x="314" y="624" type="curve" smooth="yes"/>
      <point x="121" y="624"/>
      <point x="57" y="504"/>
      <point x="57" y="297" type="curve" smooth="yes"/>
      <point x="57" y="96"/>
      <point x="134" y="-9"/>
      <point x="296" y="-9" type="curve" smooth="yes"/>
    </contour>
    <contour>
      <point x="167" y="50"/>
      <point x="120" y="134"/>
      <point x="120" y="311" type="curve" smooth="yes"/>
      <point x="120" y="406"/>
      <point x="140" y="484"/>
      <point x="172" y="541" type="curve"/>
      <point x="201" y="556"/>
      <point x="253" y="565"/>
      <point x="300" y="565" type="curve" smooth="yes"/>
      <point x="443" y="565"/>
      <point x="490" y="480"/>
      <point x="490" y="303" type="curve" smooth="yes"/>
      <point x="490" y="208"/>
      <point x="466" y="129"/>
      <point x="435" y="73" type="curve"/>
      <point x="406" y="59"/>
      <point x="357" y="50"/>
      <point x="310" y="50" type="curve" smooth="yes"/>
    </contour>
    <contour>
      <point x="216" y="724"/>
      <point x="227" y="744"/>
      <point x="256" y="744" type="curve" smooth="yes"/>
      <point x="291" y="744"/>
      <point x="320" y="696"/>
      <point x="368" y="696" type="curve" smooth="yes"/>
      <point x="417" y="696"/>
      <point x="442" y="728"/>
      <point x="446" y="785" type="curve"/>
      <point x="405" y="798" type="line"/>
      <point x="401" y="769"/>
      <point x="389" y="749"/>
      <point x="361" y="749" type="curve" smooth="yes"/>
      <point x="327" y="749"/>
      <point x="293" y="797"/>
      <point x="249" y="797" type="curve" smooth="yes"/>
      <point x="200" y="797"/>
      <point x="175" y="765"/>
      <point x="171" y="707" type="curve"/>
      <point x="212" y="694" type="line"/>
    </contour>
  </outline>
</glyph>
<glyph name="Ugrave" format="1">
  <advance width="599"/>
  <unicode hex="00D9"/>
  <note>
	Ugrave
  </note>
  <outline>
    <contour>
      <point x="426" y="-9"/>
      <point x="519" y="23"/>
      <point x="519" y="104" type="curve" smooth="yes"/>
      <point x="519" y="614" type="line"/>
      <point x="456" y="614" type="line"/>
      <point x="456" y="75" type="line"/>
      <point x="422" y="60"/>
      <point x="369" y="50"/>
      <point x="300" y="50" type="curve" smooth="yes"/>
      <point x="190" y="50"/>
      <point x="141" y="79"/>
      <point x="141" y="184" type="curve" smooth="yes"/>
      <point x="141" y="614" type="line"/>
      <point x="78" y="614" type="line"/>
      <point x="78" y="170" type="line" smooth="yes"/>
      <point x="78" y="49"/>
      <point x="152" y="-9"/>
      <point x="293" y="-9" type="curve" smooth="yes"/>
    </contour>
    <contour>
      <point x="339" y="706" type="line"/>
      <point x="256" y="848" type="line"/>
      <point x="175" y="840" type="line"/>
      <point x="294" y="698" type="line"/>
    </contour>
  </outline>
</glyph>
<glyph name="Ucircumflex" format="1">
  <advance width="599"/>
  <unicode hex="00DB"/>
  <note>
	Ucircumflex
  </note>
  <outline>
    <contour>
      <point x="426" y="-9"/>
      <point x="519" y="23"/>
      <point x="519" y="104" type="curve" smooth="yes"/>
      <point x="519" y="614" type="line"/>
      <point x="456" y="614" type="line"/>
      <point x="456" y="75" type="line"/>
      <point x="422" y="60"/>
      <point x="369" y="50"/>
      <point x="300" y="50" type="curve" smooth="yes"/>
      <point x="190" y="50"/>
      <point x="141" y="79"/>
      <point x="141" y="184" type="curve" smooth="yes"/>
      <point x="141" y="614" type="line"/>
      <point x="78" y="614" type="line"/>
      <point x="78" y="170" type="line" smooth="yes"/>
      <point x="78" y="49"/>
      <point x="152" y="-9"/>
      <point x="293" y="-9" type="curve" smooth="yes"/>
    </contour>
    <contour>
      <point x="297" y="786" type="line"/>
      <point x="303" y="786" type="line"/>
      <point x="390" y="697" type="line"/>
      <point x="431" y="706" type="line"/>
      <point x="330" y="838" type="line"/>
      <point x="270" y="838" type="line"/>
      <point x="169" y="706" type="line"/>
      <point x="208" y="697" type="line"/>
    </contour>
  </outline>
</glyph>
<glyph name="Udieresis" format="1">
  <advance width="599"/>
  <unicode hex="00DC"/>
  <note>
	Udieresis
  </note>
  <outline>
    <contour>
      <point x="426" y="-9"/>
      <point x="519" y="23"/>
      <point x="519" y="104" type="curve" smooth="yes"/>
      <point x="519" y="614" type="line"/>
      <point x="456" y="614" type="line"/>
      <point x="456" y="75" type="line"/>
      <point x="422" y="60"/>
      <point x="369" y="50"/>
      <point x="300" y="50" type="curve" smooth="yes"/>
      <point x="190" y="50"/>
      <point x="141" y="79"/>
      <point x="141" y="184" type="curve" smooth="yes"/>
      <point x="141" y="614" type="line"/>
      <point x="78" y="614" type="line"/>
      <point x="78" y="170" type="line" smooth="yes"/>
      <point x="78" y="49"/>
      <point x="152" y="-9"/>
      <point x="293" y="-9" type="curve" smooth="yes"/>
    </contour>
    <contour>
      <point x="247" y="701"/>
      <point x="261" y="715"/>
      <point x="261" y="738" type="curve" smooth="yes"/>
      <point x="261" y="762"/>
      <point x="247" y="775"/>
      <point x="223" y="775" type="curve" smooth="yes"/>
      <point x="199" y="775"/>
      <point x="184" y="762"/>
      <point x="184" y="738" type="curve" smooth="yes"/>
      <point x="184" y="715"/>
      <point x="199" y="701"/>
      <point x="223" y="701" type="curve" smooth="yes"/>
    </contour>
    <contour>
      <point x="405" y="701"/>
      <point x="419" y="715"/>
      <point x="419" y="738" type="curve" smooth="yes"/>
      <point x="419" y="762"/>
      <point x="405" y="775"/>
      <point x="381" y="775" type="curve" smooth="yes"/>
      <point x="356" y="775"/>
      <point x="341" y="762"/>
      <point x="341" y="738" type="curve" smooth="yes"/>
      <point x="341" y="715"/>
      <point x="356" y="701"/>
      <point x="381" y="701" type="curve" smooth="yes"/>
    </contour>
  </outline>
</glyph>
<glyph name="Thorn" format="1">
  <advance width="481"/>
  <unicode hex="00DE"/>
  <note>
	Thorn
  </note>
  <outline>
    <contour>
      <point x="144" y="0" type="line"/>
      <point x="144" y="150" type="line"/>
      <point x="249" y="150" type="line" smooth="yes"/>
      <point x="365" y="150"/>
      <point x="434" y="208"/>
      <point x="434" y="324" type="curve" smooth="yes"/>
      <point x="434" y="436"/>
      <point x="366" y="494"/>
      <point x="249" y="494" type="curve" smooth="yes"/>
      <point x="144" y="494" type="line"/>
      <point x="144" y="616" type="line"/>
      <point x="81" y="616" type="line"/>
      <point x="81" y="0" type="line"/>
    </contour>
    <contour>
      <point x="144" y="438" type="line"/>
      <point x="245" y="438" type="line" smooth="yes"/>
      <point x="336" y="438"/>
      <point x="371" y="404"/>
      <point x="371" y="324" type="curve" smooth="yes"/>
      <point x="371" y="246"/>
      <point x="339" y="206"/>
      <point x="245" y="206" type="curve" smooth="yes"/>
      <point x="144" y="206" type="line"/>
    </contour>
  </outline>
</glyph>
<glyph name="edieresis" format="1">
  <advance width="475"/>
  <unicode hex="00EB"/>
  <note>
	edieresis
  </note>
  <outline>
    <contour>
      <point x="334" y="-9"/>
      <point x="379" y="13"/>
      <point x="419" y="36" type="curve"/>
      <point x="399" y="83" type="line"/>
      <point x="359" y="59"/>
      <point x="322" y="44"/>
      <point x="260" y="44" type="curve" smooth="yes"/>
      <point x="161" y="44"/>
      <point x="116" y="101"/>
      <point x="114" y="210" type="curve"/>
      <point x="374" y="208" type="line"/>
      <point x="425" y="259" type="line"/>
      <point x="437" y="392"/>
      <point x="377" y="476"/>
      <point x="257" y="476" type="curve" smooth="yes"/>
      <point x="123" y="476"/>
      <point x="55" y="381"/>
      <point x="55" y="231" type="curve" smooth="yes"/>
      <point x="55" y="82"/>
      <point x="113" y="-9"/>
      <point x="257" y="-9" type="curve" smooth="yes"/>
    </contour>
    <contour>
      <point x="118" y="363"/>
      <point x="149" y="423"/>
      <point x="253" y="423" type="curve" smooth="yes"/>
      <point x="333" y="423"/>
      <point x="371" y="377"/>
      <point x="371" y="307" type="curve" smooth="yes"/>
      <point x="371" y="293"/>
      <point x="369" y="275"/>
      <point x="365" y="259" type="curve"/>
      <point x="113" y="255" type="line"/>
    </contour>
    <contour>
      <point x="196" y="555"/>
      <point x="210" y="568"/>
      <point x="210" y="591" type="curve" smooth="yes"/>
      <point x="210" y="615"/>
      <point x="196" y="628"/>
      <point x="172" y="628" type="curve" smooth="yes"/>
      <point x="148" y="628"/>
      <point x="133" y="615"/>
      <point x="133" y="591" type="curve" smooth="yes"/>
      <point x="133" y="568"/>
      <point x="148" y="555"/>
      <point x="172" y="555" type="curve" smooth="yes"/>
    </contour>
    <contour>
      <point x="354" y="555"/>
      <point x="368" y="568"/>
      <point x="368" y="591" type="curve" smooth="yes"/>
      <point x="368" y="615"/>
      <point x="354" y="628"/>
      <point x="330" y="628" type="curve" smooth="yes"/>
      <point x="305" y="628"/>
      <point x="290" y="615"/>
      <point x="290" y="591" type="curve" smooth="yes"/>
      <point x="290" y="568"/>
      <point x="305" y="555"/>
      <point x="330" y="555" type="curve" smooth="yes"/>
    </contour>
  </outline>
</glyph>
<glyph name="idieresis" format="1">
  <advance width="239"/>
  <unicode hex="00EF"/>
  <note>
	idieresis
  </note>
  <outline>
    <contour>
      <point x="149" y="0" type="line"/>
      <point x="149" y="467" type="line"/>
      <point x="90" y="467" type="line"/>
      <point x="90" y="0" type="line"/>
    </contour>
    <contour>
      <point x="65" y="555"/>
      <point x="79" y="568"/>
      <point x="79" y="591" type="curve" smooth="yes"/>
      <point x="79" y="615"/>
      <point x="65" y="628"/>
      <point x="41" y="628" type="curve" smooth="yes"/>
      <point x="17" y="628"/>
      <point x="2" y="615"/>
      <point x="2" y="591" type="curve" smooth="yes"/>
      <point x="2" y="568"/>
      <point x="17" y="555"/>
      <point x="41" y="555" type="curve" smooth="yes"/>
    </contour>
    <contour>
      <point x="223" y="555"/>
      <point x="237" y="568"/>
      <point x="237" y="591" type="curve" smooth="yes"/>
      <point x="237" y="615"/>
      <point x="223" y="628"/>
      <point x="199" y="628" type="curve" smooth="yes"/>
      <point x="174" y="628"/>
      <point x="159" y="615"/>
      <point x="159" y="591" type="curve" smooth="yes"/>
      <point x="159" y="568"/>
      <point x="174" y="555"/>
      <point x="199" y="555" type="curve" smooth="yes"/>
    </contour>
  </outline>
</glyph>
<glyph name="ntilde" format="1">
  <advance width="516"/>
  <unicode hex="00F1"/>
  <note>
	ntilde
  </note>
  <outline>
    <contour>
      <point x="140" y="0" type="line"/>
      <point x="140" y="352" type="line"/>
      <point x="179" y="394"/>
      <point x="236" y="421"/>
      <point x="305" y="421" type="curve" smooth="yes"/>
      <point x="331" y="421"/>
      <point x="355" y="419"/>
      <point x="380" y="410" type="curve"/>
      <point x="380" y="0" type="line"/>
      <point x="440" y="0" type="line"/>
      <point x="440" y="366" type="line" smooth="yes"/>
      <point x="440" y="446"/>
      <point x="398" y="476"/>
      <point x="316" y="476" type="curve" smooth="yes"/>
      <point x="245" y="476"/>
      <point x="190" y="445"/>
      <point x="143" y="398" type="curve"/>
      <point x="136" y="398" type="line"/>
      <point x="131" y="468" type="line"/>
      <point x="80" y="468" type="line"/>
      <point x="80" y="0" type="line"/>
    </contour>
    <contour>
      <point x="170" y="583"/>
      <point x="181" y="603"/>
      <point x="210" y="603" type="curve" smooth="yes"/>
      <point x="245" y="603"/>
      <point x="274" y="555"/>
      <point x="322" y="555" type="curve" smooth="yes"/>
      <point x="371" y="555"/>
      <point x="396" y="587"/>
      <point x="400" y="644" type="curve"/>
      <point x="359" y="657" type="line"/>
      <point x="355" y="628"/>
      <point x="343" y="607"/>
      <point x="315" y="607" type="curve" smooth="yes"/>
      <point x="281" y="607"/>
      <point x="247" y="655"/>
      <point x="203" y="655" type="curve" smooth="yes"/>
      <point x="154" y="655"/>
      <point x="129" y="624"/>
      <point x="125" y="566" type="curve"/>
      <point x="166" y="553" type="line"/>
    </contour>
  </outline>
</glyph>
<glyph name="ugrave" format="1">
  <advance width="511"/>
  <unicode hex="00F9"/>
  <note>
	ugrave
  </note>
  <outline>
    <contour>
      <point x="271" y="-9"/>
      <point x="321" y="23"/>
      <point x="367" y="72" type="curve"/>
      <point x="375" y="72" type="line"/>
      <point x="379" y="0" type="line"/>
      <point x="430" y="0" type="line"/>
      <point x="430" y="468" type="line"/>
      <point x="370" y="468" type="line"/>
      <point x="370" y="117" type="line"/>
      <point x="333" y="75"/>
      <point x="278" y="45"/>
      <point x="208" y="45" type="curve" smooth="yes"/>
      <point x="183" y="45"/>
      <point x="160" y="48"/>
      <point x="134" y="56" type="curve"/>
      <point x="134" y="468" type="line"/>
      <point x="74" y="468" type="line"/>
      <point x="74" y="100" type="line" smooth="yes"/>
      <point x="74" y="21"/>
      <point x="116" y="-9"/>
      <point x="198" y="-9" type="curve" smooth="yes"/>
    </contour>
    <contour>
      <point x="294" y="561" type="line"/>
      <point x="211" y="703" type="line"/>
      <point x="130" y="695" type="line"/>
      <point x="249" y="553" type="line"/>
    </contour>
  </outline>
</glyph>
<glyph name="thorn" format="1">
  <advance width="487"/>
  <unicode hex="00FE"/>
  <note>
	thorn
  </note>
  <outline>
    <contour>
      <point x="144" y="-180" type="line"/>
      <point x="144" y="103" type="line"/>
      <point x="151" y="103" type="line"/>
      <point x="189" y="78"/>
      <point x="229" y="63"/>
      <point x="281" y="63" type="curve" smooth="yes"/>
      <point x="392" y="63"/>
      <point x="440" y="149"/>
      <point x="440" y="266" type="curve" smooth="yes"/>
      <point x="440" y="383"/>
      <point x="396" y="466"/>
      <point x="283" y="466" type="curve" smooth="yes"/>
      <point x="230" y="466"/>
      <point x="189" y="449"/>
      <point x="151" y="424" type="curve"/>
      <point x="144" y="424" type="line"/>
      <point x="144" y="674" type="line"/>
      <point x="81" y="674" type="line"/>
      <point x="81" y="-180" type="line"/>
    </contour>
    <contour>
      <point x="217" y="121"/>
      <point x="182" y="132"/>
      <point x="144" y="152" type="curve"/>
      <point x="144" y="375" type="line"/>
      <point x="182" y="396"/>
      <point x="221" y="408"/>
      <point x="263" y="408" type="curve" smooth="yes"/>
      <point x="353" y="408"/>
      <point x="377" y="354"/>
      <point x="377" y="266" type="curve" smooth="yes"/>
      <point x="377" y="178"/>
      <point x="351" y="121"/>
      <point x="263" y="121" type="curve" smooth="yes"/>
    </contour>
  </outline>
</glyph>
<glyph name="Abreve" format="1">
  <advance width="591"/>
  <unicode hex="0102"/>
  <note>
	Abreve
  </note>
  <outline>
    <contour>
      <point x="376" y="698"/>
      <point x="413" y="742"/>
      <point x="423" y="804" type="curve"/>
      <point x="364" y="814" type="line"/>
      <point x="359" y="774"/>
      <point x="346" y="748"/>
      <point x="296" y="748" type="curve" smooth="yes"/>
      <point x="245" y="748"/>
      <point x="232" y="774"/>
      <point x="227" y="814" type="curve"/>
      <point x="168" y="804" type="line"/>
      <point x="178" y="742"/>
      <point x="215" y="698"/>
      <point x="296" y="698" type="curve" smooth="yes"/>
    </contour>
    <component base="A"/>
  </outline>
</glyph>
<glyph name="Aogonek" format="1">
  <advance width="594"/>
  <unicode hex="0104"/>
  <note>
	Aogonek
  </note>
  <outline>
    <contour>
      <point x="529" y="-161"/>
      <point x="547" y="-157"/>
      <point x="563" y="-150" type="curve"/>
      <point x="553" y="-109" type="line"/>
      <point x="538" y="-112"/>
      <point x="525" y="-114"/>
      <point x="512" y="-114" type="curve" smooth="yes"/>
      <point x="497" y="-114"/>
      <point x="485" y="-113"/>
      <point x="473" y="-110" type="curve"/>
      <point x="469" y="-101"/>
      <point x="467" y="-90"/>
      <point x="467" y="-80" type="curve" smooth="yes"/>
      <point x="467" y="-45"/>
      <point x="481" y="-22"/>
      <point x="527" y="4" type="curve"/>
      <point x="551" y="7" type="line"/>
      <point x="497" y="205"/>
      <point x="425" y="436"/>
      <point x="358" y="614" type="curve"/>
      <point x="233" y="614" type="line"/>
      <point x="166" y="436"/>
      <point x="94" y="205"/>
      <point x="40" y="7" type="curve"/>
      <point x="107" y="0" type="line"/>
      <point x="123" y="65"/>
      <point x="144" y="141"/>
      <point x="163" y="209" type="curve"/>
      <point x="427" y="209" type="line"/>
      <point x="444" y="145"/>
      <point x="464" y="73"/>
      <point x="482" y="10" type="curve"/>
      <point x="438" y="-10"/>
      <point x="412" y="-38"/>
      <point x="412" y="-83" type="curve" smooth="yes"/>
      <point x="412" y="-132"/>
      <point x="446" y="-161"/>
      <point x="503" y="-161" type="curve" smooth="yes"/>
    </contour>
    <contour>
      <point x="211" y="369"/>
      <point x="248" y="485"/>
      <point x="273" y="553" type="curve"/>
      <point x="317" y="553" type="line"/>
      <point x="342" y="485"/>
      <point x="378" y="369"/>
      <point x="409" y="265" type="curve"/>
      <point x="180" y="265" type="line"/>
    </contour>
  </outline>
</glyph>
<glyph name="aogonek" format="1">
  <advance width="486"/>
  <unicode hex="0105"/>
  <note>
	aogonek
  </note>
  <outline>
    <contour>
      <point x="242" y="-9"/>
      <point x="294" y="20"/>
      <point x="328" y="66" type="curve"/>
      <point x="336" y="66" type="line"/>
      <point x="340" y="-1" type="line"/>
      <point x="392" y="0" type="line"/>
      <point x="392" y="331" type="line" smooth="yes"/>
      <point x="392" y="424"/>
      <point x="339" y="476"/>
      <point x="247" y="476" type="curve" smooth="yes"/>
      <point x="187" y="476"/>
      <point x="118" y="452"/>
      <point x="80" y="430" type="curve"/>
      <point x="80" y="411" type="line" smooth="yes"/>
      <point x="80" y="391"/>
      <point x="85" y="367"/>
      <point x="91" y="350" type="curve"/>
      <point x="136" y="350" type="line"/>
      <point x="146" y="422" type="line"/>
      <point x="167" y="425"/>
      <point x="197" y="427"/>
      <point x="223" y="427" type="curve" smooth="yes"/>
      <point x="301" y="427"/>
      <point x="331" y="403"/>
      <point x="331" y="322" type="curve" smooth="yes"/>
      <point x="331" y="254" type="line"/>
      <point x="309" y="256"/>
      <point x="281" y="258"/>
      <point x="254" y="258" type="curve" smooth="yes"/>
      <point x="126" y="258"/>
      <point x="45" y="211"/>
      <point x="45" y="108" type="curve" smooth="yes"/>
      <point x="45" y="38"/>
      <point x="90" y="-9"/>
      <point x="179" y="-9" type="curve" smooth="yes"/>
    </contour>
    <contour>
      <point x="379" y="-166"/>
      <point x="397" y="-162"/>
      <point x="413" y="-155" type="curve"/>
      <point x="403" y="-114" type="line"/>
      <point x="388" y="-118"/>
      <point x="375" y="-119"/>
      <point x="362" y="-119" type="curve" smooth="yes"/>
      <point x="347" y="-119"/>
      <point x="335" y="-118"/>
      <point x="323" y="-115" type="curve"/>
      <point x="319" y="-107"/>
      <point x="317" y="-96"/>
      <point x="317" y="-85" type="curve" smooth="yes"/>
      <point x="317" y="-47"/>
      <point x="335" y="-23"/>
      <point x="390" y="6" type="curve"/>
      <point x="350" y="13" type="line"/>
      <point x="298" y="-8"/>
      <point x="262" y="-37"/>
      <point x="262" y="-88" type="curve" smooth="yes"/>
      <point x="262" y="-138"/>
      <point x="296" y="-166"/>
      <point x="353" y="-166" type="curve" smooth="yes"/>
    </contour>
    <contour>
      <point x="139" y="40"/>
      <point x="108" y="57"/>
      <point x="108" y="117" type="curve" smooth="yes"/>
      <point x="108" y="150"/>
      <point x="115" y="175"/>
      <point x="131" y="205" type="curve"/>
      <point x="158" y="213"/>
      <point x="198" y="216"/>
      <point x="234" y="216" type="curve" smooth="yes"/>
      <point x="271" y="216"/>
      <point x="306" y="213"/>
      <point x="334" y="208" type="curve"/>
      <point x="334" y="119" type="line"/>
      <point x="301" y="70"/>
      <point x="249" y="40"/>
      <point x="189" y="40" type="curve" smooth="yes"/>
    </contour>
  </outline>
</glyph>
<glyph name="Cacute" format="1">
  <advance width="555"/>
  <unicode hex="0106"/>
  <note>
	Cacute
  </note>
  <outline>
    <contour>
      <point x="398" y="-9"/>
      <point x="466" y="10"/>
      <point x="509" y="44" type="curve"/>
      <point x="480" y="91" type="line"/>
      <point x="441" y="65"/>
      <point x="382" y="50"/>
      <point x="319" y="50" type="curve" smooth="yes"/>
      <point x="179" y="50"/>
      <point x="120" y="127"/>
      <point x="120" y="295" type="curve" smooth="yes"/>
      <point x="120" y="395"/>
      <point x="143" y="482"/>
      <point x="187" y="548" type="curve"/>
      <point x="231" y="560"/>
      <point x="270" y="565"/>
      <point x="311" y="565" type="curve" smooth="yes"/>
      <point x="355" y="565"/>
      <point x="394" y="561"/>
      <point x="423" y="554" type="curve"/>
      <point x="433" y="472" type="line"/>
      <point x="474" y="472" type="line"/>
      <point x="481" y="489"/>
      <point x="485" y="516"/>
      <point x="485" y="539" type="curve" smooth="yes"/>
      <point x="485" y="585" type="line"/>
      <point x="451" y="606"/>
      <point x="383" y="624"/>
      <point x="312" y="624" type="curve" smooth="yes"/>
      <point x="134" y="624"/>
      <point x="57" y="481"/>
      <point x="57" y="291" type="curve" smooth="yes"/>
      <point x="57" y="98"/>
      <point x="139" y="-9"/>
      <point x="317" y="-9" type="curve" smooth="yes"/>
    </contour>
    <contour>
      <point x="448" y="840" type="line"/>
      <point x="367" y="848" type="line"/>
      <point x="284" y="706" type="line"/>
      <point x="329" y="698" type="line"/>
    </contour>
  </outline>
</glyph>
<glyph name="Ccircumflex" format="1">
  <advance width="555"/>
  <unicode hex="0108"/>
  <note>
	Ccircumflex
  </note>
  <outline>
    <contour>
      <point x="398" y="-9"/>
      <point x="466" y="10"/>
      <point x="509" y="44" type="curve"/>
      <point x="480" y="91" type="line"/>
      <point x="441" y="65"/>
      <point x="382" y="50"/>
      <point x="319" y="50" type="curve" smooth="yes"/>
      <point x="179" y="50"/>
      <point x="120" y="127"/>
      <point x="120" y="295" type="curve" smooth="yes"/>
      <point x="120" y="395"/>
      <point x="143" y="482"/>
      <point x="187" y="548" type="curve"/>
      <point x="231" y="560"/>
      <point x="270" y="565"/>
      <point x="311" y="565" type="curve" smooth="yes"/>
      <point x="355" y="565"/>
      <point x="394" y="561"/>
      <point x="423" y="554" type="curve"/>
      <point x="433" y="472" type="line"/>
      <point x="474" y="472" type="line"/>
      <point x="481" y="489"/>
      <point x="485" y="516"/>
      <point x="485" y="539" type="curve" smooth="yes"/>
      <point x="485" y="585" type="line"/>
      <point x="451" y="606"/>
      <point x="383" y="624"/>
      <point x="312" y="624" type="curve" smooth="yes"/>
      <point x="134" y="624"/>
      <point x="57" y="481"/>
      <point x="57" y="291" type="curve" smooth="yes"/>
      <point x="57" y="98"/>
      <point x="139" y="-9"/>
      <point x="317" y="-9" type="curve" smooth="yes"/>
    </contour>
    <contour>
      <point x="310" y="786" type="line"/>
      <point x="316" y="786" type="line"/>
      <point x="403" y="697" type="line"/>
      <point x="444" y="706" type="line"/>
      <point x="343" y="838" type="line"/>
      <point x="283" y="838" type="line"/>
      <point x="182" y="706" type="line"/>
      <point x="221" y="697" type="line"/>
    </contour>
  </outline>
</glyph>
<glyph name="Dcaron" format="1">
  <advance width="573"/>
  <unicode hex="010E"/>
  <note>
	Dcaron
  </note>
  <outline>
    <contour>
      <point x="239" y="0" type="line" smooth="yes"/>
      <point x="472" y="0"/>
      <point x="523" y="136"/>
      <point x="523" y="316" type="curve" smooth="yes"/>
      <point x="523" y="511"/>
      <point x="450" y="624"/>
      <point x="249" y="624" type="curve" smooth="yes"/>
      <point x="190" y="624"/>
      <point x="133" y="617"/>
      <point x="81" y="605" type="curve"/>
      <point x="81" y="0" type="line"/>
    </contour>
    <contour>
      <point x="144" y="558" type="line"/>
      <point x="181" y="563"/>
      <point x="210" y="566"/>
      <point x="245" y="566" type="curve" smooth="yes"/>
      <point x="407" y="566"/>
      <point x="460" y="483"/>
      <point x="460" y="310" type="curve" smooth="yes"/>
      <point x="460" y="211"/>
      <point x="440" y="128"/>
      <point x="404" y="78" type="curve"/>
      <point x="356" y="64"/>
      <point x="306" y="58"/>
      <point x="238" y="58" type="curve" smooth="yes"/>
      <point x="144" y="58" type="line"/>
    </contour>
    <contour>
      <point x="312" y="706" type="line"/>
      <point x="413" y="839" type="line"/>
      <point x="372" y="847" type="line"/>
      <point x="285" y="759" type="line"/>
      <point x="279" y="759" type="line"/>
      <point x="190" y="847" type="line"/>
      <point x="151" y="839" type="line"/>
      <point x="252" y="706" type="line"/>
    </contour>
  </outline>
</glyph>
<glyph name="Ebreve" format="1">
  <advance width="528"/>
  <unicode hex="0114"/>
  <note>
	Ebreve
  </note>
  <outline>
    <contour>
      <point x="358" y="-9"/>
      <point x="414" y="-3"/>
      <point x="463" y="10" type="curve"/>
      <point x="449" y="65" type="line"/>
      <point x="401" y="54"/>
      <point x="345" y="49"/>
      <point x="289" y="49" type="curve" smooth="yes"/>
      <point x="233" y="49"/>
      <point x="191" y="52"/>
      <point x="143" y="61" type="curve"/>
      <point x="143" y="280" type="line"/>
      <point x="423" y="280" type="line"/>
      <point x="423" y="336" type="line"/>
      <point x="143" y="336" type="line"/>
      <point x="143" y="556" type="line"/>
      <point x="452" y="556" type="line"/>
      <point x="452" y="614" type="line"/>
      <point x="81" y="614" type="line"/>
      <point x="81" y="74" type="line" smooth="yes"/>
      <point x="81" y="9"/>
      <point x="172" y="-9"/>
      <point x="286" y="-9" type="curve" smooth="yes"/>
    </contour>
    <contour>
      <point x="360" y="701"/>
      <point x="397" y="745"/>
      <point x="407" y="807" type="curve"/>
      <point x="348" y="817" type="line"/>
      <point x="343" y="777"/>
      <point x="330" y="751"/>
      <point x="280" y="751" type="curve" smooth="yes"/>
      <point x="229" y="751"/>
      <point x="216" y="777"/>
      <point x="211" y="817" type="curve"/>
      <point x="152" y="807" type="line"/>
      <point x="162" y="745"/>
      <point x="199" y="701"/>
      <point x="280" y="701" type="curve" smooth="yes"/>
    </contour>
  </outline>
</glyph>
<glyph name="ebreve" format="1">
  <advance width="475"/>
  <unicode hex="0115"/>
  <note>
	ebreve
  </note>
  <outline>
    <contour>
      <point x="334" y="-9"/>
      <point x="379" y="13"/>
      <point x="419" y="36" type="curve"/>
      <point x="399" y="83" type="line"/>
      <point x="359" y="59"/>
      <point x="322" y="44"/>
      <point x="260" y="44" type="curve" smooth="yes"/>
      <point x="161" y="44"/>
      <point x="116" y="101"/>
      <point x="114" y="210" type="curve"/>
      <point x="374" y="208" type="line"/>
      <point x="425" y="259" type="line"/>
      <point x="437" y="392"/>
      <point x="377" y="476"/>
      <point x="257" y="476" type="curve" smooth="yes"/>
      <point x="123" y="476"/>
      <point x="55" y="381"/>
      <point x="55" y="231" type="curve" smooth="yes"/>
      <point x="55" y="82"/>
      <point x="113" y="-9"/>
      <point x="257" y="-9" type="curve" smooth="yes"/>
    </contour>
    <contour>
      <point x="118" y="363"/>
      <point x="149" y="423"/>
      <point x="253" y="423" type="curve" smooth="yes"/>
      <point x="333" y="423"/>
      <point x="371" y="377"/>
      <point x="371" y="307" type="curve" smooth="yes"/>
      <point x="371" y="293"/>
      <point x="369" y="275"/>
      <point x="365" y="259" type="curve"/>
      <point x="113" y="255" type="line"/>
    </contour>
    <contour>
      <point x="330" y="555"/>
      <point x="367" y="599"/>
      <point x="377" y="661" type="curve"/>
      <point x="318" y="670" type="line"/>
      <point x="313" y="630"/>
      <point x="300" y="604"/>
      <point x="250" y="604" type="curve" smooth="yes"/>
      <point x="199" y="604"/>
      <point x="186" y="630"/>
      <point x="181" y="670" type="curve"/>
      <point x="122" y="661" type="line"/>
      <point x="132" y="599"/>
      <point x="169" y="555"/>
      <point x="250" y="555" type="curve" smooth="yes"/>
    </contour>
  </outline>
</glyph>
<glyph name="Eogonek" format="1">
  <advance width="528"/>
  <unicode hex="0118"/>
  <note>
	Eogonek
  </note>
  <outline>
    <contour>
      <point x="449" y="-161"/>
      <point x="467" y="-157"/>
      <point x="483" y="-150" type="curve"/>
      <point x="472" y="-108" type="line"/>
      <point x="458" y="-112"/>
      <point x="445" y="-113"/>
      <point x="431" y="-113" type="curve" smooth="yes"/>
      <point x="417" y="-113"/>
      <point x="405" y="-112"/>
      <point x="393" y="-109" type="curve"/>
      <point x="389" y="-101"/>
      <point x="387" y="-90"/>
      <point x="387" y="-80" type="curve" smooth="yes"/>
      <point x="387" y="-49"/>
      <point x="396" y="-26"/>
      <point x="434" y="-1" type="curve"/>
      <point x="445" y="2"/>
      <point x="456" y="6"/>
      <point x="464" y="9" type="curve"/>
      <point x="449" y="65" type="line"/>
      <point x="401" y="54"/>
      <point x="345" y="49"/>
      <point x="289" y="49" type="curve" smooth="yes"/>
      <point x="233" y="49"/>
      <point x="191" y="52"/>
      <point x="143" y="61" type="curve"/>
      <point x="143" y="280" type="line"/>
      <point x="423" y="280" type="line"/>
      <point x="423" y="336" type="line"/>
      <point x="143" y="336" type="line"/>
      <point x="143" y="556" type="line"/>
      <point x="452" y="556" type="line"/>
      <point x="452" y="614" type="line"/>
      <point x="81" y="614" type="line"/>
      <point x="81" y="74" type="line" smooth="yes"/>
      <point x="81" y="9"/>
      <point x="172" y="-9"/>
      <point x="286" y="-9" type="curve" smooth="yes"/>
      <point x="317" y="-9"/>
      <point x="346" y="-7"/>
      <point x="372" y="-5" type="curve"/>
      <point x="346" y="-24"/>
      <point x="332" y="-49"/>
      <point x="332" y="-83" type="curve" smooth="yes"/>
      <point x="332" y="-132"/>
      <point x="366" y="-161"/>
      <point x="423" y="-161" type="curve" smooth="yes"/>
    </contour>
  </outline>
</glyph>
<glyph name="ecaron" format="1">
  <advance width="475"/>
  <unicode hex="011B"/>
  <note>
	ecaron
  </note>
  <outline>
    <contour>
      <point x="334" y="-9"/>
      <point x="379" y="13"/>
      <point x="419" y="36" type="curve"/>
      <point x="399" y="83" type="line"/>
      <point x="359" y="59"/>
      <point x="322" y="44"/>
      <point x="260" y="44" type="curve" smooth="yes"/>
      <point x="161" y="44"/>
      <point x="116" y="101"/>
      <point x="114" y="210" type="curve"/>
      <point x="374" y="208" type="line"/>
      <point x="425" y="259" type="line"/>
      <point x="437" y="392"/>
      <point x="377" y="476"/>
      <point x="257" y="476" type="curve" smooth="yes"/>
      <point x="123" y="476"/>
      <point x="55" y="381"/>
      <point x="55" y="231" type="curve" smooth="yes"/>
      <point x="55" y="82"/>
      <point x="113" y="-9"/>
      <point x="257" y="-9" type="curve" smooth="yes"/>
    </contour>
    <contour>
      <point x="118" y="363"/>
      <point x="149" y="423"/>
      <point x="253" y="423" type="curve" smooth="yes"/>
      <point x="333" y="423"/>
      <point x="371" y="377"/>
      <point x="371" y="307" type="curve" smooth="yes"/>
      <point x="371" y="293"/>
      <point x="369" y="275"/>
      <point x="365" y="259" type="curve"/>
      <point x="113" y="255" type="line"/>
    </contour>
    <contour>
      <point x="280" y="560" type="line"/>
      <point x="381" y="692" type="line"/>
      <point x="340" y="701" type="line"/>
      <point x="253" y="612" type="line"/>
      <point x="247" y="612" type="line"/>
      <point x="158" y="701" type="line"/>
      <point x="119" y="692" type="line"/>
      <point x="220" y="560" type="line"/>
    </contour>
  </outline>
</glyph>
<glyph name="Gdotaccent" format="1">
  <advance width="588"/>
  <unicode hex="0120"/>
  <note>
	Gdotaccent
  </note>
  <outline>
    <contour>
      <point x="439" y="-9"/>
      <point x="522" y="41"/>
      <point x="522" y="115" type="curve" smooth="yes"/>
      <point x="522" y="293" type="line"/>
      <point x="485" y="322" type="line"/>
      <point x="317" y="322" type="line"/>
      <point x="317" y="266" type="line"/>
      <point x="459" y="266" type="line"/>
      <point x="459" y="70" type="line"/>
      <point x="423" y="57"/>
      <point x="386" y="50"/>
      <point x="328" y="50" type="curve" smooth="yes"/>
      <point x="191" y="50"/>
      <point x="120" y="125"/>
      <point x="120" y="295" type="curve" smooth="yes"/>
      <point x="120" y="395"/>
      <point x="146" y="482"/>
      <point x="191" y="549" type="curve"/>
      <point x="235" y="561"/>
      <point x="285" y="565"/>
      <point x="326" y="565" type="curve" smooth="yes"/>
      <point x="372" y="565"/>
      <point x="421" y="561"/>
      <point x="448" y="554" type="curve"/>
      <point x="458" y="472" type="line"/>
      <point x="499" y="472" type="line"/>
      <point x="506" y="489"/>
      <point x="510" y="516"/>
      <point x="510" y="539" type="curve" smooth="yes"/>
      <point x="510" y="585" type="line"/>
      <point x="476" y="606"/>
      <point x="405" y="624"/>
      <point x="327" y="624" type="curve" smooth="yes"/>
      <point x="138" y="624"/>
      <point x="57" y="486"/>
      <point x="57" y="291" type="curve" smooth="yes"/>
      <point x="57" y="96"/>
      <point x="151" y="-9"/>
      <point x="319" y="-9" type="curve" smooth="yes"/>
    </contour>
    <contour>
      <point x="350" y="701"/>
      <point x="368" y="719"/>
      <point x="368" y="748" type="curve" smooth="yes"/>
      <point x="368" y="780"/>
      <point x="350" y="797"/>
      <point x="318" y="797" type="curve" smooth="yes"/>
      <point x="287" y="797"/>
      <point x="268" y="780"/>
      <point x="268" y="748" type="curve" smooth="yes"/>
      <point x="268" y="719"/>
      <point x="287" y="701"/>
      <point x="318" y="701" type="curve" smooth="yes"/>
    </contour>
  </outline>
</glyph>
<glyph name="Gcommaaccent" format="1">
  <advance width="588"/>
  <unicode hex="0122"/>
  <note>
	Gcommaaccent
  </note>
  <outline>
    <contour>
      <point x="439" y="-9"/>
      <point x="522" y="41"/>
      <point x="522" y="115" type="curve" smooth="yes"/>
      <point x="522" y="293" type="line"/>
      <point x="485" y="322" type="line"/>
      <point x="317" y="322" type="line"/>
      <point x="317" y="266" type="line"/>
      <point x="459" y="266" type="line"/>
      <point x="459" y="70" type="line"/>
      <point x="423" y="57"/>
      <point x="386" y="50"/>
      <point x="328" y="50" type="curve" smooth="yes"/>
      <point x="191" y="50"/>
      <point x="120" y="125"/>
      <point x="120" y="295" type="curve" smooth="yes"/>
      <point x="120" y="395"/>
      <point x="146" y="482"/>
      <point x="191" y="549" type="curve"/>
      <point x="235" y="561"/>
      <point x="285" y="565"/>
      <point x="326" y="565" type="curve" smooth="yes"/>
      <point x="372" y="565"/>
      <point x="421" y="561"/>
      <point x="448" y="554" type="curve"/>
      <point x="458" y="472" type="line"/>
      <point x="499" y="472" type="line"/>
      <point x="506" y="489"/>
      <point x="510" y="516"/>
      <point x="510" y="539" type="curve" smooth="yes"/>
      <point x="510" y="585" type="line"/>
      <point x="476" y="606"/>
      <point x="405" y="624"/>
      <point x="327" y="624" type="curve" smooth="yes"/>
      <point x="138" y="624"/>
      <point x="57" y="486"/>
      <point x="57" y="291" type="curve" smooth="yes"/>
      <point x="57" y="96"/>
      <point x="151" y="-9"/>
      <point x="319" y="-9" type="curve" smooth="yes"/>
    </contour>
    <contour>
      <point x="367" y="-217"/>
      <point x="385" y="-173"/>
      <point x="385" y="-130" type="curve" smooth="yes"/>
      <point x="385" y="-86"/>
      <point x="365" y="-64"/>
      <point x="324" y="-64" type="curve" smooth="yes"/>
      <point x="309" y="-64"/>
      <point x="294" y="-66"/>
      <point x="281" y="-71" type="curve"/>
      <point x="281" y="-114" type="line"/>
      <point x="335" y="-114" type="line"/>
      <point x="335" y="-165"/>
      <point x="322" y="-204"/>
      <point x="300" y="-245" type="curve"/>
      <point x="338" y="-253" type="line"/>
    </contour>
  </outline>
</glyph>
<glyph name="hcircumflex" format="1">
  <advance width="517"/>
  <unicode hex="0125"/>
  <note>
	hcircumflex
  </note>
  <outline>
    <contour>
      <point x="140" y="0" type="line"/>
      <point x="140" y="352" type="line"/>
      <point x="179" y="394"/>
      <point x="236" y="421"/>
      <point x="305" y="421" type="curve" smooth="yes"/>
      <point x="331" y="421"/>
      <point x="355" y="419"/>
      <point x="380" y="410" type="curve"/>
      <point x="380" y="0" type="line"/>
      <point x="440" y="0" type="line"/>
      <point x="440" y="366" type="line" smooth="yes"/>
      <point x="440" y="446"/>
      <point x="398" y="476"/>
      <point x="316" y="476" type="curve" smooth="yes"/>
      <point x="245" y="476"/>
      <point x="190" y="445"/>
      <point x="143" y="398" type="curve"/>
      <point x="137" y="398" type="line"/>
      <point x="140" y="478" type="line"/>
      <point x="140" y="669" type="line"/>
      <point x="80" y="669" type="line"/>
      <point x="80" y="0" type="line"/>
    </contour>
    <contour>
      <point x="276" y="793" type="line"/>
      <point x="282" y="793" type="line"/>
      <point x="369" y="704" type="line"/>
      <point x="410" y="713" type="line"/>
      <point x="309" y="845" type="line"/>
      <point x="249" y="845" type="line"/>
      <point x="148" y="713" type="line"/>
      <point x="187" y="704" type="line"/>
    </contour>
  </outline>
</glyph>
<glyph name="Hbar" format="1">
  <advance width="671"/>
  <unicode hex="0126"/>
  <note>
	Hbar
  </note>
  <outline>
    <contour>
      <point x="184" y="0" type="line"/>
      <point x="184" y="268" type="line"/>
      <point x="486" y="268" type="line"/>
      <point x="486" y="0" type="line"/>
      <point x="549" y="0" type="line"/>
      <point x="549" y="443" type="line"/>
      <point x="614" y="443" type="line"/>
      <point x="614" y="495" type="line"/>
      <point x="549" y="495" type="line"/>
      <point x="549" y="614" type="line"/>
      <point x="486" y="614" type="line"/>
      <point x="486" y="495" type="line"/>
      <point x="184" y="495" type="line"/>
      <point x="184" y="614" type="line"/>
      <point x="121" y="614" type="line"/>
      <point x="121" y="495" type="line"/>
      <point x="56" y="495" type="line"/>
      <point x="56" y="443" type="line"/>
      <point x="121" y="443" type="line"/>
      <point x="121" y="0" type="line"/>
    </contour>
    <contour>
      <point x="184" y="443" type="line"/>
      <point x="486" y="443" type="line"/>
      <point x="486" y="327" type="line"/>
      <point x="184" y="327" type="line"/>
    </contour>
  </outline>
</glyph>
<glyph name="hbar" format="1">
  <advance width="517"/>
  <unicode hex="0127"/>
  <note>
	hbar
  </note>
  <outline>
    <contour>
      <point x="141" y="0" type="line"/>
      <point x="141" y="352" type="line"/>
      <point x="180" y="394"/>
      <point x="236" y="421"/>
      <point x="306" y="421" type="curve" smooth="yes"/>
      <point x="332" y="421"/>
      <point x="355" y="419"/>
      <point x="380" y="410" type="curve"/>
      <point x="380" y="0" type="line"/>
      <point x="441" y="0" type="line"/>
      <point x="441" y="366" type="line" smooth="yes"/>
      <point x="441" y="446"/>
      <point x="399" y="476"/>
      <point x="316" y="476" type="curve" smooth="yes"/>
      <point x="246" y="476"/>
      <point x="190" y="445"/>
      <point x="143" y="398" type="curve"/>
      <point x="137" y="398" type="line"/>
      <point x="141" y="478" type="line"/>
      <point x="141" y="544" type="line"/>
      <point x="274" y="544" type="line"/>
      <point x="274" y="591" type="line"/>
      <point x="141" y="591" type="line"/>
      <point x="141" y="669" type="line"/>
      <point x="80" y="669" type="line"/>
      <point x="80" y="591" type="line"/>
      <point x="16" y="591" type="line"/>
      <point x="16" y="544" type="line"/>
      <point x="80" y="544" type="line"/>
      <point x="80" y="0" type="line"/>
    </contour>
  </outline>
</glyph>
<glyph name="Imacron" format="1">
  <advance width="232"/>
  <unicode hex="012A"/>
  <note>
	Imacron
  </note>
  <outline>
    <contour>
      <point x="147" y="0" type="line"/>
      <point x="147" y="614" type="line"/>
      <point x="84" y="614" type="line"/>
      <point x="84" y="0" type="line"/>
    </contour>
    <contour>
      <point x="259" y="706" type="line"/>
      <point x="259" y="759" type="line"/>
      <point x="-26" y="759" type="line"/>
      <point x="-26" y="706" type="line"/>
    </contour>
  </outline>
</glyph>
<glyph name="imacron" format="1">
  <advance width="239"/>
  <unicode hex="012B"/>
  <note>
	imacron
  </note>
  <outline>
    <contour>
      <point x="149" y="0" type="line"/>
      <point x="149" y="467" type="line"/>
      <point x="90" y="467" type="line"/>
      <point x="90" y="0" type="line"/>
    </contour>
    <contour>
      <point x="262" y="560" type="line"/>
      <point x="262" y="613" type="line"/>
      <point x="-23" y="613" type="line"/>
      <point x="-23" y="560" type="line"/>
    </contour>
  </outline>
</glyph>
<glyph name="Ibreve" format="1">
  <advance width="232"/>
  <unicode hex="012C"/>
  <note>
	Ibreve
  </note>
  <outline>
    <contour>
      <point x="147" y="0" type="line"/>
      <point x="147" y="614" type="line"/>
      <point x="84" y="614" type="line"/>
      <point x="84" y="0" type="line"/>
    </contour>
    <contour>
      <point x="197" y="701"/>
      <point x="234" y="745"/>
      <point x="244" y="807" type="curve"/>
      <point x="185" y="817" type="line"/>
      <point x="180" y="777"/>
      <point x="167" y="751"/>
      <point x="117" y="751" type="curve" smooth="yes"/>
      <point x="66" y="751"/>
      <point x="53" y="777"/>
      <point x="48" y="817" type="curve"/>
      <point x="-11" y="807" type="line"/>
      <point x="-1" y="745"/>
      <point x="36" y="701"/>
      <point x="117" y="701" type="curve" smooth="yes"/>
    </contour>
  </outline>
</glyph>
<glyph name="ibreve" format="1">
  <advance width="239"/>
  <unicode hex="012D"/>
  <note>
	ibreve
  </note>
  <outline>
    <contour>
      <point x="200" y="555"/>
      <point x="237" y="599"/>
      <point x="247" y="661" type="curve"/>
      <point x="188" y="670" type="line"/>
      <point x="183" y="630"/>
      <point x="170" y="604"/>
      <point x="119" y="604" type="curve" smooth="yes"/>
      <point x="69" y="604"/>
      <point x="56" y="630"/>
      <point x="51" y="670" type="curve"/>
      <point x="-8" y="661" type="line"/>
      <point x="2" y="599"/>
      <point x="39" y="555"/>
      <point x="119" y="555" type="curve" smooth="yes"/>
    </contour>
    <contour>
      <point x="149" y="0" type="line"/>
      <point x="149" y="467" type="line"/>
      <point x="90" y="467" type="line"/>
      <point x="90" y="0" type="line"/>
    </contour>
  </outline>
</glyph>
<glyph name="Iogonek" format="1">
  <advance width="232"/>
  <unicode hex="012E"/>
  <note>
	Iogonek
  </note>
  <outline>
    <contour>
      <point x="147" y="0" type="line"/>
      <point x="147" y="614" type="line"/>
      <point x="84" y="614" type="line"/>
      <point x="84" y="0" type="line"/>
    </contour>
    <contour>
      <point x="147" y="-166"/>
      <point x="165" y="-162"/>
      <point x="181" y="-155" type="curve"/>
      <point x="171" y="-114" type="line"/>
      <point x="156" y="-118"/>
      <point x="143" y="-119"/>
      <point x="130" y="-119" type="curve" smooth="yes"/>
      <point x="115" y="-119"/>
      <point x="103" y="-118"/>
      <point x="91" y="-115" type="curve"/>
      <point x="87" y="-107"/>
      <point x="85" y="-96"/>
      <point x="85" y="-85" type="curve" smooth="yes"/>
      <point x="85" y="-46"/>
      <point x="103" y="-23"/>
      <point x="147" y="0" type="curve"/>
      <point x="101" y="12" type="line"/>
      <point x="63" y="-13"/>
      <point x="30" y="-39"/>
      <point x="30" y="-88" type="curve" smooth="yes"/>
      <point x="30" y="-138"/>
      <point x="64" y="-166"/>
      <point x="121" y="-166" type="curve" smooth="yes"/>
    </contour>
  </outline>
</glyph>
<glyph name="iogonek" format="1">
  <advance width="222"/>
  <unicode hex="012F"/>
  <note>
	iogonek
  </note>
  <outline>
    <contour>
      <point x="140" y="-3" type="line"/>
      <point x="140" y="466" type="line"/>
      <point x="81" y="466" type="line"/>
      <point x="81" y="-3" type="line"/>
    </contour>
    <contour>
      <point x="138" y="-166"/>
      <point x="156" y="-162"/>
      <point x="172" y="-155" type="curve"/>
      <point x="162" y="-114" type="line"/>
      <point x="147" y="-118"/>
      <point x="134" y="-119"/>
      <point x="121" y="-119" type="curve" smooth="yes"/>
      <point x="106" y="-119"/>
      <point x="94" y="-118"/>
      <point x="82" y="-115" type="curve"/>
      <point x="78" y="-107"/>
      <point x="76" y="-96"/>
      <point x="76" y="-85" type="curve" smooth="yes"/>
      <point x="76" y="-46"/>
      <point x="90" y="-25"/>
      <point x="140" y="-3" type="curve"/>
      <point x="104" y="7" type="line"/>
      <point x="58" y="-9"/>
      <point x="21" y="-39"/>
      <point x="21" y="-88" type="curve" smooth="yes"/>
      <point x="21" y="-138"/>
      <point x="55" y="-166"/>
      <point x="112" y="-166" type="curve" smooth="yes"/>
    </contour>
    <contour>
      <point x="143" y="554" type="line"/>
      <point x="143" y="647" type="line"/>
      <point x="80" y="647" type="line"/>
      <point x="80" y="554" type="line"/>
    </contour>
  </outline>
</glyph>
<glyph name="Idotaccent" format="1">
  <advance width="232"/>
  <unicode hex="0130"/>
  <note>
	Idotaccent
  </note>
  <outline>
    <contour>
      <point x="147" y="0" type="line"/>
      <point x="147" y="614" type="line"/>
      <point x="84" y="614" type="line"/>
      <point x="84" y="0" type="line"/>
    </contour>
    <contour>
      <point x="148" y="689"/>
      <point x="166" y="706"/>
      <point x="166" y="736" type="curve" smooth="yes"/>
      <point x="166" y="768"/>
      <point x="148" y="785"/>
      <point x="116" y="785" type="curve" smooth="yes"/>
      <point x="85" y="785"/>
      <point x="66" y="768"/>
      <point x="66" y="736" type="curve" smooth="yes"/>
      <point x="66" y="706"/>
      <point x="85" y="689"/>
      <point x="116" y="689" type="curve" smooth="yes"/>
    </contour>
  </outline>
</glyph>
<glyph name="IJ" format="1">
  <advance width="658"/>
  <unicode hex="0132"/>
  <note>
	IJ
  </note>
  <outline>
    <contour>
      <point x="514" y="-9"/>
      <point x="579" y="35"/>
      <point x="579" y="125" type="curve" smooth="yes"/>
      <point x="579" y="616" type="line"/>
      <point x="516" y="616" type="line"/>
      <point x="516" y="128" type="line" smooth="yes"/>
      <point x="516" y="103"/>
      <point x="514" y="86"/>
      <point x="508" y="69" type="curve"/>
      <point x="487" y="57"/>
      <point x="455" y="48"/>
      <point x="411" y="48" type="curve" smooth="yes"/>
      <point x="366" y="48"/>
      <point x="322" y="58"/>
      <point x="288" y="71" type="curve"/>
      <point x="273" y="16" type="line"/>
      <point x="310" y="1"/>
      <point x="362" y="-9"/>
      <point x="409" y="-9" type="curve" smooth="yes"/>
    </contour>
    <contour>
      <point x="147" y="0" type="line"/>
      <point x="147" y="614" type="line"/>
      <point x="84" y="614" type="line"/>
      <point x="84" y="0" type="line"/>
    </contour>
  </outline>
</glyph>
<glyph name="ij" format="1">
  <advance width="471"/>
  <unicode hex="0133"/>
  <note>
	ij
  </note>
  <outline>
    <contour>
      <point x="345" y="-191"/>
      <point x="392" y="-146"/>
      <point x="392" y="-65" type="curve" smooth="yes"/>
      <point x="392" y="466" type="line"/>
      <point x="332" y="466" type="line"/>
      <point x="332" y="-61" type="line" smooth="yes"/>
      <point x="332" y="-88"/>
      <point x="331" y="-108"/>
      <point x="324" y="-128" type="curve"/>
      <point x="307" y="-134"/>
      <point x="291" y="-137"/>
      <point x="268" y="-137" type="curve" smooth="yes"/>
      <point x="240" y="-137"/>
      <point x="222" y="-134"/>
      <point x="193" y="-126" type="curve"/>
      <point x="179" y="-178" type="line"/>
      <point x="207" y="-187"/>
      <point x="239" y="-191"/>
      <point x="267" y="-191" type="curve" smooth="yes"/>
    </contour>
    <contour>
      <point x="140" y="0" type="line"/>
      <point x="140" y="466" type="line"/>
      <point x="81" y="466" type="line"/>
      <point x="81" y="0" type="line"/>
    </contour>
    <contour>
      <point x="143" y="554" type="line"/>
      <point x="143" y="647" type="line"/>
      <point x="80" y="647" type="line"/>
      <point x="80" y="554" type="line"/>
    </contour>
    <contour>
      <point x="394" y="554" type="line"/>
      <point x="394" y="647" type="line"/>
      <point x="331" y="647" type="line"/>
      <point x="331" y="554" type="line"/>
    </contour>
  </outline>
</glyph>
<glyph name="Jcircumflex" format="1">
  <advance width="416"/>
  <unicode hex="0134"/>
  <note>
	Jcircumflex
  </note>
  <outline>
    <contour>
      <point x="272" y="-9"/>
      <point x="337" y="35"/>
      <point x="337" y="125" type="curve" smooth="yes"/>
      <point x="337" y="616" type="line"/>
      <point x="274" y="616" type="line"/>
      <point x="274" y="128" type="line" smooth="yes"/>
      <point x="274" y="103"/>
      <point x="272" y="86"/>
      <point x="266" y="69" type="curve"/>
      <point x="245" y="57"/>
      <point x="213" y="48"/>
      <point x="169" y="48" type="curve" smooth="yes"/>
      <point x="124" y="48"/>
      <point x="80" y="58"/>
      <point x="46" y="71" type="curve"/>
      <point x="31" y="16" type="line"/>
      <point x="68" y="1"/>
      <point x="120" y="-9"/>
      <point x="167" y="-9" type="curve" smooth="yes"/>
    </contour>
    <contour>
      <point x="293" y="786" type="line"/>
      <point x="299" y="786" type="line"/>
      <point x="386" y="697" type="line"/>
      <point x="427" y="706" type="line"/>
      <point x="326" y="838" type="line"/>
      <point x="266" y="838" type="line"/>
      <point x="165" y="706" type="line"/>
      <point x="204" y="697" type="line"/>
    </contour>
  </outline>
</glyph>
<glyph name="jcircumflex" format="1">
  <advance width="329"/>
  <unicode hex="0135"/>
  <note>
	jcircumflex
  </note>
  <outline>
    <contour>
      <point x="197" y="-191"/>
      <point x="244" y="-146"/>
      <point x="244" y="-65" type="curve" smooth="yes"/>
      <point x="244" y="466" type="line"/>
      <point x="184" y="466" type="line"/>
      <point x="184" y="-61" type="line" smooth="yes"/>
      <point x="184" y="-88"/>
      <point x="183" y="-108"/>
      <point x="176" y="-128" type="curve"/>
      <point x="159" y="-134"/>
      <point x="143" y="-137"/>
      <point x="120" y="-137" type="curve" smooth="yes"/>
      <point x="92" y="-137"/>
      <point x="74" y="-134"/>
      <point x="45" y="-126" type="curve"/>
      <point x="31" y="-178" type="line"/>
      <point x="59" y="-187"/>
      <point x="91" y="-191"/>
      <point x="119" y="-191" type="curve" smooth="yes"/>
    </contour>
    <contour>
      <point x="206" y="640" type="line"/>
      <point x="212" y="640" type="line"/>
      <point x="299" y="551" type="line"/>
      <point x="340" y="560" type="line"/>
      <point x="239" y="692" type="line"/>
      <point x="179" y="692" type="line"/>
      <point x="78" y="560" type="line"/>
      <point x="117" y="551" type="line"/>
    </contour>
  </outline>
</glyph>
<glyph name="Kcommaaccent" format="1">
  <advance width="589"/>
  <unicode hex="0136"/>
  <note>
	Kcommaaccent
  </note>
  <outline>
    <contour>
      <point x="527" y="-7"/>
      <point x="540" y="-4"/>
      <point x="557" y="1" type="curve"/>
      <point x="557" y="37" type="line"/>
      <point x="507" y="45" type="line"/>
      <point x="420" y="236" type="line" smooth="yes"/>
      <point x="400" y="280"/>
      <point x="382" y="301"/>
      <point x="334" y="317" type="curve"/>
      <point x="334" y="323" type="line"/>
      <point x="383" y="344"/>
      <point x="398" y="369"/>
      <point x="417" y="409" type="curve" smooth="yes"/>
      <point x="448" y="471"/>
      <point x="475" y="530"/>
      <point x="504" y="593" type="curve"/>
      <point x="444" y="617" type="line"/>
      <point x="416" y="552"/>
      <point x="388" y="490"/>
      <point x="358" y="427" type="curve" smooth="yes"/>
      <point x="338" y="384"/>
      <point x="311" y="348"/>
      <point x="239" y="348" type="curve" smooth="yes"/>
      <point x="145" y="348" type="line"/>
      <point x="145" y="614" type="line"/>
      <point x="82" y="614" type="line"/>
      <point x="82" y="0" type="line"/>
      <point x="145" y="0" type="line"/>
      <point x="145" y="291" type="line"/>
      <point x="244" y="291" type="line" smooth="yes"/>
      <point x="315" y="291"/>
      <point x="341" y="260"/>
      <point x="364" y="207" type="curve" smooth="yes"/>
      <point x="442" y="32" type="line" smooth="yes"/>
      <point x="454" y="5"/>
      <point x="473" y="-7"/>
      <point x="504" y="-7" type="curve" smooth="yes"/>
    </contour>
    <contour>
      <point x="330" y="-211"/>
      <point x="348" y="-167"/>
      <point x="348" y="-124" type="curve" smooth="yes"/>
      <point x="348" y="-80"/>
      <point x="328" y="-58"/>
      <point x="287" y="-58" type="curve" smooth="yes"/>
      <point x="272" y="-58"/>
      <point x="257" y="-60"/>
      <point x="244" y="-65" type="curve"/>
      <point x="244" y="-108" type="line"/>
      <point x="298" y="-108" type="line"/>
      <point x="298" y="-159"/>
      <point x="285" y="-198"/>
      <point x="263" y="-238" type="curve"/>
      <point x="301" y="-247" type="line"/>
    </contour>
  </outline>
</glyph>
<glyph name="Lacute" format="1">
  <advance width="456"/>
  <unicode hex="0139"/>
  <note>
	Lacute
  </note>
  <outline>
    <contour>
      <point x="427" y="0" type="line"/>
      <point x="427" y="58" type="line"/>
      <point x="145" y="58" type="line"/>
      <point x="145" y="614" type="line"/>
      <point x="82" y="614" type="line"/>
      <point x="82" y="0" type="line"/>
    </contour>
    <contour>
      <point x="247" y="839" type="line"/>
      <point x="166" y="847" type="line"/>
      <point x="83" y="705" type="line"/>
      <point x="128" y="697" type="line"/>
    </contour>
  </outline>
</glyph>
<glyph name="lacute" format="1">
  <advance width="273"/>
  <unicode hex="013A"/>
  <note>
	lacute
  </note>
  <outline>
    <contour>
      <point x="188" y="-3"/>
      <point x="223" y="16"/>
      <point x="244" y="41" type="curve"/>
      <point x="218" y="74" type="line"/>
      <point x="156" y="44" type="line"/>
      <point x="142" y="44" type="line"/>
      <point x="135" y="57"/>
      <point x="134" y="65"/>
      <point x="134" y="86" type="curve" smooth="yes"/>
      <point x="134" y="669" type="line"/>
      <point x="75" y="669" type="line"/>
      <point x="75" y="76" type="line" smooth="yes"/>
      <point x="75" y="45"/>
      <point x="122" y="4"/>
      <point x="150" y="-7" type="curve"/>
    </contour>
    <contour>
      <point x="238" y="840" type="line"/>
      <point x="157" y="848" type="line"/>
      <point x="74" y="706" type="line"/>
      <point x="119" y="698" type="line"/>
    </contour>
  </outline>
</glyph>
<glyph name="Lcommaaccent" format="1">
  <advance width="456"/>
  <unicode hex="013B"/>
  <note>
	Lcommaaccent
  </note>
  <outline>
    <contour>
      <point x="427" y="0" type="line"/>
      <point x="427" y="58" type="line"/>
      <point x="145" y="58" type="line"/>
      <point x="145" y="614" type="line"/>
      <point x="82" y="614" type="line"/>
      <point x="82" y="0" type="line"/>
    </contour>
    <contour>
      <point x="299" y="-211"/>
      <point x="317" y="-167"/>
      <point x="317" y="-124" type="curve" smooth="yes"/>
      <point x="317" y="-80"/>
      <point x="297" y="-58"/>
      <point x="256" y="-58" type="curve" smooth="yes"/>
      <point x="241" y="-58"/>
      <point x="226" y="-60"/>
      <point x="213" y="-65" type="curve"/>
      <point x="213" y="-108" type="line"/>
      <point x="267" y="-108" type="line"/>
      <point x="267" y="-159"/>
      <point x="254" y="-198"/>
      <point x="232" y="-238" type="curve"/>
      <point x="270" y="-247" type="line"/>
    </contour>
  </outline>
</glyph>
<glyph name="lcommaaccent" format="1">
  <advance width="268"/>
  <unicode hex="013C"/>
  <note>
	lcommaaccent
  </note>
  <outline>
    <contour>
      <point x="187" y="-3"/>
      <point x="222" y="16"/>
      <point x="243" y="41" type="curve"/>
      <point x="217" y="74" type="line"/>
      <point x="155" y="44" type="line"/>
      <point x="141" y="44" type="line"/>
      <point x="134" y="57"/>
      <point x="133" y="65"/>
      <point x="133" y="86" type="curve" smooth="yes"/>
      <point x="133" y="669" type="line"/>
      <point x="74" y="669" type="line"/>
      <point x="74" y="76" type="line" smooth="yes"/>
      <point x="74" y="45"/>
      <point x="121" y="4"/>
      <point x="149" y="-7" type="curve"/>
    </contour>
    <contour>
      <point x="186" y="-211"/>
      <point x="204" y="-167"/>
      <point x="204" y="-124" type="curve" smooth="yes"/>
      <point x="204" y="-80"/>
      <point x="184" y="-58"/>
      <point x="143" y="-58" type="curve" smooth="yes"/>
      <point x="128" y="-58"/>
      <point x="113" y="-60"/>
      <point x="100" y="-65" type="curve"/>
      <point x="100" y="-108" type="line"/>
      <point x="154" y="-108" type="line"/>
      <point x="154" y="-159"/>
      <point x="141" y="-198"/>
      <point x="119" y="-238" type="curve"/>
      <point x="157" y="-247" type="line"/>
    </contour>
  </outline>
</glyph>
<glyph name="Lcaron" format="1">
  <advance width="456"/>
  <unicode hex="013D"/>
  <note>
	Lcaron
  </note>
  <outline>
    <contour>
      <point x="427" y="0" type="line"/>
      <point x="427" y="58" type="line"/>
      <point x="145" y="58" type="line"/>
      <point x="145" y="614" type="line"/>
      <point x="82" y="614" type="line"/>
      <point x="82" y="0" type="line"/>
    </contour>
    <contour>
      <point x="328" y="463"/>
      <point x="346" y="507"/>
      <point x="346" y="550" type="curve" smooth="yes"/>
      <point x="346" y="594"/>
      <point x="326" y="616"/>
      <point x="285" y="616" type="curve" smooth="yes"/>
      <point x="270" y="616"/>
      <point x="255" y="614"/>
      <point x="242" y="609" type="curve"/>
      <point x="242" y="566" type="line"/>
      <point x="296" y="566" type="line"/>
      <point x="296" y="515"/>
      <point x="283" y="476"/>
      <point x="261" y="436" type="curve"/>
      <point x="299" y="427" type="line"/>
    </contour>
  </outline>
</glyph>
<glyph name="ldot" format="1">
  <advance width="326"/>
  <unicode hex="0140"/>
  <note>
	ldot
  </note>
  <outline>
    <contour>
      <point x="187" y="-3"/>
      <point x="222" y="16"/>
      <point x="243" y="41" type="curve"/>
      <point x="217" y="74" type="line"/>
      <point x="155" y="44" type="line"/>
      <point x="141" y="44" type="line"/>
      <point x="134" y="57"/>
      <point x="133" y="65"/>
      <point x="133" y="86" type="curve" smooth="yes"/>
      <point x="133" y="669" type="line"/>
      <point x="74" y="669" type="line"/>
      <point x="74" y="76" type="line" smooth="yes"/>
      <point x="74" y="45"/>
      <point x="121" y="4"/>
      <point x="149" y="-7" type="curve"/>
    </contour>
    <contour>
      <point x="296" y="238"/>
      <point x="316" y="257"/>
      <point x="316" y="286" type="curve" smooth="yes"/>
      <point x="316" y="314"/>
      <point x="295" y="334"/>
      <point x="267" y="334" type="curve" smooth="yes"/>
      <point x="239" y="334"/>
      <point x="217" y="314"/>
      <point x="217" y="286" type="curve" smooth="yes"/>
      <point x="217" y="257"/>
      <point x="238" y="238"/>
      <point x="267" y="238" type="curve" smooth="yes"/>
    </contour>
  </outline>
</glyph>
<glyph name="Ncommaaccent" format="1">
  <advance width="616"/>
  <unicode hex="0145"/>
  <note>
	Ncommaaccent
  </note>
  <outline>
    <contour>
      <point x="144" y="0" type="line"/>
      <point x="144" y="326" type="line"/>
      <point x="136" y="516" type="line"/>
      <point x="143" y="518" type="line"/>
      <point x="463" y="0" type="line"/>
      <point x="534" y="0" type="line"/>
      <point x="534" y="614" type="line"/>
      <point x="471" y="614" type="line"/>
      <point x="471" y="288" type="line"/>
      <point x="480" y="98" type="line"/>
      <point x="472" y="96" type="line"/>
      <point x="152" y="614" type="line"/>
      <point x="81" y="614" type="line"/>
      <point x="81" y="0" type="line"/>
    </contour>
    <contour>
      <point x="359" y="-211"/>
      <point x="377" y="-167"/>
      <point x="377" y="-124" type="curve" smooth="yes"/>
      <point x="377" y="-80"/>
      <point x="357" y="-58"/>
      <point x="316" y="-58" type="curve" smooth="yes"/>
      <point x="301" y="-58"/>
      <point x="286" y="-60"/>
      <point x="273" y="-65" type="curve"/>
      <point x="273" y="-108" type="line"/>
      <point x="327" y="-108" type="line"/>
      <point x="327" y="-159"/>
      <point x="314" y="-198"/>
      <point x="292" y="-238" type="curve"/>
      <point x="330" y="-247" type="line"/>
    </contour>
  </outline>
</glyph>
<glyph name="ncommaaccent" format="1">
  <advance width="516"/>
  <unicode hex="0146"/>
  <note>
	ncommaaccent
  </note>
  <outline>
    <contour>
      <point x="140" y="0" type="line"/>
      <point x="140" y="352" type="line"/>
      <point x="179" y="394"/>
      <point x="236" y="421"/>
      <point x="305" y="421" type="curve" smooth="yes"/>
      <point x="331" y="421"/>
      <point x="355" y="419"/>
      <point x="380" y="410" type="curve"/>
      <point x="380" y="0" type="line"/>
      <point x="440" y="0" type="line"/>
      <point x="440" y="366" type="line" smooth="yes"/>
      <point x="440" y="446"/>
      <point x="398" y="476"/>
      <point x="316" y="476" type="curve" smooth="yes"/>
      <point x="245" y="476"/>
      <point x="190" y="445"/>
      <point x="143" y="398" type="curve"/>
      <point x="136" y="398" type="line"/>
      <point x="131" y="468" type="line"/>
      <point x="80" y="468" type="line"/>
      <point x="80" y="0" type="line"/>
    </contour>
    <contour>
      <point x="311" y="-211"/>
      <point x="329" y="-167"/>
      <point x="329" y="-124" type="curve" smooth="yes"/>
      <point x="329" y="-80"/>
      <point x="309" y="-58"/>
      <point x="268" y="-58" type="curve" smooth="yes"/>
      <point x="253" y="-58"/>
      <point x="238" y="-60"/>
      <point x="225" y="-65" type="curve"/>
      <point x="225" y="-108" type="line"/>
      <point x="279" y="-108" type="line"/>
      <point x="279" y="-159"/>
      <point x="266" y="-198"/>
      <point x="244" y="-238" type="curve"/>
      <point x="282" y="-247" type="line"/>
    </contour>
  </outline>
</glyph>
<glyph name="Ncaron" format="1">
  <advance width="616"/>
  <unicode hex="0147"/>
  <note>
	Ncaron
  </note>
  <outline>
    <contour>
      <point x="144" y="0" type="line"/>
      <point x="144" y="326" type="line"/>
      <point x="136" y="516" type="line"/>
      <point x="143" y="518" type="line"/>
      <point x="463" y="0" type="line"/>
      <point x="534" y="0" type="line"/>
      <point x="534" y="614" type="line"/>
      <point x="471" y="614" type="line"/>
      <point x="471" y="288" type="line"/>
      <point x="480" y="98" type="line"/>
      <point x="472" y="96" type="line"/>
      <point x="152" y="614" type="line"/>
      <point x="81" y="614" type="line"/>
      <point x="81" y="0" type="line"/>
    </contour>
    <contour>
      <point x="350" y="706" type="line"/>
      <point x="451" y="839" type="line"/>
      <point x="410" y="847" type="line"/>
      <point x="323" y="759" type="line"/>
      <point x="317" y="759" type="line"/>
      <point x="228" y="847" type="line"/>
      <point x="189" y="839" type="line"/>
      <point x="290" y="706" type="line"/>
    </contour>
  </outline>
</glyph>
<glyph name="eng" format="1">
  <advance width="516"/>
  <unicode hex="014B"/>
  <note>
	eng
  </note>
  <outline>
    <contour>
      <point x="399" y="-182"/>
      <point x="440" y="-129"/>
      <point x="440" y="-33" type="curve" smooth="yes"/>
      <point x="440" y="366" type="line" smooth="yes"/>
      <point x="440" y="446"/>
      <point x="398" y="476"/>
      <point x="316" y="476" type="curve" smooth="yes"/>
      <point x="245" y="476"/>
      <point x="190" y="445"/>
      <point x="143" y="398" type="curve"/>
      <point x="136" y="398" type="line"/>
      <point x="131" y="468" type="line"/>
      <point x="80" y="468" type="line"/>
      <point x="80" y="0" type="line"/>
      <point x="140" y="0" type="line"/>
      <point x="140" y="352" type="line"/>
      <point x="179" y="394"/>
      <point x="236" y="421"/>
      <point x="305" y="421" type="curve" smooth="yes"/>
      <point x="331" y="421"/>
      <point x="355" y="419"/>
      <point x="380" y="410" type="curve"/>
      <point x="380" y="-36" type="line" smooth="yes"/>
      <point x="380" y="-65"/>
      <point x="379" y="-94"/>
      <point x="371" y="-117" type="curve"/>
      <point x="341" y="-138"/>
      <point x="304" y="-152"/>
      <point x="259" y="-165" type="curve"/>
      <point x="288" y="-226" type="line"/>
    </contour>
  </outline>
</glyph>
<glyph name="ohungarumlaut" format="1">
  <advance width="507"/>
  <unicode hex="0151"/>
  <note>
	ohungarumlaut
  </note>
  <outline>
    <contour>
      <point x="402" y="-9"/>
      <point x="452" y="92"/>
      <point x="452" y="237" type="curve" smooth="yes"/>
      <point x="452" y="381"/>
      <point x="399" y="480"/>
      <point x="265" y="480" type="curve" smooth="yes"/>
      <point x="104" y="480"/>
      <point x="55" y="374"/>
      <point x="55" y="229" type="curve" smooth="yes"/>
      <point x="55" y="85"/>
      <point x="108" y="-9"/>
      <point x="242" y="-9" type="curve" smooth="yes"/>
    </contour>
    <contour>
      <point x="147" y="44"/>
      <point x="115" y="105"/>
      <point x="115" y="240" type="curve" smooth="yes"/>
      <point x="115" y="310"/>
      <point x="127" y="371"/>
      <point x="146" y="405" type="curve"/>
      <point x="172" y="419"/>
      <point x="209" y="426"/>
      <point x="248" y="426" type="curve" smooth="yes"/>
      <point x="360" y="426"/>
      <point x="392" y="361"/>
      <point x="392" y="225" type="curve" smooth="yes"/>
      <point x="392" y="154"/>
      <point x="380" y="99"/>
      <point x="361" y="65" type="curve"/>
      <point x="335" y="52"/>
      <point x="298" y="44"/>
      <point x="259" y="44" type="curve" smooth="yes"/>
    </contour>
    <contour>
      <point x="207" y="588"/>
      <point x="224" y="632"/>
      <point x="224" y="675" type="curve" smooth="yes"/>
      <point x="224" y="719"/>
      <point x="205" y="741"/>
      <point x="164" y="741" type="curve" smooth="yes"/>
      <point x="149" y="741"/>
      <point x="135" y="739"/>
      <point x="122" y="734" type="curve"/>
      <point x="122" y="691" type="line"/>
      <point x="176" y="691" type="line"/>
      <point x="176" y="640"/>
      <point x="163" y="601"/>
      <point x="141" y="560" type="curve"/>
      <point x="178" y="552" type="line"/>
    </contour>
    <contour>
      <point x="372" y="588"/>
      <point x="389" y="632"/>
      <point x="389" y="675" type="curve" smooth="yes"/>
      <point x="389" y="719"/>
      <point x="371" y="741"/>
      <point x="330" y="741" type="curve" smooth="yes"/>
      <point x="315" y="741"/>
      <point x="300" y="739"/>
      <point x="287" y="734" type="curve"/>
      <point x="287" y="691" type="line"/>
      <point x="341" y="691" type="line"/>
      <point x="341" y="640"/>
      <point x="328" y="601"/>
      <point x="306" y="560" type="curve"/>
      <point x="343" y="552" type="line"/>
    </contour>
  </outline>
</glyph>
<glyph name="OE" format="1">
  <advance width="891"/>
  <unicode hex="0152"/>
  <note>
	OE
  </note>
  <outline>
    <contour>
      <point x="719" y="-10"/>
      <point x="775" y="-4"/>
      <point x="824" y="9" type="curve"/>
      <point x="810" y="64" type="line"/>
      <point x="762" y="53"/>
      <point x="708" y="48"/>
      <point x="652" y="48" type="curve" smooth="yes"/>
      <point x="596" y="48"/>
      <point x="552" y="53"/>
      <point x="504" y="66" type="curve"/>
      <point x="504" y="280" type="line"/>
      <point x="784" y="280" type="line"/>
      <point x="784" y="336" type="line"/>
      <point x="504" y="336" type="line"/>
      <point x="504" y="556" type="line"/>
      <point x="813" y="556" type="line"/>
      <point x="813" y="614" type="line"/>
      <point x="442" y="614" type="line"/>
      <point x="407" y="620"/>
      <point x="369" y="624"/>
      <point x="321" y="624" type="curve" smooth="yes"/>
      <point x="128" y="624"/>
      <point x="60" y="506"/>
      <point x="60" y="297" type="curve" smooth="yes"/>
      <point x="60" y="96"/>
      <point x="139" y="-9"/>
      <point x="300" y="-9" type="curve" smooth="yes"/>
      <point x="366" y="-9"/>
      <point x="422" y="3"/>
      <point x="464" y="28" type="curve"/>
      <point x="470" y="28" type="line"/>
      <point x="504" y="2"/>
      <point x="567" y="-10"/>
      <point x="646" y="-10" type="curve" smooth="yes"/>
    </contour>
    <contour>
      <point x="172" y="49"/>
      <point x="123" y="134"/>
      <point x="123" y="311" type="curve" smooth="yes"/>
      <point x="123" y="406"/>
      <point x="143" y="484"/>
      <point x="175" y="541" type="curve"/>
      <point x="204" y="556"/>
      <point x="260" y="565"/>
      <point x="309" y="565" type="curve" smooth="yes"/>
      <point x="368" y="565"/>
      <point x="397" y="563"/>
      <point x="442" y="555" type="curve"/>
      <point x="442" y="73" type="line"/>
      <point x="412" y="59"/>
      <point x="361" y="49"/>
      <point x="315" y="49" type="curve" smooth="yes"/>
    </contour>
  </outline>
</glyph>
<glyph name="rcommaaccent" format="1">
  <advance width="365"/>
  <unicode hex="0157"/>
  <note>
	rcommaaccent
  </note>
  <outline>
    <contour>
      <point x="141" y="0" type="line"/>
      <point x="141" y="315" type="line"/>
      <point x="162" y="372"/>
      <point x="214" y="403"/>
      <point x="281" y="403" type="curve" smooth="yes"/>
      <point x="322" y="403" type="line"/>
      <point x="329" y="450" type="line"/>
      <point x="324" y="458"/>
      <point x="307" y="472"/>
      <point x="297" y="472" type="curve" smooth="yes"/>
      <point x="234" y="472"/>
      <point x="174" y="434"/>
      <point x="144" y="376" type="curve"/>
      <point x="135" y="376" type="line"/>
      <point x="130" y="466" type="line"/>
      <point x="81" y="466" type="line"/>
      <point x="81" y="0" type="line"/>
    </contour>
    <contour>
      <point x="159" y="-211"/>
      <point x="177" y="-167"/>
      <point x="177" y="-124" type="curve" smooth="yes"/>
      <point x="177" y="-80"/>
      <point x="157" y="-58"/>
      <point x="116" y="-58" type="curve" smooth="yes"/>
      <point x="101" y="-58"/>
      <point x="86" y="-60"/>
      <point x="73" y="-65" type="curve"/>
      <point x="73" y="-108" type="line"/>
      <point x="127" y="-108" type="line"/>
      <point x="127" y="-159"/>
      <point x="114" y="-198"/>
      <point x="92" y="-238" type="curve"/>
      <point x="130" y="-247" type="line"/>
    </contour>
  </outline>
</glyph>
<glyph name="Rcaron" format="1">
  <advance width="575"/>
  <unicode hex="0158"/>
  <note>
	Rcaron
  </note>
  <outline>
    <contour>
      <point x="516" y="-7"/>
      <point x="530" y="-4"/>
      <point x="546" y="1" type="curve"/>
      <point x="546" y="37" type="line"/>
      <point x="496" y="45" type="line"/>
      <point x="426" y="200" type="line" smooth="yes"/>
      <point x="410" y="235"/>
      <point x="395" y="254"/>
      <point x="363" y="269" type="curve"/>
      <point x="363" y="277" type="line"/>
      <point x="428" y="311"/>
      <point x="463" y="364"/>
      <point x="463" y="443" type="curve" smooth="yes"/>
      <point x="463" y="565"/>
      <point x="393" y="624"/>
      <point x="245" y="624" type="curve" smooth="yes"/>
      <point x="194" y="624"/>
      <point x="133" y="615"/>
      <point x="81" y="600" type="curve"/>
      <point x="81" y="0" type="line"/>
      <point x="144" y="0" type="line"/>
      <point x="144" y="254" type="line"/>
      <point x="254" y="254" type="line" smooth="yes"/>
      <point x="332" y="254"/>
      <point x="349" y="220"/>
      <point x="370" y="170" type="curve" smooth="yes"/>
      <point x="431" y="32" type="line" smooth="yes"/>
      <point x="443" y="5"/>
      <point x="462" y="-7"/>
      <point x="493" y="-7" type="curve" smooth="yes"/>
    </contour>
    <contour>
      <point x="144" y="556" type="line"/>
      <point x="173" y="562"/>
      <point x="209" y="566"/>
      <point x="242" y="566" type="curve" smooth="yes"/>
      <point x="351" y="566"/>
      <point x="399" y="532"/>
      <point x="399" y="441" type="curve" smooth="yes"/>
      <point x="399" y="375"/>
      <point x="375" y="341"/>
      <point x="328" y="311" type="curve"/>
      <point x="144" y="311" type="line"/>
    </contour>
    <contour>
      <point x="292" y="706" type="line"/>
      <point x="393" y="839" type="line"/>
      <point x="352" y="847" type="line"/>
      <point x="265" y="759" type="line"/>
      <point x="259" y="759" type="line"/>
      <point x="170" y="847" type="line"/>
      <point x="131" y="839" type="line"/>
      <point x="232" y="706" type="line"/>
    </contour>
  </outline>
</glyph>
<glyph name="scedilla" format="1">
  <advance width="419"/>
  <unicode hex="015F"/>
  <note>
	scedilla
  </note>
  <outline>
    <contour>
      <point x="283" y="-216"/>
      <point x="318" y="-188"/>
      <point x="318" y="-130" type="curve" smooth="yes"/>
      <point x="318" y="-84"/>
      <point x="296" y="-56"/>
      <point x="243" y="-56" type="curve" smooth="yes"/>
      <point x="225" y="-56"/>
      <point x="210" y="-59"/>
      <point x="198" y="-64" type="curve"/>
      <point x="240" y="-7" type="line"/>
      <point x="336" y="5"/>
      <point x="369" y="68"/>
      <point x="369" y="129" type="curve" smooth="yes"/>
      <point x="369" y="211"/>
      <point x="323" y="237"/>
      <point x="226" y="260" type="curve" smooth="yes"/>
      <point x="135" y="282"/>
      <point x="111" y="302"/>
      <point x="111" y="352" type="curve" smooth="yes"/>
      <point x="111" y="405"/>
      <point x="140" y="427"/>
      <point x="216" y="427" type="curve" smooth="yes"/>
      <point x="246" y="427"/>
      <point x="269" y="425"/>
      <point x="289" y="422" type="curve"/>
      <point x="296" y="358" type="line"/>
      <point x="336" y="358" type="line"/>
      <point x="343" y="377"/>
      <point x="348" y="401"/>
      <point x="348" y="422" type="curve" smooth="yes"/>
      <point x="348" y="447" type="line"/>
      <point x="317" y="464"/>
      <point x="277" y="476"/>
      <point x="220" y="476" type="curve" smooth="yes"/>
      <point x="100" y="476"/>
      <point x="53" y="409"/>
      <point x="53" y="341" type="curve" smooth="yes"/>
      <point x="53" y="258"/>
      <point x="117" y="228"/>
      <point x="212" y="207" type="curve" smooth="yes"/>
      <point x="294" y="189"/>
      <point x="311" y="173"/>
      <point x="311" y="118" type="curve" smooth="yes"/>
      <point x="311" y="94"/>
      <point x="307" y="73"/>
      <point x="299" y="54" type="curve"/>
      <point x="274" y="46"/>
      <point x="247" y="42"/>
      <point x="210" y="42" type="curve" smooth="yes"/>
      <point x="157" y="42"/>
      <point x="111" y="53"/>
      <point x="68" y="74" type="curve"/>
      <point x="49" y="25" type="line"/>
      <point x="92" y="2"/>
      <point x="140" y="-6"/>
      <point x="189" y="-8" type="curve"/>
      <point x="140" y="-68" type="line"/>
      <point x="177" y="-104" type="line"/>
      <point x="189" y="-99"/>
      <point x="203" y="-97"/>
      <point x="220" y="-97" type="curve" smooth="yes"/>
      <point x="251" y="-97"/>
      <point x="266" y="-108"/>
      <point x="266" y="-134" type="curve" smooth="yes"/>
      <point x="266" y="-147"/>
      <point x="264" y="-157"/>
      <point x="260" y="-167" type="curve"/>
      <point x="245" y="-170"/>
      <point x="231" y="-172"/>
      <point x="211" y="-172" type="curve" smooth="yes"/>
      <point x="189" y="-172"/>
      <point x="162" y="-168"/>
      <point x="142" y="-160" type="curve"/>
      <point x="128" y="-200" type="line"/>
      <point x="158" y="-213"/>
      <point x="185" y="-216"/>
      <point x="212" y="-216" type="curve" smooth="yes"/>
    </contour>
  </outline>
</glyph>
<glyph name="scaron" format="1">
  <advance width="419"/>
  <unicode hex="0161"/>
  <note>
	scaron
  </note>
  <outline>
    <contour>
      <point x="328" y="-9"/>
      <point x="369" y="61"/>
      <point x="369" y="129" type="curve" smooth="yes"/>
      <point x="369" y="211"/>
      <point x="323" y="237"/>
      <point x="226" y="260" type="curve" smooth="yes"/>
      <point x="135" y="282"/>
      <point x="111" y="302"/>
      <point x="111" y="352" type="curve" smooth="yes"/>
      <point x="111" y="405"/>
      <point x="140" y="427"/>
      <point x="216" y="427" type="curve" smooth="yes"/>
      <point x="246" y="427"/>
      <point x="269" y="425"/>
      <point x="289" y="422" type="curve"/>
      <point x="296" y="358" type="line"/>
      <point x="336" y="358" type="line"/>
      <point x="343" y="377"/>
      <point x="348" y="401"/>
      <point x="348" y="422" type="curve" smooth="yes"/>
      <point x="348" y="447" type="line"/>
      <point x="317" y="464"/>
      <point x="277" y="476"/>
      <point x="220" y="476" type="curve" smooth="yes"/>
      <point x="100" y="476"/>
      <point x="53" y="409"/>
      <point x="53" y="341" type="curve" smooth="yes"/>
      <point x="53" y="258"/>
      <point x="117" y="228"/>
      <point x="212" y="207" type="curve" smooth="yes"/>
      <point x="294" y="189"/>
      <point x="311" y="173"/>
      <point x="311" y="118" type="curve" smooth="yes"/>
      <point x="311" y="94"/>
      <point x="307" y="73"/>
      <point x="299" y="54" type="curve"/>
      <point x="274" y="46"/>
      <point x="247" y="42"/>
      <point x="210" y="42" type="curve" smooth="yes"/>
      <point x="157" y="42"/>
      <point x="111" y="53"/>
      <point x="68" y="74" type="curve"/>
      <point x="49" y="25" type="line"/>
      <point x="96" y="1"/>
      <point x="148" y="-9"/>
      <point x="203" y="-9" type="curve" smooth="yes"/>
    </contour>
    <contour>
      <point x="236" y="560" type="line"/>
      <point x="337" y="692" type="line"/>
      <point x="296" y="701" type="line"/>
      <point x="209" y="612" type="line"/>
      <point x="203" y="612" type="line"/>
      <point x="114" y="701" type="line"/>
      <point x="75" y="692" type="line"/>
      <point x="176" y="560" type="line"/>
    </contour>
  </outline>
</glyph>
<glyph name="Tcaron" format="1">
  <advance width="533"/>
  <unicode hex="0164"/>
  <note>
	Tcaron
  </note>
  <outline>
    <contour>
      <point x="298" y="0" type="line"/>
      <point x="298" y="555" type="line"/>
      <point x="496" y="555" type="line"/>
      <point x="496" y="614" type="line"/>
      <point x="37" y="614" type="line"/>
      <point x="37" y="555" type="line"/>
      <point x="235" y="555" type="line"/>
      <point x="235" y="0" type="line"/>
    </contour>
    <contour>
      <point x="297" y="706" type="line"/>
      <point x="398" y="839" type="line"/>
      <point x="357" y="847" type="line"/>
      <point x="270" y="759" type="line"/>
      <point x="264" y="759" type="line"/>
      <point x="175" y="847" type="line"/>
      <point x="136" y="839" type="line"/>
      <point x="237" y="706" type="line"/>
    </contour>
  </outline>
</glyph>
<glyph name="tcaron" format="1">
  <advance width="366"/>
  <unicode hex="0165"/>
  <note>
	tcaron
  </note>
  <outline>
    <contour>
      <point x="273" y="-6"/>
      <point x="312" y="6"/>
      <point x="333" y="17" type="curve"/>
      <point x="316" y="67" type="line"/>
      <point x="292" y="57"/>
      <point x="257" y="48"/>
      <point x="232" y="48" type="curve" smooth="yes"/>
      <point x="211" y="48"/>
      <point x="195" y="51"/>
      <point x="176" y="57" type="curve"/>
      <point x="170" y="73"/>
      <point x="167" y="85"/>
      <point x="167" y="107" type="curve" smooth="yes"/>
      <point x="167" y="409" type="line"/>
      <point x="315" y="409" type="line"/>
      <point x="323" y="460" type="line"/>
      <point x="167" y="460" type="line"/>
      <point x="167" y="594" type="line"/>
      <point x="109" y="594" type="line"/>
      <point x="109" y="460" type="line"/>
      <point x="35" y="460" type="line"/>
      <point x="27" y="409" type="line"/>
      <point x="109" y="409" type="line"/>
      <point x="109" y="94" type="line" smooth="yes"/>
      <point x="109" y="47"/>
      <point x="145" y="19"/>
      <point x="178" y="1" type="curve"/>
      <point x="197" y="-4"/>
      <point x="219" y="-6"/>
      <point x="242" y="-6" type="curve" smooth="yes"/>
    </contour>
    <contour>
      <point x="198" y="694" type="line"/>
      <point x="299" y="826" type="line"/>
      <point x="258" y="835" type="line"/>
      <point x="171" y="746" type="line"/>
      <point x="165" y="746" type="line"/>
      <point x="76" y="835" type="line"/>
      <point x="37" y="826" type="line"/>
      <point x="138" y="694" type="line"/>
    </contour>
  </outline>
</glyph>
<glyph name="Tbar" format="1">
  <advance width="533"/>
  <unicode hex="0166"/>
  <note>
	Tbar
  </note>
  <outline>
    <contour>
      <point x="298" y="0" type="line"/>
      <point x="298" y="282" type="line"/>
      <point x="415" y="282" type="line"/>
      <point x="415" y="333" type="line"/>
      <point x="298" y="333" type="line"/>
      <point x="298" y="555" type="line"/>
      <point x="496" y="555" type="line"/>
      <point x="496" y="614" type="line"/>
      <point x="37" y="614" type="line"/>
      <point x="37" y="555" type="line"/>
      <point x="235" y="555" type="line"/>
      <point x="235" y="333" type="line"/>
      <point x="119" y="333" type="line"/>
      <point x="119" y="282" type="line"/>
      <point x="235" y="282" type="line"/>
      <point x="235" y="0" type="line"/>
    </contour>
  </outline>
</glyph>
<glyph name="tbar" format="1">
  <advance width="366"/>
  <unicode hex="0167"/>
  <note>
	tbar
  </note>
  <outline>
    <contour>
      <point x="273" y="-8"/>
      <point x="312" y="5"/>
      <point x="333" y="16" type="curve"/>
      <point x="316" y="66" type="line"/>
      <point x="292" y="56"/>
      <point x="257" y="47"/>
      <point x="232" y="47" type="curve" smooth="yes"/>
      <point x="211" y="47"/>
      <point x="195" y="50"/>
      <point x="176" y="56" type="curve"/>
      <point x="170" y="72"/>
      <point x="167" y="83"/>
      <point x="167" y="106" type="curve" smooth="yes"/>
      <point x="167" y="238" type="line"/>
      <point x="278" y="238" type="line"/>
      <point x="278" y="289" type="line"/>
      <point x="167" y="289" type="line"/>
      <point x="167" y="409" type="line"/>
      <point x="315" y="409" type="line"/>
      <point x="323" y="460" type="line"/>
      <point x="167" y="460" type="line"/>
      <point x="167" y="594" type="line"/>
      <point x="109" y="594" type="line"/>
      <point x="109" y="460" type="line"/>
      <point x="35" y="460" type="line"/>
      <point x="27" y="409" type="line"/>
      <point x="109" y="409" type="line"/>
      <point x="109" y="289" type="line"/>
      <point x="32" y="289" type="line"/>
      <point x="32" y="238" type="line"/>
      <point x="109" y="238" type="line"/>
      <point x="109" y="93" type="line" smooth="yes"/>
      <point x="109" y="45"/>
      <point x="145" y="17"/>
      <point x="178" y="0" type="curve"/>
      <point x="197" y="-5"/>
      <point x="219" y="-8"/>
      <point x="242" y="-8" type="curve" smooth="yes"/>
    </contour>
  </outline>
</glyph>
<glyph name="Umacron" format="1">
  <advance width="599"/>
  <unicode hex="016A"/>
  <note>
	Umacron
  </note>
  <outline>
    <contour>
      <point x="426" y="-9"/>
      <point x="519" y="23"/>
      <point x="519" y="104" type="curve" smooth="yes"/>
      <point x="519" y="614" type="line"/>
      <point x="456" y="614" type="line"/>
      <point x="456" y="75" type="line"/>
      <point x="422" y="60"/>
      <point x="369" y="50"/>
      <point x="300" y="50" type="curve" smooth="yes"/>
      <point x="190" y="50"/>
      <point x="141" y="79"/>
      <point x="141" y="184" type="curve" smooth="yes"/>
      <point x="141" y="614" type="line"/>
      <point x="78" y="614" type="line"/>
      <point x="78" y="170" type="line" smooth="yes"/>
      <point x="78" y="49"/>
      <point x="152" y="-9"/>
      <point x="293" y="-9" type="curve" smooth="yes"/>
    </contour>
    <contour>
      <point x="441" y="706" type="line"/>
      <point x="441" y="759" type="line"/>
      <point x="156" y="759" type="line"/>
      <point x="156" y="706" type="line"/>
    </contour>
  </outline>
</glyph>
<glyph name="umacron" format="1">
  <advance width="511"/>
  <unicode hex="016B"/>
  <note>
	umacron
  </note>
  <outline>
    <contour>
      <point x="271" y="-9"/>
      <point x="321" y="23"/>
      <point x="367" y="72" type="curve"/>
      <point x="375" y="72" type="line"/>
      <point x="379" y="0" type="line"/>
      <point x="430" y="0" type="line"/>
      <point x="430" y="468" type="line"/>
      <point x="370" y="468" type="line"/>
      <point x="370" y="117" type="line"/>
      <point x="333" y="75"/>
      <point x="278" y="45"/>
      <point x="208" y="45" type="curve" smooth="yes"/>
      <point x="183" y="45"/>
      <point x="160" y="48"/>
      <point x="134" y="56" type="curve"/>
      <point x="134" y="468" type="line"/>
      <point x="74" y="468" type="line"/>
      <point x="74" y="100" type="line" smooth="yes"/>
      <point x="74" y="21"/>
      <point x="116" y="-9"/>
      <point x="198" y="-9" type="curve" smooth="yes"/>
    </contour>
    <contour>
      <point x="398" y="560" type="line"/>
      <point x="398" y="613" type="line"/>
      <point x="113" y="613" type="line"/>
      <point x="113" y="560" type="line"/>
    </contour>
  </outline>
</glyph>
<glyph name="ubreve" format="1">
  <advance width="511"/>
  <unicode hex="016D"/>
  <note>
	ubreve
  </note>
  <outline>
    <contour>
      <point x="271" y="-9"/>
      <point x="321" y="23"/>
      <point x="367" y="72" type="curve"/>
      <point x="375" y="72" type="line"/>
      <point x="379" y="0" type="line"/>
      <point x="430" y="0" type="line"/>
      <point x="430" y="468" type="line"/>
      <point x="370" y="468" type="line"/>
      <point x="370" y="117" type="line"/>
      <point x="333" y="75"/>
      <point x="278" y="45"/>
      <point x="208" y="45" type="curve" smooth="yes"/>
      <point x="183" y="45"/>
      <point x="160" y="48"/>
      <point x="134" y="56" type="curve"/>
      <point x="134" y="468" type="line"/>
      <point x="74" y="468" type="line"/>
      <point x="74" y="100" type="line" smooth="yes"/>
      <point x="74" y="21"/>
      <point x="116" y="-9"/>
      <point x="198" y="-9" type="curve" smooth="yes"/>
    </contour>
    <contour>
      <point x="336" y="555"/>
      <point x="373" y="599"/>
      <point x="383" y="661" type="curve"/>
      <point x="324" y="670" type="line"/>
      <point x="319" y="630"/>
      <point x="306" y="604"/>
      <point x="256" y="604" type="curve" smooth="yes"/>
      <point x="205" y="604"/>
      <point x="192" y="630"/>
      <point x="187" y="670" type="curve"/>
      <point x="128" y="661" type="line"/>
      <point x="138" y="599"/>
      <point x="175" y="555"/>
      <point x="256" y="555" type="curve" smooth="yes"/>
    </contour>
  </outline>
</glyph>
<glyph name="Uring" format="1">
  <advance width="599"/>
  <unicode hex="016E"/>
  <note>
	Uring
  </note>
  <outline>
    <contour>
      <point x="426" y="-9"/>
      <point x="519" y="23"/>
      <point x="519" y="104" type="curve" smooth="yes"/>
      <point x="519" y="614" type="line"/>
      <point x="456" y="614" type="line"/>
      <point x="456" y="75" type="line"/>
      <point x="422" y="60"/>
      <point x="369" y="50"/>
      <point x="300" y="50" type="curve" smooth="yes"/>
      <point x="190" y="50"/>
      <point x="141" y="79"/>
      <point x="141" y="184" type="curve" smooth="yes"/>
      <point x="141" y="614" type="line"/>
      <point x="78" y="614" type="line"/>
      <point x="78" y="170" type="line" smooth="yes"/>
      <point x="78" y="49"/>
      <point x="152" y="-9"/>
      <point x="293" y="-9" type="curve" smooth="yes"/>
    </contour>
    <contour>
      <point x="366" y="649"/>
      <point x="409" y="691"/>
      <point x="409" y="741" type="curve" smooth="yes"/>
      <point x="409" y="798"/>
      <point x="372" y="830"/>
      <point x="306" y="830" type="curve" smooth="yes"/>
      <point x="231" y="830"/>
      <point x="189" y="785"/>
      <point x="189" y="735" type="curve" smooth="yes"/>
      <point x="189" y="679"/>
      <point x="227" y="649"/>
      <point x="291" y="649" type="curve" smooth="yes"/>
    </contour>
    <contour>
      <point x="255" y="689"/>
      <point x="234" y="707"/>
      <point x="234" y="737" type="curve" smooth="yes"/>
      <point x="234" y="752"/>
      <point x="235" y="766"/>
      <point x="241" y="783" type="curve"/>
      <point x="260" y="789"/>
      <point x="279" y="791"/>
      <point x="304" y="791" type="curve" smooth="yes"/>
      <point x="343" y="791"/>
      <point x="364" y="771"/>
      <point x="364" y="739" type="curve" smooth="yes"/>
      <point x="364" y="724"/>
      <point x="361" y="710"/>
      <point x="357" y="696" type="curve"/>
      <point x="339" y="690"/>
      <point x="318" y="689"/>
      <point x="294" y="689" type="curve" smooth="yes"/>
    </contour>
  </outline>
</glyph>
<glyph name="Uhungarumlaut" format="1">
  <advance width="599"/>
  <unicode hex="0170"/>
  <note>
	Uhungarumlaut
  </note>
  <outline>
    <contour>
      <point x="426" y="-9"/>
      <point x="519" y="23"/>
      <point x="519" y="104" type="curve" smooth="yes"/>
      <point x="519" y="614" type="line"/>
      <point x="456" y="614" type="line"/>
      <point x="456" y="75" type="line"/>
      <point x="422" y="60"/>
      <point x="369" y="50"/>
      <point x="300" y="50" type="curve" smooth="yes"/>
      <point x="190" y="50"/>
      <point x="141" y="79"/>
      <point x="141" y="184" type="curve" smooth="yes"/>
      <point x="141" y="614" type="line"/>
      <point x="78" y="614" type="line"/>
      <point x="78" y="170" type="line" smooth="yes"/>
      <point x="78" y="49"/>
      <point x="152" y="-9"/>
      <point x="293" y="-9" type="curve" smooth="yes"/>
    </contour>
    <contour>
      <point x="250" y="734"/>
      <point x="267" y="777"/>
      <point x="267" y="821" type="curve" smooth="yes"/>
      <point x="267" y="865"/>
      <point x="248" y="887"/>
      <point x="207" y="887" type="curve" smooth="yes"/>
      <point x="192" y="887"/>
      <point x="178" y="885"/>
      <point x="165" y="880" type="curve"/>
      <point x="165" y="837" type="line"/>
      <point x="219" y="837" type="line"/>
      <point x="219" y="785"/>
      <point x="206" y="747"/>
      <point x="184" y="706" type="curve"/>
      <point x="221" y="698" type="line"/>
    </contour>
    <contour>
      <point x="415" y="734"/>
      <point x="432" y="777"/>
      <point x="432" y="821" type="curve" smooth="yes"/>
      <point x="432" y="865"/>
      <point x="414" y="887"/>
      <point x="373" y="887" type="curve" smooth="yes"/>
      <point x="358" y="887"/>
      <point x="343" y="885"/>
      <point x="330" y="880" type="curve"/>
      <point x="330" y="837" type="line"/>
      <point x="384" y="837" type="line"/>
      <point x="384" y="785"/>
      <point x="371" y="747"/>
      <point x="349" y="706" type="curve"/>
      <point x="386" y="698" type="line"/>
    </contour>
  </outline>
</glyph>
<glyph name="uhungarumlaut" format="1">
  <advance width="511"/>
  <unicode hex="0171"/>
  <note>
	uhungarumlaut
  </note>
  <outline>
    <contour>
      <point x="271" y="-9"/>
      <point x="321" y="23"/>
      <point x="367" y="72" type="curve"/>
      <point x="375" y="72" type="line"/>
      <point x="379" y="0" type="line"/>
      <point x="430" y="0" type="line"/>
      <point x="430" y="468" type="line"/>
      <point x="370" y="468" type="line"/>
      <point x="370" y="117" type="line"/>
      <point x="333" y="75"/>
      <point x="278" y="45"/>
      <point x="208" y="45" type="curve" smooth="yes"/>
      <point x="183" y="45"/>
      <point x="160" y="48"/>
      <point x="134" y="56" type="curve"/>
      <point x="134" y="468" type="line"/>
      <point x="74" y="468" type="line"/>
      <point x="74" y="100" type="line" smooth="yes"/>
      <point x="74" y="21"/>
      <point x="116" y="-9"/>
      <point x="198" y="-9" type="curve" smooth="yes"/>
    </contour>
    <contour>
      <point x="207" y="587"/>
      <point x="224" y="631"/>
      <point x="224" y="674" type="curve" smooth="yes"/>
      <point x="224" y="718"/>
      <point x="205" y="740"/>
      <point x="164" y="740" type="curve" smooth="yes"/>
      <point x="149" y="740"/>
      <point x="135" y="738"/>
      <point x="122" y="733" type="curve"/>
      <point x="122" y="690" type="line"/>
      <point x="176" y="690" type="line"/>
      <point x="176" y="639"/>
      <point x="163" y="600"/>
      <point x="141" y="559" type="curve"/>
      <point x="178" y="551" type="line"/>
    </contour>
    <contour>
      <point x="372" y="587"/>
      <point x="389" y="631"/>
      <point x="389" y="674" type="curve" smooth="yes"/>
      <point x="389" y="718"/>
      <point x="371" y="740"/>
      <point x="330" y="740" type="curve" smooth="yes"/>
      <point x="315" y="740"/>
      <point x="300" y="738"/>
      <point x="287" y="733" type="curve"/>
      <point x="287" y="690" type="line"/>
      <point x="341" y="690" type="line"/>
      <point x="341" y="639"/>
      <point x="328" y="600"/>
      <point x="306" y="559" type="curve"/>
      <point x="343" y="551" type="line"/>
    </contour>
  </outline>
</glyph>
<glyph name="Uogonek" format="1">
  <advance width="599"/>
  <unicode hex="0172"/>
  <note>
	Uogonek
  </note>
  <outline>
    <contour>
      <point x="357" y="-165"/>
      <point x="375" y="-161"/>
      <point x="391" y="-154" type="curve"/>
      <point x="381" y="-112" type="line"/>
      <point x="367" y="-116"/>
      <point x="354" y="-117"/>
      <point x="340" y="-117" type="curve" smooth="yes"/>
      <point x="326" y="-117"/>
      <point x="313" y="-116"/>
      <point x="301" y="-113" type="curve"/>
      <point x="297" y="-105"/>
      <point x="295" y="-94"/>
      <point x="295" y="-83" type="curve" smooth="yes"/>
      <point x="295" y="-52"/>
      <point x="307" y="-31"/>
      <point x="343" y="-7" type="curve"/>
      <point x="449" y="1"/>
      <point x="519" y="34"/>
      <point x="519" y="104" type="curve" smooth="yes"/>
      <point x="519" y="614" type="line"/>
      <point x="456" y="614" type="line"/>
      <point x="456" y="75" type="line"/>
      <point x="422" y="60"/>
      <point x="369" y="50"/>
      <point x="300" y="50" type="curve" smooth="yes"/>
      <point x="190" y="50"/>
      <point x="141" y="79"/>
      <point x="141" y="184" type="curve" smooth="yes"/>
      <point x="141" y="614" type="line"/>
      <point x="78" y="614" type="line"/>
      <point x="78" y="170" type="line" smooth="yes"/>
      <point x="78" y="51"/>
      <point x="148" y="-6"/>
      <point x="283" y="-9" type="curve"/>
      <point x="256" y="-28"/>
      <point x="240" y="-51"/>
      <point x="240" y="-87" type="curve" smooth="yes"/>
      <point x="240" y="-135"/>
      <point x="275" y="-165"/>
      <point x="331" y="-165" type="curve" smooth="yes"/>
    </contour>
  </outline>
</glyph>
<glyph name="Ycircumflex" format="1">
  <advance width="601"/>
  <unicode hex="0176"/>
  <note>
	Ycircumflex
  </note>
  <outline>
    <contour>
      <point x="332" y="0" type="line"/>
      <point x="332" y="221" type="line"/>
      <point x="351" y="221" type="line"/>
      <point x="440" y="334"/>
      <point x="507" y="452"/>
      <point x="570" y="602" type="curve"/>
      <point x="507" y="619" type="line"/>
      <point x="453" y="484"/>
      <point x="382" y="360"/>
      <point x="318" y="271" type="curve"/>
      <point x="283" y="271" type="line"/>
      <point x="218" y="360"/>
      <point x="147" y="484"/>
      <point x="93" y="619" type="curve"/>
      <point x="30" y="602" type="line"/>
      <point x="94" y="452"/>
      <point x="161" y="334"/>
      <point x="249" y="221" type="curve"/>
      <point x="269" y="221" type="line"/>
      <point x="269" y="0" type="line"/>
    </contour>
    <contour>
      <point x="298" y="786" type="line"/>
      <point x="304" y="786" type="line"/>
      <point x="391" y="697" type="line"/>
      <point x="432" y="706" type="line"/>
      <point x="331" y="838" type="line"/>
      <point x="271" y="838" type="line"/>
      <point x="170" y="706" type="line"/>
      <point x="209" y="697" type="line"/>
    </contour>
  </outline>
</glyph>
<glyph name="ycircumflex" format="1">
  <advance width="488"/>
  <unicode hex="0177"/>
  <note>
	ycircumflex
  </note>
  <outline>
    <contour>
      <point x="190" y="-189"/>
      <point x="240" y="-165"/>
      <point x="262" y="-114" type="curve" smooth="yes"/>
      <point x="326" y="39"/>
      <point x="393" y="249"/>
      <point x="446" y="466" type="curve"/>
      <point x="385" y="472" type="line"/>
      <point x="354" y="339"/>
      <point x="314" y="196"/>
      <point x="274" y="75" type="curve"/>
      <point x="224" y="75" type="line"/>
      <point x="180" y="188"/>
      <point x="135" y="323"/>
      <point x="96" y="472" type="curve"/>
      <point x="36" y="466" type="line"/>
      <point x="78" y="310"/>
      <point x="122" y="186"/>
      <point x="189" y="22" type="curve"/>
      <point x="256" y="22" type="line"/>
      <point x="236" y="-34"/>
      <point x="215" y="-91"/>
      <point x="197" y="-134" type="curve"/>
      <point x="183" y="-136"/>
      <point x="170" y="-138"/>
      <point x="153" y="-138" type="curve" smooth="yes"/>
      <point x="137" y="-138"/>
      <point x="123" y="-137"/>
      <point x="111" y="-135" type="curve"/>
      <point x="111" y="-88" type="line"/>
      <point x="67" y="-88" type="line"/>
      <point x="60" y="-109"/>
      <point x="58" y="-126"/>
      <point x="58" y="-147" type="curve" smooth="yes"/>
      <point x="58" y="-172" type="line"/>
      <point x="78" y="-182"/>
      <point x="106" y="-189"/>
      <point x="140" y="-189" type="curve" smooth="yes"/>
    </contour>
    <contour>
      <point x="245" y="639" type="line"/>
      <point x="251" y="639" type="line"/>
      <point x="338" y="551" type="line"/>
      <point x="379" y="559" type="line"/>
      <point x="278" y="691" type="line"/>
      <point x="218" y="691" type="line"/>
      <point x="117" y="559" type="line"/>
      <point x="156" y="551" type="line"/>
    </contour>
  </outline>
</glyph>
<glyph name="Zacute" format="1">
  <advance width="551"/>
  <unicode hex="0179"/>
  <note>
	Zacute
  </note>
  <outline>
    <contour>
      <point x="497" y="0" type="line"/>
      <point x="497" y="38" type="line" smooth="yes"/>
      <point x="497" y="70"/>
      <point x="490" y="103"/>
      <point x="482" y="128" type="curve"/>
      <point x="431" y="128" type="line"/>
      <point x="431" y="57" type="line"/>
      <point x="129" y="57" type="line"/>
      <point x="129" y="69" type="line"/>
      <point x="486" y="547" type="line"/>
      <point x="486" y="614" type="line"/>
      <point x="68" y="614" type="line"/>
      <point x="68" y="575" type="line" smooth="yes"/>
      <point x="68" y="543"/>
      <point x="75" y="513"/>
      <point x="84" y="488" type="curve"/>
      <point x="134" y="488" type="line"/>
      <point x="134" y="556" type="line"/>
      <point x="411" y="556" type="line"/>
      <point x="411" y="546" type="line"/>
      <point x="55" y="68" type="line"/>
      <point x="55" y="0" type="line"/>
    </contour>
    <contour>
      <point x="397" y="840" type="line"/>
      <point x="316" y="848" type="line"/>
      <point x="233" y="706" type="line"/>
      <point x="278" y="698" type="line"/>
    </contour>
  </outline>
</glyph>
<glyph name="zacute" format="1">
  <advance width="442"/>
  <unicode hex="017A"/>
  <note>
	zacute
  </note>
  <outline>
    <contour>
      <point x="391" y="0" type="line"/>
      <point x="391" y="46" type="line" smooth="yes"/>
      <point x="391" y="66"/>
      <point x="386" y="93"/>
      <point x="380" y="113" type="curve"/>
      <point x="338" y="113" type="line"/>
      <point x="332" y="49" type="line"/>
      <point x="119" y="49" type="line"/>
      <point x="119" y="59" type="line"/>
      <point x="379" y="406" type="line"/>
      <point x="379" y="468" type="line"/>
      <point x="62" y="468" type="line"/>
      <point x="62" y="424" type="line" smooth="yes"/>
      <point x="62" y="401"/>
      <point x="67" y="376"/>
      <point x="73" y="357" type="curve"/>
      <point x="115" y="357" type="line"/>
      <point x="122" y="418" type="line"/>
      <point x="313" y="418" type="line"/>
      <point x="313" y="410" type="line"/>
      <point x="53" y="60" type="line"/>
      <point x="53" y="0" type="line"/>
    </contour>
    <contour>
      <point x="346" y="694" type="line"/>
      <point x="265" y="702" type="line"/>
      <point x="182" y="560" type="line"/>
      <point x="227" y="552" type="line"/>
    </contour>
  </outline>
</glyph>
<glyph name="Zdotaccent" format="1">
  <advance width="551"/>
  <unicode hex="017B"/>
  <note>
	Zdotaccent
  </note>
  <outline>
    <contour>
      <point x="497" y="0" type="line"/>
      <point x="497" y="38" type="line" smooth="yes"/>
      <point x="497" y="70"/>
      <point x="490" y="103"/>
      <point x="482" y="128" type="curve"/>
      <point x="431" y="128" type="line"/>
      <point x="431" y="57" type="line"/>
      <point x="129" y="57" type="line"/>
      <point x="129" y="69" type="line"/>
      <point x="486" y="547" type="line"/>
      <point x="486" y="614" type="line"/>
      <point x="68" y="614" type="line"/>
      <point x="68" y="575" type="line" smooth="yes"/>
      <point x="68" y="543"/>
      <point x="75" y="513"/>
      <point x="84" y="488" type="curve"/>
      <point x="134" y="488" type="line"/>
      <point x="134" y="556" type="line"/>
      <point x="411" y="556" type="line"/>
      <point x="411" y="546" type="line"/>
      <point x="55" y="68" type="line"/>
      <point x="55" y="0" type="line"/>
    </contour>
    <contour>
      <point x="314" y="701"/>
      <point x="332" y="719"/>
      <point x="332" y="748" type="curve" smooth="yes"/>
      <point x="332" y="780"/>
      <point x="314" y="797"/>
      <point x="282" y="797" type="curve" smooth="yes"/>
      <point x="251" y="797"/>
      <point x="232" y="780"/>
      <point x="232" y="748" type="curve" smooth="yes"/>
      <point x="232" y="719"/>
      <point x="251" y="701"/>
      <point x="282" y="701" type="curve" smooth="yes"/>
    </contour>
  </outline>
</glyph>
<glyph name="Zcaron" format="1">
  <advance width="551"/>
  <unicode hex="017D"/>
  <note>
	Zcaron
  </note>
  <outline>
    <contour>
      <point x="497" y="0" type="line"/>
      <point x="497" y="38" type="line" smooth="yes"/>
      <point x="497" y="70"/>
      <point x="490" y="103"/>
      <point x="482" y="128" type="curve"/>
      <point x="431" y="128" type="line"/>
      <point x="431" y="57" type="line"/>
      <point x="129" y="57" type="line"/>
      <point x="129" y="69" type="line"/>
      <point x="486" y="547" type="line"/>
      <point x="486" y="614" type="line"/>
      <point x="68" y="614" type="line"/>
      <point x="68" y="575" type="line" smooth="yes"/>
      <point x="68" y="543"/>
      <point x="75" y="513"/>
      <point x="84" y="488" type="curve"/>
      <point x="134" y="488" type="line"/>
      <point x="134" y="556" type="line"/>
      <point x="411" y="556" type="line"/>
      <point x="411" y="546" type="line"/>
      <point x="55" y="68" type="line"/>
      <point x="55" y="0" type="line"/>
    </contour>
    <contour>
      <point x="308" y="706" type="line"/>
      <point x="409" y="839" type="line"/>
      <point x="368" y="847" type="line"/>
      <point x="281" y="759" type="line"/>
      <point x="275" y="759" type="line"/>
      <point x="186" y="847" type="line"/>
      <point x="147" y="839" type="line"/>
      <point x="248" y="706" type="line"/>
    </contour>
  </outline>
</glyph>
<glyph name="uni018F" format="1">
  <advance width="618"/>
  <unicode hex="018F"/>
  <note>
	uni018F
  </note>
  <outline>
    <contour>
      <point x="469" y="-8"/>
      <point x="547" y="107"/>
      <point x="547" y="314" type="curve" smooth="yes"/>
      <point x="547" y="513"/>
      <point x="457" y="624"/>
      <point x="285" y="624" type="curve" smooth="yes"/>
      <point x="178" y="624"/>
      <point x="116" y="592"/>
      <point x="61" y="558" type="curve"/>
      <point x="86" y="509" type="line"/>
      <point x="138" y="542"/>
      <point x="188" y="565"/>
      <point x="278" y="565" type="curve" smooth="yes"/>
      <point x="409" y="565"/>
      <point x="484" y="497"/>
      <point x="484" y="336" type="curve"/>
      <point x="131" y="340" type="line"/>
      <point x="59" y="277" type="line"/>
      <point x="57" y="265"/>
      <point x="57" y="249"/>
      <point x="57" y="237" type="curve" smooth="yes"/>
      <point x="57" y="90"/>
      <point x="129" y="-8"/>
      <point x="288" y="-8" type="curve" smooth="yes"/>
    </contour>
    <contour>
      <point x="177" y="51"/>
      <point x="119" y="116"/>
      <point x="119" y="218" type="curve" smooth="yes"/>
      <point x="119" y="241"/>
      <point x="120" y="254"/>
      <point x="123" y="278" type="curve"/>
      <point x="484" y="283" type="line"/>
      <point x="484" y="136"/>
      <point x="430" y="51"/>
      <point x="289" y="51" type="curve" smooth="yes"/>
    </contour>
  </outline>
</glyph>
<glyph name="florin" format="1">
  <advance width="454"/>
  <unicode hex="0192"/>
  <note>
	florin
  </note>
  <outline>
    <contour>
      <point x="142" y="-150"/>
      <point x="178" y="-104"/>
      <point x="192" y="-3" type="curve" smooth="yes"/>
      <point x="249" y="407" type="line"/>
      <point x="353" y="407" type="line"/>
      <point x="367" y="457" type="line"/>
      <point x="256" y="457" type="line"/>
      <point x="267" y="529" type="line" smooth="yes"/>
      <point x="270" y="552"/>
      <point x="274" y="571"/>
      <point x="286" y="592" type="curve"/>
      <point x="307" y="599"/>
      <point x="329" y="602"/>
      <point x="352" y="602" type="curve" smooth="yes"/>
      <point x="380" y="602"/>
      <point x="397" y="599"/>
      <point x="422" y="589" type="curve"/>
      <point x="443" y="638" type="line"/>
      <point x="421" y="649"/>
      <point x="395" y="657"/>
      <point x="359" y="657" type="curve" smooth="yes"/>
      <point x="344" y="657"/>
      <point x="321" y="656"/>
      <point x="297" y="651" type="curve"/>
      <point x="261" y="633"/>
      <point x="217" y="595"/>
      <point x="209" y="541" type="curve" smooth="yes"/>
      <point x="197" y="457" type="line"/>
      <point x="138" y="457" type="line"/>
      <point x="125" y="407" type="line"/>
      <point x="190" y="407" type="line"/>
      <point x="131" y="-12" type="line" smooth="yes"/>
      <point x="127" y="-42"/>
      <point x="121" y="-63"/>
      <point x="110" y="-82" type="curve"/>
      <point x="86" y="-89"/>
      <point x="69" y="-90"/>
      <point x="45" y="-90" type="curve" smooth="yes"/>
      <point x="31" y="-90"/>
      <point x="12" y="-89"/>
      <point x="1" y="-87" type="curve"/>
      <point x="-11" y="-139" type="line"/>
      <point x="7" y="-146"/>
      <point x="26" y="-150"/>
      <point x="50" y="-150" type="curve" smooth="yes"/>
    </contour>
  </outline>
</glyph>
<glyph name="Acaron" format="1">
  <advance width="591"/>
  <unicode hex="01CD"/>
  <note>
	Acaron
  </note>
  <outline>
    <contour>
      <point x="123" y="65"/>
      <point x="144" y="141"/>
      <point x="163" y="209" type="curve"/>
      <point x="427" y="209" type="line"/>
      <point x="447" y="141"/>
      <point x="468" y="65"/>
      <point x="484" y="0" type="curve"/>
      <point x="551" y="7" type="line"/>
      <point x="497" y="205"/>
      <point x="425" y="436"/>
      <point x="358" y="614" type="curve"/>
      <point x="233" y="614" type="line"/>
      <point x="166" y="436"/>
      <point x="94" y="205"/>
      <point x="40" y="7" type="curve"/>
      <point x="107" y="0" type="line"/>
    </contour>
    <contour>
      <point x="211" y="369"/>
      <point x="248" y="485"/>
      <point x="273" y="553" type="curve"/>
      <point x="317" y="553" type="line"/>
      <point x="342" y="485"/>
      <point x="378" y="369"/>
      <point x="409" y="265" type="curve"/>
      <point x="180" y="265" type="line"/>
    </contour>
    <contour>
      <point x="325" y="706" type="line"/>
      <point x="426" y="839" type="line"/>
      <point x="385" y="847" type="line"/>
      <point x="298" y="759" type="line"/>
      <point x="292" y="759" type="line"/>
      <point x="203" y="847" type="line"/>
      <point x="164" y="839" type="line"/>
      <point x="265" y="706" type="line"/>
    </contour>
  </outline>
</glyph>
<glyph name="Icaron" format="1">
  <advance width="232"/>
  <unicode hex="01CF"/>
  <note>
	Icaron
  </note>
  <outline>
    <contour>
      <point x="147" y="0" type="line"/>
      <point x="147" y="614" type="line"/>
      <point x="84" y="614" type="line"/>
      <point x="84" y="0" type="line"/>
    </contour>
    <contour>
      <point x="146" y="706" type="line"/>
      <point x="247" y="839" type="line"/>
      <point x="207" y="847" type="line"/>
      <point x="119" y="759" type="line"/>
      <point x="114" y="759" type="line"/>
      <point x="24" y="847" type="line"/>
      <point x="-15" y="839" type="line"/>
      <point x="87" y="706" type="line"/>
    </contour>
  </outline>
</glyph>
<glyph name="icaron" format="1">
  <advance width="239"/>
  <unicode hex="01D0"/>
  <note>
	icaron
  </note>
  <outline>
    <contour>
      <point x="142" y="560" type="line"/>
      <point x="243" y="692" type="line"/>
      <point x="203" y="701" type="line"/>
      <point x="115" y="612" type="line"/>
      <point x="110" y="612" type="line"/>
      <point x="20" y="701" type="line"/>
      <point x="-19" y="692" type="line"/>
      <point x="82" y="560" type="line"/>
    </contour>
    <contour>
      <point x="141" y="0" type="line"/>
      <point x="141" y="469" type="line"/>
      <point x="82" y="469" type="line"/>
      <point x="82" y="0" type="line"/>
    </contour>
  </outline>
</glyph>
<glyph name="Ocaron" format="1">
  <advance width="610"/>
  <unicode hex="01D1"/>
  <note>
	Ocaron
  </note>
  <outline>
    <contour>
      <point x="489" y="-9"/>
      <point x="553" y="111"/>
      <point x="553" y="317" type="curve" smooth="yes"/>
      <point x="553" y="518"/>
      <point x="480" y="624"/>
      <point x="314" y="624" type="curve" smooth="yes"/>
      <point x="121" y="624"/>
      <point x="57" y="504"/>
      <point x="57" y="297" type="curve" smooth="yes"/>
      <point x="57" y="96"/>
      <point x="134" y="-9"/>
      <point x="296" y="-9" type="curve" smooth="yes"/>
    </contour>
    <contour>
      <point x="167" y="50"/>
      <point x="120" y="134"/>
      <point x="120" y="311" type="curve" smooth="yes"/>
      <point x="120" y="406"/>
      <point x="140" y="484"/>
      <point x="172" y="541" type="curve"/>
      <point x="201" y="556"/>
      <point x="253" y="565"/>
      <point x="300" y="565" type="curve" smooth="yes"/>
      <point x="443" y="565"/>
      <point x="490" y="480"/>
      <point x="490" y="303" type="curve" smooth="yes"/>
      <point x="490" y="208"/>
      <point x="466" y="129"/>
      <point x="435" y="73" type="curve"/>
      <point x="406" y="59"/>
      <point x="357" y="50"/>
      <point x="310" y="50" type="curve" smooth="yes"/>
    </contour>
    <contour>
      <point x="337" y="706" type="line"/>
      <point x="438" y="839" type="line"/>
      <point x="397" y="847" type="line"/>
      <point x="310" y="759" type="line"/>
      <point x="304" y="759" type="line"/>
      <point x="215" y="847" type="line"/>
      <point x="176" y="839" type="line"/>
      <point x="277" y="706" type="line"/>
    </contour>
  </outline>
</glyph>
<glyph name="Ucaron" format="1">
  <advance width="599"/>
  <unicode hex="01D3"/>
  <note>
	Ucaron
  </note>
  <outline>
    <contour>
      <point x="426" y="-9"/>
      <point x="519" y="23"/>
      <point x="519" y="104" type="curve" smooth="yes"/>
      <point x="519" y="614" type="line"/>
      <point x="456" y="614" type="line"/>
      <point x="456" y="75" type="line"/>
      <point x="422" y="60"/>
      <point x="369" y="50"/>
      <point x="300" y="50" type="curve" smooth="yes"/>
      <point x="190" y="50"/>
      <point x="141" y="79"/>
      <point x="141" y="184" type="curve" smooth="yes"/>
      <point x="141" y="614" type="line"/>
      <point x="78" y="614" type="line"/>
      <point x="78" y="170" type="line" smooth="yes"/>
      <point x="78" y="49"/>
      <point x="152" y="-9"/>
      <point x="293" y="-9" type="curve" smooth="yes"/>
    </contour>
    <contour>
      <point x="329" y="706" type="line"/>
      <point x="430" y="839" type="line"/>
      <point x="389" y="847" type="line"/>
      <point x="302" y="759" type="line"/>
      <point x="296" y="759" type="line"/>
      <point x="207" y="847" type="line"/>
      <point x="168" y="839" type="line"/>
      <point x="269" y="706" type="line"/>
    </contour>
  </outline>
</glyph>
<glyph name="Udieresismacron" format="1">
  <advance width="599"/>
  <unicode hex="01D5"/>
  <note>
	Udieresismacron
  </note>
  <outline>
    <contour>
      <point x="426" y="-9"/>
      <point x="519" y="23"/>
      <point x="519" y="104" type="curve" smooth="yes"/>
      <point x="519" y="614" type="line"/>
      <point x="456" y="614" type="line"/>
      <point x="456" y="75" type="line"/>
      <point x="422" y="60"/>
      <point x="369" y="50"/>
      <point x="300" y="50" type="curve" smooth="yes"/>
      <point x="190" y="50"/>
      <point x="141" y="79"/>
      <point x="141" y="184" type="curve" smooth="yes"/>
      <point x="141" y="614" type="line"/>
      <point x="78" y="614" type="line"/>
      <point x="78" y="170" type="line" smooth="yes"/>
      <point x="78" y="49"/>
      <point x="152" y="-9"/>
      <point x="293" y="-9" type="curve" smooth="yes"/>
    </contour>
    <contour>
      <point x="245" y="703"/>
      <point x="259" y="717"/>
      <point x="259" y="740" type="curve" smooth="yes"/>
      <point x="259" y="764"/>
      <point x="245" y="777"/>
      <point x="221" y="777" type="curve" smooth="yes"/>
      <point x="197" y="777"/>
      <point x="182" y="764"/>
      <point x="182" y="740" type="curve" smooth="yes"/>
      <point x="182" y="717"/>
      <point x="197" y="703"/>
      <point x="221" y="703" type="curve" smooth="yes"/>
    </contour>
    <contour>
      <point x="403" y="703"/>
      <point x="417" y="717"/>
      <point x="417" y="740" type="curve" smooth="yes"/>
      <point x="417" y="764"/>
      <point x="403" y="777"/>
      <point x="379" y="777" type="curve" smooth="yes"/>
      <point x="354" y="777"/>
      <point x="339" y="764"/>
      <point x="339" y="740" type="curve" smooth="yes"/>
      <point x="339" y="717"/>
      <point x="354" y="703"/>
      <point x="379" y="703" type="curve" smooth="yes"/>
    </contour>
    <contour>
      <point x="443" y="841" type="line"/>
      <point x="443" y="894" type="line"/>
      <point x="158" y="894" type="line"/>
      <point x="158" y="841" type="line"/>
    </contour>
  </outline>
</glyph>
<glyph name="udieresisacute" format="1">
  <advance width="511"/>
  <unicode hex="01D8"/>
  <note>
	udieresisacute
  </note>
  <outline>
    <contour>
      <point x="271" y="-9"/>
      <point x="321" y="23"/>
      <point x="367" y="72" type="curve"/>
      <point x="375" y="72" type="line"/>
      <point x="379" y="0" type="line"/>
      <point x="430" y="0" type="line"/>
      <point x="430" y="468" type="line"/>
      <point x="370" y="468" type="line"/>
      <point x="370" y="117" type="line"/>
      <point x="333" y="75"/>
      <point x="278" y="45"/>
      <point x="208" y="45" type="curve" smooth="yes"/>
      <point x="183" y="45"/>
      <point x="160" y="48"/>
      <point x="134" y="56" type="curve"/>
      <point x="134" y="468" type="line"/>
      <point x="74" y="468" type="line"/>
      <point x="74" y="100" type="line" smooth="yes"/>
      <point x="74" y="21"/>
      <point x="116" y="-9"/>
      <point x="198" y="-9" type="curve" smooth="yes"/>
    </contour>
    <contour>
      <point x="201" y="555"/>
      <point x="215" y="568"/>
      <point x="215" y="591" type="curve" smooth="yes"/>
      <point x="215" y="615"/>
      <point x="201" y="628"/>
      <point x="177" y="628" type="curve" smooth="yes"/>
      <point x="153" y="628"/>
      <point x="138" y="615"/>
      <point x="138" y="591" type="curve" smooth="yes"/>
      <point x="138" y="568"/>
      <point x="153" y="555"/>
      <point x="177" y="555" type="curve" smooth="yes"/>
    </contour>
    <contour>
      <point x="359" y="555"/>
      <point x="373" y="568"/>
      <point x="373" y="591" type="curve" smooth="yes"/>
      <point x="373" y="615"/>
      <point x="359" y="628"/>
      <point x="335" y="628" type="curve" smooth="yes"/>
      <point x="310" y="628"/>
      <point x="295" y="615"/>
      <point x="295" y="591" type="curve" smooth="yes"/>
      <point x="295" y="568"/>
      <point x="310" y="555"/>
      <point x="335" y="555" type="curve" smooth="yes"/>
    </contour>
    <contour>
      <point x="383" y="823" type="line"/>
      <point x="305" y="833" type="line"/>
      <point x="231" y="705" type="line"/>
      <point x="276" y="698" type="line"/>
    </contour>
  </outline>
</glyph>
<glyph name="Udieresisgrave" format="1">
  <advance width="599"/>
  <unicode hex="01DB"/>
  <note>
	Udieresisgrave
  </note>
  <outline>
    <contour>
      <point x="426" y="-9"/>
      <point x="519" y="23"/>
      <point x="519" y="104" type="curve" smooth="yes"/>
      <point x="519" y="614" type="line"/>
      <point x="456" y="614" type="line"/>
      <point x="456" y="75" type="line"/>
      <point x="422" y="60"/>
      <point x="369" y="50"/>
      <point x="300" y="50" type="curve" smooth="yes"/>
      <point x="190" y="50"/>
      <point x="141" y="79"/>
      <point x="141" y="184" type="curve" smooth="yes"/>
      <point x="141" y="614" type="line"/>
      <point x="78" y="614" type="line"/>
      <point x="78" y="170" type="line" smooth="yes"/>
      <point x="78" y="49"/>
      <point x="152" y="-9"/>
      <point x="293" y="-9" type="curve" smooth="yes"/>
    </contour>
    <contour>
      <point x="244" y="701"/>
      <point x="258" y="715"/>
      <point x="258" y="738" type="curve" smooth="yes"/>
      <point x="258" y="762"/>
      <point x="244" y="775"/>
      <point x="219" y="775" type="curve" smooth="yes"/>
      <point x="196" y="775"/>
      <point x="181" y="762"/>
      <point x="181" y="738" type="curve" smooth="yes"/>
      <point x="181" y="715"/>
      <point x="196" y="701"/>
      <point x="219" y="701" type="curve" smooth="yes"/>
    </contour>
    <contour>
      <point x="401" y="701"/>
      <point x="415" y="715"/>
      <point x="415" y="738" type="curve" smooth="yes"/>
      <point x="415" y="762"/>
      <point x="401" y="775"/>
      <point x="377" y="775" type="curve" smooth="yes"/>
      <point x="353" y="775"/>
      <point x="338" y="762"/>
      <point x="338" y="738" type="curve" smooth="yes"/>
      <point x="338" y="715"/>
      <point x="353" y="701"/>
      <point x="377" y="701" type="curve" smooth="yes"/>
    </contour>
    <contour>
      <point x="329" y="852" type="line"/>
      <point x="254" y="979" type="line"/>
      <point x="177" y="970" type="line"/>
      <point x="283" y="844" type="line"/>
    </contour>
  </outline>
</glyph>
<glyph name="udieresisgrave" format="1">
  <advance width="511"/>
  <unicode hex="01DC"/>
  <note>
	udieresisgrave
  </note>
  <outline>
    <contour>
      <point x="271" y="-9"/>
      <point x="321" y="23"/>
      <point x="367" y="72" type="curve"/>
      <point x="375" y="72" type="line"/>
      <point x="379" y="0" type="line"/>
      <point x="430" y="0" type="line"/>
      <point x="430" y="468" type="line"/>
      <point x="370" y="468" type="line"/>
      <point x="370" y="117" type="line"/>
      <point x="333" y="75"/>
      <point x="278" y="45"/>
      <point x="208" y="45" type="curve" smooth="yes"/>
      <point x="183" y="45"/>
      <point x="160" y="48"/>
      <point x="134" y="56" type="curve"/>
      <point x="134" y="468" type="line"/>
      <point x="74" y="468" type="line"/>
      <point x="74" y="100" type="line" smooth="yes"/>
      <point x="74" y="21"/>
      <point x="116" y="-9"/>
      <point x="198" y="-9" type="curve" smooth="yes"/>
    </contour>
    <contour>
      <point x="200" y="555"/>
      <point x="214" y="568"/>
      <point x="214" y="591" type="curve" smooth="yes"/>
      <point x="214" y="615"/>
      <point x="200" y="628"/>
      <point x="175" y="628" type="curve" smooth="yes"/>
      <point x="152" y="628"/>
      <point x="137" y="615"/>
      <point x="137" y="591" type="curve" smooth="yes"/>
      <point x="137" y="568"/>
      <point x="152" y="555"/>
      <point x="175" y="555" type="curve" smooth="yes"/>
    </contour>
    <contour>
      <point x="358" y="555"/>
      <point x="372" y="568"/>
      <point x="372" y="591" type="curve" smooth="yes"/>
      <point x="372" y="615"/>
      <point x="358" y="628"/>
      <point x="334" y="628" type="curve" smooth="yes"/>
      <point x="310" y="628"/>
      <point x="295" y="615"/>
      <point x="295" y="591" type="curve" smooth="yes"/>
      <point x="295" y="568"/>
      <point x="310" y="555"/>
      <point x="334" y="555" type="curve" smooth="yes"/>
    </contour>
    <contour>
      <point x="283" y="705" type="line"/>
      <point x="208" y="832" type="line"/>
      <point x="131" y="823" type="line"/>
      <point x="237" y="697" type="line"/>
    </contour>
  </outline>
</glyph>
<glyph name="AEacute" format="1">
  <advance width="946"/>
  <unicode hex="01FC"/>
  <note>
	AEacute
  </note>
  <outline>
    <contour>
      <point x="768" y="-10"/>
      <point x="823" y="-4"/>
      <point x="873" y="9" type="curve"/>
      <point x="859" y="64" type="line"/>
      <point x="810" y="53"/>
      <point x="755" y="48"/>
      <point x="698" y="48" type="curve" smooth="yes"/>
      <point x="643" y="48"/>
      <point x="601" y="51"/>
      <point x="553" y="60" type="curve"/>
      <point x="553" y="280" type="line"/>
      <point x="833" y="280" type="line"/>
      <point x="833" y="336" type="line"/>
      <point x="553" y="336" type="line"/>
      <point x="553" y="556" type="line"/>
      <point x="862" y="556" type="line"/>
      <point x="862" y="614" type="line"/>
      <point x="372" y="614" type="line"/>
      <point x="257" y="422"/>
      <point x="145" y="215"/>
      <point x="49" y="20" type="curve"/>
      <point x="109" y="0" type="line"/>
      <point x="142" y="66"/>
      <point x="181" y="143"/>
      <point x="217" y="210" type="curve"/>
      <point x="491" y="210" type="line"/>
      <point x="491" y="73" type="line" smooth="yes"/>
      <point x="491" y="8"/>
      <point x="580" y="-10"/>
      <point x="695" y="-10" type="curve" smooth="yes"/>
    </contour>
    <contour>
      <point x="299" y="365"/>
      <point x="363" y="479"/>
      <point x="408" y="553" type="curve"/>
      <point x="491" y="553" type="line"/>
      <point x="491" y="266" type="line"/>
      <point x="247" y="266" type="line"/>
    </contour>
    <contour>
      <point x="687" y="840" type="line"/>
      <point x="606" y="848" type="line"/>
      <point x="523" y="706" type="line"/>
      <point x="568" y="698" type="line"/>
    </contour>
  </outline>
</glyph>
<glyph name="aeacute" format="1">
  <advance width="758"/>
  <unicode hex="01FD"/>
  <note>
	aeacute
  </note>
  <outline>
    <contour>
      <point x="281" y="-9"/>
      <point x="327" y="26"/>
      <point x="375" y="79" type="curve"/>
      <point x="404" y="24"/>
      <point x="456" y="-5"/>
      <point x="539" y="-5" type="curve" smooth="yes"/>
      <point x="617" y="-5"/>
      <point x="661" y="16"/>
      <point x="701" y="40" type="curve"/>
      <point x="682" y="87" type="line"/>
      <point x="642" y="62"/>
      <point x="605" y="47"/>
      <point x="542" y="47" type="curve" smooth="yes"/>
      <point x="444" y="47"/>
      <point x="404" y="103"/>
      <point x="401" y="210" type="curve"/>
      <point x="656" y="208" type="line"/>
      <point x="707" y="259" type="line"/>
      <point x="720" y="392"/>
      <point x="659" y="476"/>
      <point x="540" y="476" type="curve" smooth="yes"/>
      <point x="465" y="476"/>
      <point x="415" y="446"/>
      <point x="384" y="395" type="curve"/>
      <point x="363" y="448"/>
      <point x="312" y="476"/>
      <point x="246" y="476" type="curve" smooth="yes"/>
      <point x="186" y="476"/>
      <point x="118" y="452"/>
      <point x="80" y="430" type="curve"/>
      <point x="80" y="411" type="line" smooth="yes"/>
      <point x="80" y="391"/>
      <point x="85" y="367"/>
      <point x="91" y="350" type="curve"/>
      <point x="136" y="350" type="line"/>
      <point x="146" y="422" type="line"/>
      <point x="167" y="425"/>
      <point x="196" y="427"/>
      <point x="222" y="427" type="curve" smooth="yes"/>
      <point x="299" y="427"/>
      <point x="341" y="403"/>
      <point x="341" y="322" type="curve" smooth="yes"/>
      <point x="341" y="254" type="line"/>
      <point x="318" y="256"/>
      <point x="280" y="258"/>
      <point x="253" y="258" type="curve" smooth="yes"/>
      <point x="124" y="258"/>
      <point x="45" y="211"/>
      <point x="45" y="108" type="curve" smooth="yes"/>
      <point x="45" y="38"/>
      <point x="95" y="-9"/>
      <point x="182" y="-9" type="curve" smooth="yes"/>
    </contour>
    <contour>
      <point x="139" y="40"/>
      <point x="108" y="57"/>
      <point x="108" y="117" type="curve" smooth="yes"/>
      <point x="108" y="150"/>
      <point x="115" y="175"/>
      <point x="131" y="205" type="curve"/>
      <point x="158" y="213"/>
      <point x="196" y="216"/>
      <point x="233" y="216" type="curve" smooth="yes"/>
      <point x="269" y="216"/>
      <point x="315" y="213"/>
      <point x="343" y="208" type="curve"/>
      <point x="343" y="107" type="line"/>
      <point x="305" y="66"/>
      <point x="258" y="40"/>
      <point x="192" y="40" type="curve" smooth="yes"/>
    </contour>
    <contour>
      <point x="405" y="363"/>
      <point x="431" y="423"/>
      <point x="535" y="423" type="curve" smooth="yes"/>
      <point x="615" y="423"/>
      <point x="653" y="377"/>
      <point x="653" y="307" type="curve" smooth="yes"/>
      <point x="653" y="293"/>
      <point x="652" y="275"/>
      <point x="648" y="259" type="curve"/>
      <point x="400" y="255" type="line"/>
    </contour>
    <contour>
      <point x="517" y="693" type="line"/>
      <point x="436" y="702" type="line"/>
      <point x="353" y="559" type="line"/>
      <point x="398" y="552" type="line"/>
    </contour>
  </outline>
</glyph>
<glyph name="Oslashacute" format="1">
  <advance width="615"/>
  <unicode hex="01FE"/>
  <note>
	Oslashacute
  </note>
  <outline>
    <contour>
      <point x="195" y="9" type="line"/>
      <point x="224" y="-3"/>
      <point x="258" y="-9"/>
      <point x="298" y="-9" type="curve" smooth="yes"/>
      <point x="491" y="-9"/>
      <point x="555" y="111"/>
      <point x="555" y="317" type="curve" smooth="yes"/>
      <point x="555" y="446"/>
      <point x="525" y="536"/>
      <point x="459" y="584" type="curve"/>
      <point x="497" y="666" type="line"/>
      <point x="445" y="679" type="line"/>
      <point x="411" y="608" type="line"/>
      <point x="384" y="618"/>
      <point x="352" y="624"/>
      <point x="316" y="624" type="curve" smooth="yes"/>
      <point x="123" y="624"/>
      <point x="59" y="504"/>
      <point x="59" y="297" type="curve" smooth="yes"/>
      <point x="59" y="173"/>
      <point x="88" y="85"/>
      <point x="149" y="36" type="curve"/>
      <point x="106" y="-57" type="line"/>
      <point x="158" y="-71" type="line"/>
    </contour>
    <contour>
      <point x="137" y="139"/>
      <point x="122" y="210"/>
      <point x="122" y="311" type="curve" smooth="yes"/>
      <point x="122" y="406"/>
      <point x="142" y="484"/>
      <point x="174" y="541" type="curve"/>
      <point x="203" y="556"/>
      <point x="255" y="565"/>
      <point x="302" y="565" type="curve" smooth="yes"/>
      <point x="335" y="565"/>
      <point x="362" y="560"/>
      <point x="385" y="550" type="curve"/>
      <point x="176" y="97" type="line"/>
    </contour>
    <contour>
      <point x="275" y="49"/>
      <point x="245" y="55"/>
      <point x="221" y="66" type="curve"/>
      <point x="431" y="523" type="line"/>
      <point x="475" y="482"/>
      <point x="492" y="408"/>
      <point x="492" y="303" type="curve" smooth="yes"/>
      <point x="492" y="208"/>
      <point x="468" y="128"/>
      <point x="437" y="73" type="curve"/>
      <point x="408" y="58"/>
      <point x="359" y="49"/>
      <point x="312" y="49" type="curve" smooth="yes"/>
    </contour>
    <contour>
      <point x="437" y="840" type="line"/>
      <point x="356" y="849" type="line"/>
      <point x="273" y="706" type="line"/>
      <point x="318" y="699" type="line"/>
    </contour>
  </outline>
</glyph>
<glyph name="oslashacute" format="1">
  <advance width="509"/>
  <unicode hex="01FF"/>
  <note>
	oslashacute
  </note>
  <outline>
    <contour>
      <point x="424" y="537" type="line"/>
      <point x="371" y="550" type="line"/>
      <point x="76" y="-92" type="line"/>
      <point x="129" y="-106" type="line"/>
    </contour>
    <contour>
      <point x="402" y="-9"/>
      <point x="452" y="92"/>
      <point x="452" y="237" type="curve" smooth="yes"/>
      <point x="452" y="381"/>
      <point x="399" y="480"/>
      <point x="265" y="480" type="curve" smooth="yes"/>
      <point x="104" y="480"/>
      <point x="55" y="374"/>
      <point x="55" y="229" type="curve" smooth="yes"/>
      <point x="55" y="85"/>
      <point x="108" y="-9"/>
      <point x="242" y="-9" type="curve" smooth="yes"/>
    </contour>
    <contour>
      <point x="147" y="44"/>
      <point x="115" y="105"/>
      <point x="115" y="240" type="curve" smooth="yes"/>
      <point x="115" y="310"/>
      <point x="127" y="371"/>
      <point x="146" y="405" type="curve"/>
      <point x="172" y="419"/>
      <point x="209" y="426"/>
      <point x="248" y="426" type="curve" smooth="yes"/>
      <point x="360" y="426"/>
      <point x="392" y="361"/>
      <point x="392" y="225" type="curve" smooth="yes"/>
      <point x="392" y="154"/>
      <point x="380" y="99"/>
      <point x="361" y="65" type="curve"/>
      <point x="335" y="52"/>
      <point x="298" y="44"/>
      <point x="259" y="44" type="curve" smooth="yes"/>
    </contour>
    <contour>
      <point x="377" y="694" type="line"/>
      <point x="296" y="702" type="line"/>
      <point x="213" y="560" type="line"/>
      <point x="258" y="552" type="line"/>
    </contour>
  </outline>
</glyph>
<glyph name="gscript" format="1">
  <advance width="505"/>
  <unicode hex="0261"/>
  <note>
	gscript
  </note>
  <outline>
    <contour>
      <point x="118" y="472"/>
      <point x="76" y="370"/>
      <point x="76" y="222" type="curve" smooth="yes"/>
      <point x="76" y="102"/>
      <point x="119" y="0"/>
      <point x="241" y="0" type="curve" smooth="yes"/>
      <point x="303" y="0"/>
      <point x="351" y="35"/>
      <point x="385" y="74" type="curve"/>
      <point x="393" y="74" type="line"/>
      <point x="390" y="12" type="line"/>
      <point x="390" y="-116" type="line"/>
      <point x="358" y="-133"/>
      <point x="321" y="-142"/>
      <point x="261" y="-142" type="curve" smooth="yes"/>
      <point x="213" y="-142"/>
      <point x="161" y="-129"/>
      <point x="123" y="-111" type="curve"/>
      <point x="106" y="-159" type="line"/>
      <point x="143" y="-179"/>
      <point x="200" y="-196"/>
      <point x="266" y="-196" type="curve" smooth="yes"/>
      <point x="373" y="-196"/>
      <point x="448" y="-155"/>
      <point x="448" y="-60" type="curve" smooth="yes"/>
      <point x="448" y="468" type="line"/>
      <point x="397" y="468" type="line"/>
      <point x="392" y="393" type="line"/>
      <point x="385" y="393" type="line"/>
      <point x="359" y="439"/>
      <point x="317" y="472"/>
      <point x="251" y="472" type="curve" smooth="yes"/>
    </contour>
    <contour>
      <point x="317" y="421"/>
      <point x="358" y="385"/>
      <point x="388" y="345" type="curve"/>
      <point x="388" y="126" type="line"/>
      <point x="354" y="82"/>
      <point x="310" y="53"/>
      <point x="254" y="53" type="curve" smooth="yes"/>
      <point x="174" y="53"/>
      <point x="137" y="110"/>
      <point x="137" y="228" type="curve" smooth="yes"/>
      <point x="137" y="350"/>
      <point x="164" y="421"/>
      <point x="258" y="421" type="curve" smooth="yes"/>
    </contour>
  </outline>
</glyph>
<glyph name="uni02BB" format="1">
  <advance width="265"/>
  <unicode hex="02BB"/>
  <note>
	uni02BB
  </note>
  <outline>
    <contour>
      <point x="156" y="430"/>
      <point x="170" y="433"/>
      <point x="183" y="438" type="curve"/>
      <point x="183" y="480" type="line"/>
      <point x="129" y="480" type="line"/>
      <point x="129" y="532"/>
      <point x="142" y="571"/>
      <point x="164" y="611" type="curve"/>
      <point x="128" y="620" type="line"/>
      <point x="98" y="584"/>
      <point x="81" y="540"/>
      <point x="81" y="496" type="curve" smooth="yes"/>
      <point x="81" y="453"/>
      <point x="100" y="430"/>
      <point x="142" y="430" type="curve" smooth="yes"/>
    </contour>
  </outline>
</glyph>
<glyph name="uni02BC" format="1">
  <advance width="265"/>
  <unicode hex="02BC"/>
  <note>
	uni02BC
  </note>
  <outline>
    <contour>
      <point x="166" y="466"/>
      <point x="183" y="510"/>
      <point x="183" y="553" type="curve" smooth="yes"/>
      <point x="183" y="597"/>
      <point x="164" y="620"/>
      <point x="123" y="620" type="curve" smooth="yes"/>
      <point x="108" y="620"/>
      <point x="94" y="617"/>
      <point x="81" y="612" type="curve"/>
      <point x="81" y="569" type="line"/>
      <point x="135" y="569" type="line"/>
      <point x="135" y="518"/>
      <point x="122" y="479"/>
      <point x="100" y="439" type="curve"/>
      <point x="137" y="430" type="line"/>
    </contour>
  </outline>
</glyph>
